<svg width="152" height="152" viewBox="0 0 152 152" fill="none" xmlns="http://www.w3.org/2000/svg">
<path d="M111.5 75.6053C111.5 91.108 101.667 104.86 87.5 109.185C76.5 112.542 77.8853 119.447 76.5 121.5C76.2844 121.819 75.5 122 75 121.5C74 119 75 112.5 64 109.185C50.0177 104.297 40 91.0028 40 75.5C40 55.8358 55.6177 40 75.5 40C95.3823 40 111.5 55.941 111.5 75.6053Z" fill="url(#paint0_linear)"/>
<path d="M78 132.5C78 133.881 76.8807 135 75.5 135C74.1193 135 73 133.881 73 132.5C73 131.119 74.1193 130 75.5 130C76.8807 130 78 131.119 78 132.5Z" fill="#56B4ED"/>
<path fill-rule="evenodd" clip-rule="evenodd" d="M80 132.5C80 134.985 77.9853 137 75.5 137C73.0147 137 71 134.985 71 132.5C71 130.015 73.0147 128 75.5 128C77.9853 128 80 130.015 80 132.5ZM75.5 135C76.8807 135 78 133.881 78 132.5C78 131.119 76.8807 130 75.5 130C74.1193 130 73 131.119 73 132.5C73 133.881 74.1193 135 75.5 135Z" fill="#FCFCF7"/>
<g filter="url(#filter0_d)">
<path d="M92 76C92 84.8366 84.8366 92 76 92C67.1634 92 60 84.8366 60 76C60 67.1634 67.1634 60 76 60C84.8366 60 92 67.1634 92 76Z" fill="white"/>
</g>
<defs>
<filter id="filter0_d" x="0" y="0" width="152" height="152" filterUnits="userSpaceOnUse" color-interpolation-filters="sRGB">
<feFlood flood-opacity="0" result="BackgroundImageFix"/>
<feColorMatrix in="SourceAlpha" type="matrix" values="0 0 0 0 0 0 0 0 0 0 0 0 0 0 0 0 0 0 127 0"/>
<feOffset/>
<feGaussianBlur stdDeviation="30"/>
<feColorMatrix type="matrix" values="0 0 0 0 0 0 0 0 0 0 0 0 0 0 0 0 0 0 0.5 0"/>
<feBlend mode="normal" in2="BackgroundImageFix" result="effect1_dropShadow"/>
<feBlend mode="normal" in="SourceGraphic" in2="effect1_dropShadow" result="shape"/>
</filter>
<linearGradient id="paint0_linear" x1="63" y1="119.5" x2="86.9497" y2="44.7787" gradientUnits="userSpaceOnUse">
<stop stop-color="#12A1D9"/>
<stop offset="1" stop-color="#67D5FF"/>
</linearGradient>
</defs>
</svg>
