<svg width="84" height="91" viewBox="0 0 84 91" fill="none" xmlns="http://www.w3.org/2000/svg">
<path fill-rule="evenodd" clip-rule="evenodd" d="M58.4147 10.3931C58.883 10.5901 59.3468 10.7954 59.8061 11.0089L58.5416 13.7294C58.1157 13.5314 57.6855 13.341 57.2513 13.1583L58.4147 10.3931ZM62.5161 12.392C63.4037 12.8869 64.2712 13.4135 65.117 13.9701L63.4679 16.4762C62.6831 15.9597 61.8784 15.4713 61.0551 15.0122L62.5161 12.392ZM67.5952 15.734C68.4 16.3523 69.1814 16.9994 69.9379 17.6738L67.9416 19.9132C67.2395 19.2873 66.5143 18.6867 65.7675 18.1129L67.5952 15.734ZM72.133 19.779C72.8386 20.5069 73.5178 21.2606 74.169 22.0385L71.8686 23.9642C71.2643 23.2422 70.6339 22.5427 69.979 21.8671L72.133 19.779ZM76.035 24.4404C76.6268 25.2624 77.1892 26.1069 77.7208 26.9725L75.1644 28.5425C74.6713 27.7395 74.1494 26.9559 73.6003 26.1932L76.035 24.4404ZM79.2167 29.6215C79.6816 30.5201 80.1145 31.438 80.5141 32.3735L77.7553 33.5519C77.3847 32.6844 76.9832 31.8332 76.5521 30.9997L79.2167 29.6215ZM81.6053 35.214C81.9325 36.1698 82.2258 37.1414 82.4838 38.1273L79.5815 38.8867C79.3423 37.9727 79.0704 37.0719 78.767 36.1856L81.6053 35.214ZM83.145 41.0974C83.3276 42.089 83.475 43.0929 83.5859 44.1076L80.6036 44.4332C80.5008 43.4917 80.364 42.5605 80.1946 41.6408L83.145 41.0974ZM83.8057 47.1413C83.8238 47.6459 83.833 48.1528 83.833 48.6617C83.833 49.2077 83.8225 49.7514 83.8015 50.2924L80.8038 50.1765C80.8232 49.6741 80.833 49.1691 80.833 48.6617C80.833 48.1888 80.8245 47.718 80.8076 47.2493L83.8057 47.1413ZM83.5491 53.5407C83.4218 54.6268 83.2526 55.7002 83.0431 56.7593L80.1002 56.1771C80.2945 55.195 80.4514 54.1993 80.5695 53.1916L83.5491 53.5407ZM82.2845 59.9303C81.9887 60.9809 81.6527 62.0146 81.2781 63.0296L78.4636 61.9909C78.8109 61.0498 79.1225 60.0914 79.3967 59.1173L82.2845 59.9303ZM80.0292 66.0413C79.5724 67.0306 79.0778 67.9988 78.5473 68.944L75.9311 67.4757C76.4232 66.5989 76.8819 65.701 77.3056 64.7836L80.0292 66.0413ZM76.8421 71.7208C76.2368 72.6249 75.597 73.5038 74.9245 74.3557L72.5698 72.4969C73.1939 71.7063 73.7876 70.8907 74.3492 70.0519L76.8421 71.7208ZM72.8074 76.8322C72.0697 77.6299 71.3011 78.3985 70.5035 79.1361L68.4666 76.9336C69.2069 76.249 69.9203 75.5356 70.6049 74.7953L72.8074 76.8322ZM68.027 81.2533C67.1751 81.9257 66.2962 82.5655 65.3921 83.1708L63.7232 80.6779C64.562 80.1163 65.3776 79.5226 66.1681 78.8985L68.027 81.2533ZM62.6153 84.876C61.67 85.4065 60.7018 85.9011 59.7126 86.3579L58.4548 83.6343C59.3723 83.2106 60.2702 82.7519 61.147 82.2598L62.6153 84.876ZM56.7009 87.6068C55.6858 87.9814 54.6521 88.3174 53.6015 88.6132L52.7886 85.7254C53.7627 85.4512 54.7211 85.1396 55.6622 84.7923L56.7009 87.6068ZM50.4306 89.3718C49.3715 89.5814 48.2981 89.7506 47.2119 89.8778L46.8629 86.8982C47.8706 86.7801 48.8663 86.6232 49.8484 86.4289L50.4306 89.3718ZM43.9637 90.1303C43.4226 90.1512 42.879 90.1617 42.333 90.1617V87.1617C42.8404 87.1617 43.3453 87.1519 43.8478 87.1325L43.9637 90.1303Z" fill="#2175AA"/>
<path fill-rule="evenodd" clip-rule="evenodd" d="M42.333 10.1616C21.07 10.1616 3.83301 27.3987 3.83301 48.6616C3.83301 69.9246 21.07 87.1616 42.333 87.1616V90.1616C19.4132 90.1616 0.833008 71.5814 0.833008 48.6616C0.833008 25.7418 19.4132 7.16162 42.333 7.16162V10.1616Z" fill="#2175AA"/>
<path fill-rule="evenodd" clip-rule="evenodd" d="M43.8204 0.324013C44.3296 0.143373 44.8966 0.250504 45.3047 0.604477L55.6756 9.59856C56.083 9.95189 56.2694 10.4967 56.1637 11.0256C56.0581 11.5544 55.6767 11.9859 55.1648 12.1556L42.4658 16.3653C41.9645 16.5315 41.4127 16.4218 41.0131 16.0764C40.6134 15.7311 40.4249 15.2011 40.5166 14.681L42.8448 1.47721C42.9386 0.945154 43.3113 0.504653 43.8204 0.324013ZM45.3394 4.60558L43.9074 12.7268L51.7182 10.1376L45.3394 4.60558Z" fill="#2175AA"/>
<path d="M34.4011 38.3889V61.6616H30.8784V41.9116H30.742L25.1738 45.548V42.1844L30.9806 38.3889H34.4011Z" fill="#7FC359"/>
<path d="M40.2079 57.1162V54.2753L50.2647 38.3889H52.5034V42.5707H51.0829L43.8897 53.9571V54.1389H57.6738V57.1162H40.2079ZM51.242 61.6616V56.2526L51.2647 54.9571V38.3889H54.5943V61.6616H51.242Z" fill="#7FC359"/>
</svg>
