<svg width="38" height="38" viewBox="0 0 38 38" fill="none" xmlns="http://www.w3.org/2000/svg">
<path d="M6 25L7.5 23.5M13 32L14.5 30.5M7.5 26.5V26.5C8.48484 28.1414 9.85859 29.5152 11.5 30.5V30.5M7.5 23.5L8.43934 22.5607C9.02513 21.9749 9.02513 21.0251 8.43934 20.4393L5.56066 17.5607C4.97487 16.9749 4.02513 16.9749 3.43934 17.5607L1.50028 19.4997C1.17996 19.82 1 20.2545 1 20.7075V21.6207C1 23.4982 1.55572 25.3336 2.59714 26.8957V26.8957C4.83274 30.2491 7.84383 33.0141 11.3752 34.9564L14.2256 36.5241C15.3568 37.1462 16.6964 37.2679 17.9212 36.8596L18.4364 36.6879C18.807 36.5643 19.1438 36.3562 19.4201 36.0799L20.5 35L20.8179 34.5232C21.2145 33.9282 21.1361 33.1361 20.6305 32.6305L17.5607 29.5607C16.9749 28.9749 16.0251 28.9749 15.4393 29.5607L14.5 30.5M7.5 23.5L4 20M14.5 30.5L18 34" stroke="#12A1D9" stroke-width="1.5" stroke-linecap="round"/>
<path fill-rule="evenodd" clip-rule="evenodd" d="M19.0003 1.75C10.7918 1.75 3.92081 7.48412 2.17771 15.166C2.10597 15.4821 2.04291 15.8016 1.9888 16.1241C1.92027 16.5326 1.53355 16.8082 1.12505 16.7397C0.716545 16.6711 0.440944 16.2844 0.509479 15.8759C0.568309 15.5252 0.636875 15.1779 0.714892 14.834C2.60962 6.48397 10.076 0.25 19.0003 0.25C29.3556 0.25 37.7503 8.64466 37.7503 19C37.7503 28.2914 30.9928 36.0029 22.1244 37.4908C21.7159 37.5593 21.3291 37.2837 21.2606 36.8752C21.1921 36.4667 21.4677 36.08 21.8762 36.0115C30.034 34.6428 36.2503 27.5466 36.2503 19C36.2503 9.47309 28.5272 1.75 19.0003 1.75Z" fill="#12A1D9"/>
<path d="M11.5896 22H16.7742V20.7429H13.7203V20.6932L14.7821 19.6527C16.2771 18.2891 16.6784 17.6072 16.6784 16.7798C16.6784 15.5192 15.6485 14.6278 14.0896 14.6278C12.5626 14.6278 11.515 15.5405 11.5186 16.968H12.9781C12.9745 16.272 13.4149 15.8459 14.0789 15.8459C14.7181 15.8459 15.194 16.2436 15.194 16.8828C15.194 17.4616 14.8389 17.8594 14.1784 18.495L11.5896 20.892V22Z" fill="#12A1D9"/>
<path d="M17.1221 20.7216H20.6128V22H22.083V20.7216H22.985V19.4893H22.083V14.7273H20.1583L17.1221 19.5106V20.7216ZM20.6413 19.4893H18.6704V19.4325L20.5844 16.4034H20.6413V19.4893Z" fill="#12A1D9"/>
<path d="M26.6913 14.3864H25.3881L23.0443 23.0937H24.3476L26.6913 14.3864Z" fill="#12A1D9"/>
<path d="M27.1936 22H28.781L31.7995 16.0021V14.7273H26.6965V15.9844H30.2085V16.0341L27.1936 22Z" fill="#12A1D9"/>
</svg>
