<svg width="80" height="81" viewBox="0 0 80 81" fill="none" xmlns="http://www.w3.org/2000/svg">
<path d="M55.299 55.5795C55.561 55.6778 55.9868 55.8088 56.4782 55.7761C57.2643 55.7433 57.9849 55.4158 58.509 54.8917C59.0986 54.3021 59.3934 53.5159 59.3934 52.697C59.3279 47.7509 62.4725 43.4272 67.1565 41.9532C67.4841 41.8549 67.8117 41.6911 68.1065 41.4618C68.7616 40.9705 69.1874 40.2499 69.2857 39.4965C69.4167 38.6776 69.2201 37.8587 68.7288 37.1708C65.7808 33.2074 65.748 27.8682 68.6961 23.9048L69.0564 23.4462L69.2201 22.9549C69.4822 22.1687 69.3839 21.3171 69.0236 20.662C68.6633 19.9086 68.0082 19.3517 67.222 19.1224C62.538 17.6157 59.3934 13.3247 59.4589 8.41132C59.4589 8.01826 59.3934 7.6907 59.2952 7.36314C59.0331 6.60976 58.4763 5.9874 57.7229 5.59433C57.0023 5.26678 56.1834 5.20127 55.43 5.46331C54.2835 5.85638 53.0716 6.05291 51.8596 6.05291C48.2565 6.05291 44.8499 4.31686 42.7863 1.36885C42.557 1.07405 42.295 0.812002 42.0657 0.648223C40.6899 -0.334448 38.7901 -0.00689082 37.8074 1.36885C35.7111 4.31686 32.3372 6.05291 28.7341 6.05291C27.4894 6.05291 26.3102 5.85638 25.1965 5.46331C24.1483 5.103 22.8053 5.36504 22.0192 6.18394C21.4296 6.77354 21.1348 7.55968 21.1348 8.34581C21.2003 13.2919 18.0557 17.6157 13.3717 19.0569C13.0114 19.1552 12.7166 19.319 12.389 19.5483C11.046 20.5637 10.784 22.4635 11.7666 23.8393C14.7147 27.8027 14.7147 33.1419 11.7666 37.1381C11.5701 37.4001 11.4063 37.7277 11.3081 38.0225C11.0788 38.8086 11.1443 39.5948 11.5046 40.3809C11.8977 41.1015 12.5528 41.6256 13.2734 41.8549C17.9902 43.3617 21.102 47.6854 21.0365 52.5333C21.0038 52.9263 21.0693 53.2866 21.2003 53.647C21.4623 54.4003 22.0192 55.0227 22.7726 55.4158C23.5259 55.7433 24.3121 55.8088 25.0655 55.5468C26.2447 55.1537 27.4894 54.9572 28.7013 54.9572C32.3372 54.9572 35.6128 56.6605 37.7419 59.6412C37.9385 59.9033 38.2005 60.1653 38.4625 60.3619C38.9866 60.7222 39.609 60.9187 40.2314 60.9187C40.3951 60.9187 40.5917 60.9187 40.7554 60.886C41.5743 60.7549 42.2622 60.2964 42.7208 59.6412C45.5705 55.6778 50.6149 54.0073 55.299 55.5795ZM40.1986 57.6759C37.5126 53.9745 33.2216 51.7799 28.6686 51.7799C27.1618 51.7799 25.6223 52.0092 24.2138 52.5005C24.2138 46.2769 20.2504 40.8067 14.3871 38.9396C18.0557 33.8953 18.0557 27.1803 14.4199 22.136C20.3159 20.2034 24.2466 14.7987 24.2793 8.5751C25.6878 9.03368 27.1618 9.26297 28.6686 9.26297C33.2216 9.26297 37.5454 7.06834 40.2314 3.3997C42.9173 7.06834 47.2411 9.26297 51.8269 9.26297C53.3664 9.26297 54.8732 9.03368 56.2161 8.54235C56.2161 14.7004 60.1141 20.1051 66.0101 22.1032C62.3742 27.1476 62.3742 33.8298 66.0101 38.9069C60.1141 40.8395 56.2161 46.2442 56.1834 52.4677C50.2546 50.5679 43.9 52.6315 40.1986 57.6759Z" fill="#2175AA"/>
<path d="M53.4645 28.3266C48.4529 26.2302 44.5222 22.3323 42.3931 17.3207C42.0328 16.4363 41.1484 15.8467 40.1985 15.8467C39.2486 15.8467 38.3642 16.4363 38.0038 17.2879C35.8747 22.2668 31.9768 26.1647 26.9979 28.2938C26.1135 28.6542 25.5239 29.5058 25.5239 30.4557C25.5239 31.4056 26.0808 32.2573 26.9652 32.6504C31.7803 34.7467 35.7765 38.8084 37.9711 43.7873C38.3642 44.6717 39.2158 45.2285 40.133 45.2285C41.0829 45.2285 41.9345 44.6717 42.2948 43.7873C44.3912 38.9395 48.4529 34.9105 53.4645 32.6831C54.3162 32.29 54.873 31.4384 54.873 30.4885C54.9058 29.5386 54.3489 28.6869 53.4645 28.3266ZM40.1657 40.9376C37.8073 36.4828 34.1714 32.8141 29.8477 30.4885C34.3025 28.1956 37.9056 24.6252 40.1985 20.1704C42.4914 24.658 46.1273 28.2611 50.6148 30.5212C46.1273 32.9124 42.4586 36.581 40.1657 40.9376Z" fill="#7FC359"/>
<path d="M30.6011 60.0017C29.8477 59.5104 28.8651 59.7397 28.3737 60.4603L19.7917 73.5954L15.5007 64.7841L6.55842 64.7513L15.5335 50.9939C16.0248 50.2405 15.7955 49.2579 15.0749 48.7665C14.3215 48.2752 13.3389 48.5045 12.8475 49.2251L0.629639 67.9614L13.5026 67.9941L19.3987 80.081L31.0597 62.2291C31.551 61.4758 31.3545 60.4603 30.6011 60.0017Z" fill="#2175AA"/>
<path d="M67.5823 49.2249C67.0909 48.4715 66.1083 48.275 65.3549 48.7663C64.6015 49.2577 64.405 50.2403 64.8963 50.9937L73.9041 64.7511L64.9291 64.7839L60.6381 73.5952L52.0561 60.4601C51.5647 59.7067 50.5821 59.5102 49.8287 60.0015C49.0753 60.4929 48.8788 61.4756 49.3701 62.2289L61.0639 80.0808L66.9599 67.9939L79.8329 67.9612L67.5823 49.2249Z" fill="#2175AA"/>
</svg>
