<svg width="50" height="50" viewBox="0 0 50 50" fill="none" xmlns="http://www.w3.org/2000/svg">
<path d="M50 25C50 38.8071 38.8071 50 25 50C11.1929 50 0 38.8071 0 25C0 11.1929 11.1929 0 25 0C38.8071 0 50 11.1929 50 25Z" fill="#204C59"/>
<path d="M39.8052 18.7299H10.1942C9.93528 18.7299 9.68339 18.6458 9.47646 18.4903C9.26953 18.3347 9.11877 18.116 9.04691 17.8673C8.97506 17.6186 8.98599 17.3533 9.07806 17.1113C9.17013 16.8693 9.33835 16.6638 9.55738 16.5258L24.3629 7.18399C24.5536 7.06379 24.7743 7 24.9997 7C25.2251 7 25.4459 7.06379 25.6365 7.18399L40.442 16.5258C40.6611 16.6638 40.8293 16.8693 40.9213 17.1113C41.0134 17.3533 41.0243 17.6186 40.9525 17.8673C40.8806 18.116 40.7299 18.3347 40.5229 18.4903C40.316 18.6458 40.0641 18.7299 39.8052 18.7299ZM14.323 16.3419H35.6756L24.9997 9.6062L14.323 16.3419Z" fill="white"/>
<path d="M18.0019 34.1153H13.4647C13.1481 34.1153 12.8444 33.9895 12.6205 33.7656C12.3965 33.5417 12.2708 33.238 12.2708 32.9213V17.5363C12.2708 17.2196 12.3965 16.9159 12.6205 16.692C12.8444 16.4681 13.1481 16.3423 13.4647 16.3423H18.0019C18.3186 16.3423 18.6223 16.4681 18.8462 16.692C19.0701 16.9159 19.1959 17.2196 19.1959 17.5363V32.9213C19.1959 33.238 19.0701 33.5417 18.8462 33.7656C18.6223 33.9895 18.3186 34.1153 18.0019 34.1153ZM14.6587 31.7273H16.8079V18.7303H14.6587V31.7273Z" fill="white"/>
<path d="M27.2696 34.1153H22.7324C22.4158 34.1153 22.1121 33.9895 21.8882 33.7656C21.6642 33.5417 21.5385 33.238 21.5385 32.9213V17.5363C21.5385 17.2196 21.6642 16.9159 21.8882 16.692C22.1121 16.4681 22.4158 16.3423 22.7324 16.3423H27.2696C27.5863 16.3423 27.89 16.4681 28.1139 16.692C28.3378 16.9159 28.4636 17.2196 28.4636 17.5363V32.9213C28.4636 33.238 28.3378 33.5417 28.1139 33.7656C27.89 33.9895 27.5863 34.1153 27.2696 34.1153ZM23.9264 31.7273H26.0756V18.7303H23.9264V31.7273Z" fill="white"/>
<path d="M36.5366 34.1153H31.9994C31.6827 34.1153 31.3791 33.9895 31.1551 33.7656C30.9312 33.5417 30.8054 33.238 30.8054 32.9213V17.5363C30.8054 17.2196 30.9312 16.9159 31.1551 16.692C31.3791 16.4681 31.6827 16.3423 31.9994 16.3423H36.5366C36.8533 16.3423 37.157 16.4681 37.3809 16.692C37.6048 16.9159 37.7306 17.2196 37.7306 17.5363V32.9213C37.7306 33.238 37.6048 33.5417 37.3809 33.7656C37.157 33.9895 36.8533 34.1153 36.5366 34.1153ZM33.1934 31.7273H35.3426V18.7303H33.1934V31.7273Z" fill="white"/>
<path d="M39.8058 38.9995H10.1947C9.87806 38.9995 9.57436 38.8737 9.35045 38.6498C9.12653 38.4259 9.00073 38.1222 9.00073 37.8055V32.9213C9.00073 32.6046 9.12653 32.3009 9.35045 32.077C9.57436 31.8531 9.87806 31.7273 10.1947 31.7273H39.8058C40.1224 31.7273 40.4261 31.8531 40.6501 32.077C40.874 32.3009 40.9998 32.6046 40.9998 32.9213V37.8055C40.9998 38.1222 40.874 38.4259 40.6501 38.6498C40.4261 38.8737 40.1224 38.9995 39.8058 38.9995ZM11.3887 36.6115H38.6118V34.1153H11.3887V36.6115Z" fill="white"/>
</svg>
