<svg width="92" height="84" viewBox="0 0 92 84" fill="none" xmlns="http://www.w3.org/2000/svg">
<path d="M74.4599 62.9524H17.3246C8.1094 62.9524 1.00083 54.8343 2.21988 45.699L7.53417 14.6667C8.7875 7.34857 15.1304 2 22.5513 2H69.2294C76.6542 2 82.997 7.34857 84.2504 14.6667L89.5646 45.699C90.7837 54.8343 83.6789 62.9524 74.4599 62.9524Z" stroke="#204C59" stroke-width="3" stroke-miterlimit="10" stroke-linecap="round" stroke-linejoin="round"/>
<path d="M89.7023 48.131V67.1786C89.7023 75.5938 82.8794 82.4167 74.4642 82.4167H17.3213C8.90611 82.4167 2.08325 75.5938 2.08325 67.1786V48.131" stroke="#204C59" stroke-width="3" stroke-miterlimit="10" stroke-linecap="round" stroke-linejoin="round"/>
<path d="M32.5592 21.4642V44.3214" stroke="#7FC359" stroke-width="3" stroke-miterlimit="10" stroke-linecap="round" stroke-linejoin="round"/>
<path d="M24.9404 21.4642H40.1785" stroke="#7FC359" stroke-width="3" stroke-miterlimit="10" stroke-linecap="round" stroke-linejoin="round"/>
<path d="M47.7975 21.4642L57.3213 44.3214L66.8451 21.4642" stroke="#7FC359" stroke-width="3" stroke-miterlimit="10" stroke-linecap="round" stroke-linejoin="round"/>
</svg>
