<svg width="81" height="81" viewBox="0 0 81 81" fill="none" xmlns="http://www.w3.org/2000/svg">
<path d="M49.1541 21.3903C46.4113 24.1332 46.4418 28.5522 49.1541 31.295C51.8969 34.0379 56.316 34.0379 59.0588 31.295C61.8016 28.5522 61.8016 24.1332 59.0588 21.3903C56.316 18.678 51.8665 18.678 49.1541 21.3903ZM56.956 29.1922C55.3712 30.7769 52.8112 30.7769 51.257 29.1922C49.6722 27.6074 49.6722 25.0475 51.257 23.4932C52.8417 21.9084 55.4017 21.9084 56.956 23.4932C58.5102 25.0779 58.5102 27.6379 56.956 29.1922Z" fill="#7FC359"/>
<path d="M77.6493 2.80007C77.0703 2.2515 76.3388 1.94674 75.5465 2.00769L74.7541 2.06864C74.5712 2.09912 70.2741 2.73911 68.6284 3.10482C67.0437 3.44006 65.4589 3.83625 63.9047 4.32386C62.7161 4.68957 60.7352 5.42099 59.6685 5.81718C59.1809 6.00004 58.7238 6.18289 58.2361 6.39622L55.4324 7.64574L55.0057 7.85907C42.0229 14.2895 32.0268 25.6265 26.785 39.7369L25.0479 44.4607L30.503 49.9463L35.9887 55.371L40.7125 53.6339C54.8533 48.4225 66.1599 38.396 72.5903 25.4132L74.0227 22.2132C74.236 21.7561 74.4189 21.2685 74.6017 20.7809C74.9979 19.7142 75.7293 17.7637 76.095 16.5447C76.5522 14.9904 76.9788 13.4057 77.3141 11.8209C77.6493 10.2667 78.2893 6.12194 78.3198 5.84766L78.4112 4.9029C78.5026 4.14101 78.1979 3.34863 77.6493 2.80007ZM75.3941 5.51242C75.3941 5.5429 74.7541 9.74858 74.4189 11.2114C74.0836 12.7352 73.7179 14.2285 73.2608 15.6914C72.9255 16.819 72.2246 18.7085 71.8284 19.7447C71.676 20.1713 71.4932 20.598 71.3103 20.9942L70.1217 23.6761L69.9084 24.1027C63.8132 36.3845 53.0857 45.893 39.6458 50.8606L36.6897 51.9577L32.5449 47.8435L28.4307 43.6988L29.5278 40.7426C34.4954 27.3332 43.9734 16.5752 56.2552 10.48L59.3637 9.07811C59.7599 8.89525 60.1866 8.7124 60.6133 8.56002C61.6494 8.16383 63.539 7.49336 64.6666 7.12765C66.1294 6.70098 67.6532 6.3048 69.1465 5.96956C70.6094 5.6648 74.5103 5.05528 75.0588 4.96386L75.3636 4.93338L75.3941 5.51242Z" fill="#7FC359"/>
<path d="M18.861 49.4283C12.522 50.0988 8.68205 56.2854 7.34111 61.3749L11.3639 65.5805C11.7296 65.2453 12.0954 64.9101 12.4306 64.6358C13.9171 63.4196 15.3753 63.1482 15.7106 63.2396C15.9544 63.3005 16.1372 63.5139 16.2896 63.8491C16.6858 64.7634 14.503 67.1043 13.8325 67.9577C13.8275 70.0809 19.349 73.2505 19.349 73.2505C20.1886 72.9683 21.0134 72.6425 21.8172 72.2852C24.0419 71.2795 26.1752 69.9081 27.8209 68.0796C29.3752 66.3424 30.3809 64.3615 30.7771 62.1977C31.3866 58.8149 30.3504 55.4016 27.9428 52.8111C25.5352 50.3426 22.2438 49.0626 18.861 49.4283ZM27.8514 61.7406C27.5467 63.3558 26.8152 64.8491 25.6267 66.1596C24.1533 67.7742 12.7901 74.6039 16.2096 69.8167C17.4896 68.11 19.8248 64.611 19.002 62.752C18.7582 62.2034 18.4534 61.7463 18.0877 61.3806C17.6306 60.9234 17.082 60.6187 16.4725 60.4358C15.2534 60.1006 11.882 61.4053 10.663 62.2891C10.4192 62.4415 10.2058 62.6244 9.99252 62.8072C10.0535 62.5634 10.1144 62.3501 10.1754 62.1063C11.2725 57.9311 14.2896 52.8721 19.1353 52.354C21.5734 52.1102 23.981 53.0549 25.7181 54.8835C27.5162 56.8035 28.2781 59.3025 27.8514 61.7406Z" fill="#7FC359"/>
<path fill-rule="evenodd" clip-rule="evenodd" d="M40.5 3.5C20.0655 3.5 3.5 20.0655 3.5 40.5C3.5 60.9345 20.0655 77.5 40.5 77.5C60.9345 77.5 77.5 60.9345 77.5 40.5C77.5 33.1775 75.3744 26.3561 71.7072 20.6136L74.2356 18.9989C78.2016 25.2092 80.5 32.5885 80.5 40.5C80.5 62.5914 62.5914 80.5 40.5 80.5C18.4086 80.5 0.5 62.5914 0.5 40.5C0.5 18.4086 18.4086 0.5 40.5 0.5C47.9907 0.5 55.0047 2.56043 61.0011 6.14631L59.4614 8.72106C53.9174 5.40571 47.4335 3.5 40.5 3.5Z" fill="#2175AA"/>
</svg>
