<svg width="84" height="80" viewBox="0 0 84 80" fill="none" xmlns="http://www.w3.org/2000/svg">
<path d="M83.6098 30.5773C83.4749 30.3413 70.5293 6.54024 43.5929 6.57396V1.68563C43.5929 0.741677 42.8512 0 41.9073 0C40.9633 0 40.2217 0.741677 40.2217 1.68563V6.57396C13.2516 6.54024 0.339655 30.3413 0.204804 30.5773C-0.0986093 31.1167 -0.0648968 31.791 0.305942 32.3304C0.67678 32.8361 1.24989 33.1395 1.89043 33.0383C1.99157 33.0383 10.858 32.0607 21.3763 38.7695C21.8146 39.0392 22.354 39.1066 22.8597 38.9381C22.9271 38.9043 30.1416 36.3759 40.188 36.0388V70.6953C40.188 73.19 41.1656 75.5162 42.9187 77.2693C44.6717 79.0223 47.0316 80 49.4926 80C54.6169 80 58.7973 75.8196 58.7973 70.6953C58.7973 69.7514 58.0556 69.0097 57.1117 69.0097C56.1677 69.0097 55.426 69.7514 55.426 70.6953C55.426 73.9654 52.7627 76.6287 49.4926 76.6287C47.9081 76.6287 46.4248 76.0219 45.2785 74.8757C44.166 73.7632 43.5255 72.2798 43.5255 70.6616V36.0388C53.5381 36.3759 60.7863 38.9043 60.8538 38.9381C61.0223 39.0055 61.2246 39.0392 61.4269 39.0392C61.7303 39.0392 62.0674 38.9381 62.3371 38.7695C72.8892 32.0607 81.7556 33.0383 81.823 33.0383C82.4635 33.1058 83.0704 32.8361 83.4075 32.3304C83.8795 31.8247 83.9132 31.1504 83.6098 30.5773ZM61.292 35.4994C58.9322 34.7577 51.5491 32.7012 41.8736 32.6338C32.2655 32.7012 24.9161 34.7577 22.5563 35.4994C15.1058 30.9482 8.53182 29.8356 4.756 29.6334C8.86894 23.6662 21.0392 9.13612 41.8399 9.97893C41.8736 9.97893 41.8736 9.97893 41.9073 9.97893H41.941C62.7417 9.13612 74.8782 23.6662 78.9911 29.6334C75.2828 29.8356 68.7088 30.9482 61.292 35.4994Z" fill="#2175AA"/>
<path d="M18.9153 20.3624C18.0725 19.9242 17.0611 20.2613 16.6228 21.1041L13.8247 26.5318C13.3864 27.3746 13.7236 28.386 14.5664 28.8243C14.8024 28.9591 15.0721 29.0266 15.3418 29.0266C15.9486 29.0266 16.5554 28.6894 16.8588 28.1163L19.657 22.6886C20.0615 21.8121 19.7244 20.767 18.9153 20.3624Z" fill="#7FC359"/>
<path d="M36.0074 13.1816C35.1646 12.7434 34.1532 13.0805 33.7149 13.9233L25.961 28.9591C25.5228 29.8019 25.8599 30.8133 26.7027 31.2516C26.9387 31.3864 27.2084 31.4539 27.4781 31.4539C28.0849 31.4539 28.6918 31.1167 28.9952 30.5436L36.7491 15.5078C37.1873 14.6313 36.8502 13.6199 36.0074 13.1816Z" fill="#7FC359"/>
<path d="M49.4254 13.1816C48.5826 12.7434 47.5712 13.0805 47.1329 13.9233L40.1544 27.4758C39.7161 28.3186 40.0533 29.33 40.8961 29.7682C41.1321 29.9031 41.4018 29.9705 41.6715 29.9705C42.2783 29.9705 42.8851 29.6334 43.1885 29.0603L50.167 15.5078C50.5716 14.6313 50.2345 13.6199 49.4254 13.1816Z" fill="#7FC359"/>
<path d="M60.9548 16.8226C60.112 16.3844 59.1006 16.7215 58.6624 17.5643L52.965 28.622C52.5267 29.4648 52.8638 30.4762 53.7066 30.9145C53.9426 31.0493 54.2123 31.1168 54.482 31.1168C55.0888 31.1168 55.6957 30.7796 55.9991 30.2065L61.6628 19.1151C62.1011 18.2723 61.7639 17.2609 60.9548 16.8226Z" fill="#7FC359"/>
<path d="M70.6979 23.9696C69.8551 23.5314 68.8437 23.8685 68.4055 24.6776L67.5627 26.2958C67.1244 27.1386 67.4615 28.15 68.2706 28.5883C68.5066 28.7231 68.7763 28.7905 69.046 28.7905C69.6528 28.7905 70.2597 28.4534 70.5294 27.8803L71.3722 26.2621C71.8442 25.4193 71.507 24.4079 70.6979 23.9696Z" fill="#7FC359"/>
</svg>
