<svg width="78" height="80" viewBox="0 0 78 80" fill="none" xmlns="http://www.w3.org/2000/svg">
<path d="M49.8526 41.7541L49.5201 42.7185L56.9032 50.1017C57.5351 50.7335 58.5993 50.7335 59.2312 50.1017C59.8631 49.4698 59.8631 48.4055 59.2312 47.7736L53.2781 41.8206C53.4112 41.355 53.5109 40.8561 53.6107 40.3573C54.6749 34.7368 52.9123 28.9167 49.0212 24.8926C48.9214 24.7928 48.8217 24.6598 48.7219 24.56L48.5889 24.427C44.4982 20.4361 38.7114 18.6402 33.1242 19.6379C32.7251 19.7045 32.326 19.8042 31.9269 19.904L29.0668 20.5691L39.5761 31.0785C40.0085 31.5108 40.208 32.0429 40.208 32.6416C40.208 33.2402 39.9752 33.7723 39.5761 34.2047L33.2905 40.457C32.8914 40.8894 32.326 41.0889 31.7274 41.0889C31.1288 41.0889 30.5966 40.8561 30.1643 40.457L19.6882 29.9477L18.9898 32.7746C18.8901 33.2069 18.7903 33.6393 18.7238 34.1049C17.7593 39.7586 19.6217 45.5454 23.6791 49.6028C23.8121 49.7358 23.9784 49.9021 24.0782 50.0019C28.1356 53.7932 33.8226 55.4893 39.2768 54.5249C39.8089 54.4251 40.3743 54.3253 40.9064 54.1591L46.8595 60.1121C47.192 60.4447 47.5911 60.611 48.0235 60.611C48.4558 60.611 48.8549 60.4447 49.1875 60.1121C49.8194 59.4802 49.8194 58.416 49.1875 57.7841L41.8044 50.401L40.8399 50.7335C40.1415 50.9663 39.4431 51.1659 38.7114 51.2657C34.1884 52.0638 29.6654 50.7335 26.2732 47.5408C26.1734 47.4743 26.0736 47.3746 25.9739 47.2748C23.1803 44.4812 21.6837 40.6233 21.7834 36.699L27.8363 42.7518C28.8673 43.7828 30.2641 44.3814 31.7274 44.3814C33.1907 44.3814 34.5875 43.816 35.6185 42.785L41.8709 36.5327C42.9019 35.5017 43.5005 34.1049 43.5005 32.6416C43.5005 31.1782 42.9351 29.7814 41.8709 28.7505L35.7848 22.6644C39.7092 22.5646 43.5337 24.0612 46.3606 26.8548L46.4604 26.9546C46.4936 26.9878 46.5269 27.0211 46.5602 27.0543C49.7861 30.4133 51.2162 35.1359 50.3515 39.6921C50.2185 40.457 50.0522 41.1222 49.8526 41.7541Z" fill="#7FC359"/>
<path d="M3.29248 40.457C3.29248 20.5359 19.4888 4.33957 39.4099 4.33957C44.3653 4.33957 49.1543 5.30404 53.6441 7.23296L48.855 12.0553C48.4227 12.4876 48.2896 13.0863 48.4227 13.6516C48.589 14.217 49.0213 14.6826 49.5867 14.8156L65.3839 19.0393C65.5169 19.0726 65.6832 19.1058 65.8163 19.1058C66.2486 19.1058 66.6809 18.9395 66.9803 18.607C67.4126 18.1746 67.5456 17.576 67.4126 17.0106L63.1889 1.21338C63.0226 0.64801 62.5903 0.182407 62.0249 0.0493782C61.4595 -0.0836511 60.8609 0.0493781 60.4286 0.481723L56.1384 4.73866C50.8837 2.27762 45.2632 1.01384 39.4099 1.01384C17.6929 1.0471 0 18.7067 0 40.457C0 45.4789 0.897948 50.3012 2.7271 54.8575C2.99316 55.5226 3.59179 55.8884 4.25694 55.8884C4.45648 55.8884 4.65603 55.8552 4.85557 55.7887C5.72026 55.4561 6.11935 54.4916 5.78678 53.6602C4.12391 49.4698 3.29248 45.0465 3.29248 40.457ZM60.7279 4.83843L63.4882 15.1149L53.2117 12.3546L60.7279 4.83843Z" fill="#2175AA"/>
<path d="M75.4608 26.3559C75.1282 25.4912 74.197 25.0589 73.3323 25.3914C72.4676 25.724 72.0353 26.6552 72.3679 27.5199C73.9309 31.7103 74.6626 36.1668 74.5628 40.7563C74.3633 50.4009 70.4057 59.3804 63.4549 66.0651C56.5041 72.7499 47.3916 76.3084 37.7137 76.1089C32.7584 76.0091 28.0026 74.9449 23.5461 72.9162L28.4682 68.1936C28.9005 67.7945 29.0668 67.1959 28.9338 66.5973C28.8008 66.0319 28.3684 65.5663 27.803 65.4L12.1056 60.8437C11.5402 60.6775 10.9416 60.8437 10.5092 61.2428C10.0769 61.6419 9.91059 62.2406 10.0436 62.8392L13.9347 78.7362C14.0678 79.3016 14.5001 79.7672 15.0655 79.9335C15.2318 79.9667 15.3648 80 15.5311 80C15.9634 80 16.3625 79.8337 16.6618 79.5344L21.0185 75.3439C26.2067 77.9048 31.7939 79.2683 37.6805 79.4013C37.9465 79.4013 38.2458 79.4013 38.5119 79.4013C48.7219 79.4013 58.3998 75.5102 65.7829 68.4264C73.3656 61.1431 77.689 51.3321 77.8886 40.7896C77.9883 35.801 77.1902 30.9454 75.4608 26.3559ZM16.429 75.1777L13.9015 64.8346L24.1115 67.7945L16.429 75.1777Z" fill="#2175AA"/>
</svg>
