<svg width="84" height="91" viewBox="0 0 84 91" fill="none" xmlns="http://www.w3.org/2000/svg">
<path fill-rule="evenodd" clip-rule="evenodd" d="M58.0817 10.7313C58.55 10.9283 59.0138 11.1337 59.4731 11.3472L58.2086 14.0676C57.7827 13.8697 57.3525 13.6792 56.9183 13.4966L58.0817 10.7313ZM62.1831 12.7303C63.0707 13.2252 63.9382 13.7517 64.784 14.3083L63.1349 16.8144C62.3501 16.298 61.5454 15.8095 60.7221 15.3504L62.1831 12.7303ZM67.2622 16.0722C68.067 16.6905 68.8484 17.3376 69.6049 18.012L67.6086 20.2514C66.9065 19.6255 66.1813 19.0249 65.4345 18.4511L67.2622 16.0722ZM71.8 20.1173C72.5056 20.8451 73.1848 21.5988 73.836 22.3767L71.5356 24.3024C70.9313 23.5804 70.3009 22.881 69.646 22.2054L71.8 20.1173ZM75.702 24.7787C76.2938 25.6006 76.8562 26.4451 77.3878 27.3107L74.8314 28.8807C74.3382 28.0777 73.8164 27.2942 73.2673 26.5314L75.702 24.7787ZM78.8837 29.9597C79.3485 30.8584 79.7815 31.7762 80.1811 32.7118L77.4222 33.8902C77.0517 33.0227 76.6502 32.1715 76.2191 31.338L78.8837 29.9597ZM81.2723 35.5522C81.5995 36.5081 81.8928 37.4797 82.1508 38.4655L79.2485 39.225C79.0093 38.3109 78.7374 37.4101 78.434 36.5239L81.2723 35.5522ZM82.812 41.4356C82.9946 42.4273 83.142 43.4311 83.2528 44.4458L80.2706 44.7715C80.1678 43.83 80.031 42.8987 79.8616 41.9791L82.812 41.4356ZM83.4726 47.4795C83.4908 47.9842 83.5 48.491 83.5 49C83.5 49.546 83.4894 50.0896 83.4685 50.6307L80.4708 50.5148C80.4902 50.0123 80.5 49.5073 80.5 49C80.5 48.5271 80.4915 48.0562 80.4746 47.5876L83.4726 47.4795ZM83.2161 53.8789C83.0888 54.9651 82.9196 56.0385 82.7101 57.0976L79.7672 56.5154C79.9614 55.5333 80.1184 54.5376 80.2365 53.5299L83.2161 53.8789ZM81.9515 60.2685C81.6557 61.3191 81.3196 62.3528 80.945 63.3678L78.1306 62.3292C78.4779 61.3881 78.7895 60.4297 79.0637 59.4556L81.9515 60.2685ZM79.6962 66.3796C79.2393 67.3688 78.7448 68.337 78.2143 69.2822L75.5981 67.814C76.0902 66.9372 76.5489 66.0392 76.9726 65.1218L79.6962 66.3796ZM76.5091 72.0591C75.9038 72.9632 75.264 73.8421 74.5915 74.6939L72.2368 72.8351C72.8609 72.0445 73.4546 71.229 74.0162 70.3901L76.5091 72.0591ZM72.4744 77.1705C71.7367 77.9681 70.9681 78.7367 70.1705 79.4744L68.1336 77.2719C68.8739 76.5872 69.5873 75.8739 70.2719 75.1336L72.4744 77.1705ZM67.694 81.5915C66.8421 82.264 65.9632 82.9038 65.0591 83.5091L63.3901 81.0162C64.229 80.4546 65.0446 79.8609 65.8351 79.2368L67.694 81.5915ZM62.2823 85.2143C61.337 85.7447 60.3688 86.2393 59.3796 86.6962L58.1218 83.9725C59.0392 83.5489 59.9372 83.0902 60.814 82.5981L62.2823 85.2143ZM56.3679 87.945C55.3528 88.3196 54.3191 88.6557 53.2685 88.9514L52.4556 86.0637C53.4297 85.7895 54.3881 85.4779 55.3292 85.1306L56.3679 87.945ZM50.0976 89.7101C49.0385 89.9196 47.9651 90.0888 46.8789 90.2161L46.5298 87.2365C47.5376 87.1184 48.5332 86.9614 49.5154 86.7671L50.0976 89.7101ZM43.6307 90.4685C43.0896 90.4894 42.546 90.5 42 90.5V87.5C42.5073 87.5 43.0123 87.4902 43.5148 87.4708L43.6307 90.4685Z" fill="#2175AA"/>
<path fill-rule="evenodd" clip-rule="evenodd" d="M42 10.4999C20.737 10.4999 3.5 27.737 3.5 48.9999C3.5 70.2629 20.737 87.4999 42 87.4999V90.4999C19.0802 90.4999 0.5 71.9198 0.5 48.9999C0.5 26.0801 19.0802 7.49994 42 7.49994V10.4999Z" fill="#2175AA"/>
<path fill-rule="evenodd" clip-rule="evenodd" d="M43.4875 0.66227C43.9967 0.481629 44.5637 0.588761 44.9719 0.942733L55.3427 9.93681C55.7501 10.2901 55.9365 10.835 55.8308 11.3639C55.7252 11.8927 55.3438 12.3241 54.8319 12.4938L42.1329 16.7035C41.6316 16.8697 41.0798 16.76 40.6802 16.4147C40.2806 16.0694 40.092 15.5394 40.1837 15.0193L42.5119 1.81547C42.6057 1.28341 42.9784 0.84291 43.4875 0.66227ZM45.0065 4.94384L43.5745 13.0651L51.3853 10.4758L45.0065 4.94384Z" fill="#2175AA"/>
<path d="M34.0682 38.7272V62H30.5455V42.25H30.4091L24.8409 45.8863V42.5227L30.6478 38.7272H34.0682Z" fill="#7FC359"/>
<path d="M39.875 57.4545V54.6136L49.9319 38.7272H52.1705V42.9091H50.75L43.5569 54.2954V54.4772H57.3409V57.4545H39.875ZM50.9091 62V56.5909L50.9319 55.2954V38.7272H54.2614V62H50.9091Z" fill="#7FC359"/>
</svg>
