<svg width="70" height="80" viewBox="0 0 70 80" fill="none" xmlns="http://www.w3.org/2000/svg">
<path d="M66.6658 30.1639C65.0265 26.6885 62.8626 23.541 60.2068 20.7869C58.8298 19.3443 57.3216 18.0328 55.715 16.8525L58.6003 13.0164C59.1576 12.2951 58.9937 11.2459 58.2724 10.7213C57.5511 10.1639 56.5019 10.3279 55.9773 11.0492L52.9609 15.0492C51.0265 13.8689 48.9609 12.8852 46.8298 12.1311C45.0921 11.5082 43.256 11.0164 41.4199 10.6557C40.1085 10.4262 38.797 10.2623 37.4527 10.1639V3.27869H41.9445C42.8626 3.27869 43.5839 2.52459 43.5839 1.63934C43.5839 0.754098 42.8298 0 41.9445 0H29.6494C28.7314 0 28.0101 0.754098 28.0101 1.63934C28.0101 2.52459 28.7642 3.27869 29.6494 3.27869H34.1413V10.0656C29.3872 10.1639 24.6003 11.2787 20.2396 13.3115C16.7642 14.918 13.5839 17.082 10.8298 19.7377C6.96092 23.4426 3.94453 28.0656 2.10846 33.082C1.45273 34.8525 0.960922 36.7213 0.600266 38.5902C0.23961 40.459 0.0428885 42.3607 0.0101016 44.2623C-0.121046 49.6393 1.0265 55.082 3.35436 59.9672C4.96092 63.4098 7.12486 66.5246 9.78059 69.2787C13.4855 73.1475 18.1413 76.1639 23.1904 77.9672C24.9281 78.5902 26.7314 79.082 28.5675 79.4098C30.4035 79.7377 32.2724 79.9344 34.1085 80C34.4035 80 34.6986 80 34.9937 80C40.0757 80 45.1249 78.8852 49.7478 76.7213C53.1904 75.1148 56.338 72.9836 59.0921 70.3607C63.0265 66.6557 66.0429 62 67.879 56.918C68.5347 55.1475 69.0265 53.2787 69.3871 51.4098C69.7478 49.5082 69.9445 47.6066 69.9773 45.7049C70.0757 40.4262 68.9281 35.0164 66.6658 30.1639ZM66.1412 50.8525C65.8134 52.5574 65.3544 54.2295 64.797 55.8361C63.1249 60.4262 60.3708 64.6229 56.8298 68C54.338 70.3607 51.4855 72.2951 48.3708 73.7705C43.9773 75.8361 39.0593 76.8525 34.2068 76.7213C32.5347 76.6885 30.8298 76.4918 29.1576 76.1967C27.4855 75.8689 25.8462 75.4426 24.2724 74.8852C19.715 73.2459 15.5183 70.5246 12.1412 67.0164C9.74781 64.5246 7.81338 61.7049 6.33797 58.5902C4.23961 54.1639 3.19043 49.2459 3.32158 44.3607C3.35436 42.6557 3.55109 40.918 3.84617 39.2131C4.17404 37.5082 4.63305 35.8033 5.19043 34.1967C6.82977 29.6393 9.58387 25.4754 13.0921 22.1311C15.6167 19.7377 18.4691 17.7705 21.6167 16.2951C25.7806 14.3607 30.3708 13.3443 34.9281 13.3443C35.1904 13.3443 35.4527 13.3443 35.7478 13.3443C37.4199 13.377 39.1249 13.5738 40.797 13.8689C42.4691 14.1967 44.1085 14.623 45.6822 15.1803C50.2396 16.8197 54.4363 19.541 57.7806 23.0164C60.174 25.5082 62.1412 28.3934 63.6167 31.541C65.6822 35.9344 66.7314 40.8197 66.6003 45.6721C66.633 47.4098 66.4363 49.1475 66.1412 50.8525Z" fill="#2175AA"/>
<path d="M47.9117 31.1476L38.9281 39.2787C38.4363 38.9509 37.9117 38.6558 37.3543 38.4591C36.9936 38.3279 36.633 38.2296 36.2723 38.164C35.9117 38.0984 35.5182 38.0656 35.1576 38.0328C34.1084 38.0328 33.0264 38.2296 32.0428 38.6886C31.3543 39.0164 30.7314 39.4427 30.174 39.9673C29.3871 40.7214 28.7969 41.6394 28.4363 42.623C28.3051 42.9837 28.2068 43.3443 28.1412 43.705C28.0756 44.0656 28.0428 44.4591 28.01 44.8525C27.9773 45.9345 28.2068 47.0164 28.6658 48.0001C28.9936 48.6886 29.4199 49.3115 29.9445 49.8689C30.6986 50.6558 31.6166 51.246 32.633 51.6066C32.9936 51.7378 33.3543 51.8361 33.715 51.9017C34.0756 51.9673 34.4691 52.0001 34.8297 52.0328C34.8953 52.0328 34.9609 52.0328 34.9936 52.0328C36.01 52.0328 37.0264 51.8033 37.9445 51.3771C38.633 51.0492 39.2559 50.623 39.8133 50.0984C40.6002 49.3443 41.1904 48.4263 41.5838 47.4099C41.715 47.0492 41.8133 46.6886 41.8789 46.3279C41.9445 45.9673 41.9773 45.5738 42.01 45.1804C42.0428 44.0984 41.8133 43.0492 41.3543 42.0656C41.2887 41.9345 41.2232 41.8361 41.1576 41.7378L50.174 33.6066C50.8625 32.9837 50.8953 31.9673 50.3051 31.2787C49.6494 30.5902 48.6002 30.5574 47.9117 31.1476ZM38.6002 45.705C38.5674 45.9017 38.5018 46.0984 38.4363 46.2951C38.2395 46.8197 37.9117 47.3115 37.5182 47.705C37.2232 47.9673 36.8953 48.1968 36.5346 48.3607C36.01 48.5902 35.4527 48.7214 34.8953 48.6886C34.6986 48.6886 34.5018 48.6558 34.3051 48.623C34.1084 48.5902 33.9117 48.5246 33.7477 48.4591C33.2232 48.2624 32.7314 47.9673 32.3379 47.541C32.0756 47.246 31.8461 46.9181 31.6494 46.5574C31.4199 46.0328 31.2887 45.4755 31.2887 44.9181C31.2887 44.7214 31.3215 44.5246 31.3543 44.3279C31.3871 44.1312 31.4527 43.9345 31.5182 43.7378C31.715 43.2132 32.01 42.7214 32.4363 42.3279C32.7314 42.0656 33.0592 41.8361 33.4199 41.6394C33.9117 41.4099 34.4363 41.3115 34.9609 41.3115C34.9936 41.3115 35.0264 41.3115 35.0592 41.3115C35.2559 41.3115 35.4527 41.3443 35.6494 41.3771C35.8461 41.4099 36.0428 41.4755 36.2068 41.541C36.7313 41.7378 37.2232 42.0328 37.6166 42.4591C37.6494 42.4919 37.6494 42.4919 37.6822 42.5246C37.6822 42.5246 37.6822 42.5574 37.715 42.5574C37.715 42.5574 37.715 42.5574 37.7477 42.5574C37.9773 42.8197 38.174 43.1148 38.3379 43.4427C38.5674 43.9673 38.6986 44.5246 38.6986 45.082C38.6658 45.3115 38.633 45.5082 38.6002 45.705Z" fill="#7FC359"/>
</svg>
