<svg width="80" height="80" viewBox="0 0 80 80" fill="none" xmlns="http://www.w3.org/2000/svg">
<path d="M54.6693 55.4987C54.9314 55.597 55.3572 55.728 55.8485 55.6953C56.6347 55.6625 57.3553 55.3349 57.8794 54.8109C58.469 54.2213 58.7638 53.4351 58.7638 52.6162C58.6983 47.6701 61.8428 43.3464 66.5269 41.8724C66.8545 41.7741 67.182 41.6103 67.4768 41.381C68.1319 40.8897 68.5578 40.1691 68.656 39.4157C68.787 38.5968 68.5905 37.7779 68.0992 37.09C65.1512 33.1266 65.1184 27.7874 68.0664 23.824L68.4267 23.3654L68.5905 22.874C68.8526 22.0879 68.7543 21.2363 68.394 20.5811C68.0337 19.8278 67.3785 19.2709 66.5924 19.0416C61.9083 17.5349 58.7638 13.2439 58.8293 8.33051C58.8293 7.93745 58.7638 7.60989 58.6655 7.28233C58.4035 6.52895 57.8466 5.90659 57.0933 5.51352C56.3726 5.18597 55.5537 5.12045 54.8004 5.3825C53.6539 5.77557 52.442 5.9721 51.23 5.9721C47.6269 5.9721 44.2203 4.23605 42.1567 1.28804C41.9274 0.993237 41.6653 0.731191 41.436 0.567412C40.0603 -0.415259 38.1605 -0.0877014 37.1778 1.28804C35.0814 4.23605 31.7076 5.9721 28.1045 5.9721C26.8597 5.9721 25.6805 5.77557 24.5668 5.3825C23.5187 5.02219 22.1757 5.28423 21.3895 6.10313C20.7999 6.69273 20.5051 7.47887 20.5051 8.265C20.5707 13.2111 17.4261 17.5349 12.742 18.9761C12.3817 19.0744 12.0869 19.2382 11.7594 19.4675C10.4164 20.4829 10.1543 22.3827 11.137 23.7585C14.085 27.7219 14.085 33.0611 11.137 37.0573C10.9405 37.3193 10.7767 37.6469 10.6784 37.9417C10.4491 38.7278 10.5147 39.5139 10.875 40.3001C11.268 41.0207 11.9231 41.5448 12.6438 41.7741C17.3606 43.2808 20.4724 47.6046 20.4069 52.4524C20.3741 52.8455 20.4396 53.2058 20.5707 53.5661C20.8327 54.3195 21.3895 54.9419 22.1429 55.3349C22.8963 55.6625 23.6824 55.728 24.4358 55.466C25.615 55.0729 26.8597 54.8764 28.0717 54.8764C31.7076 54.8764 34.9832 56.5797 37.1123 59.5604C37.3088 59.8225 37.5709 60.0845 37.8329 60.2811C38.357 60.6414 38.9794 60.8379 39.6017 60.8379C39.7655 60.8379 39.962 60.8379 40.1258 60.8052C40.9447 60.6741 41.6326 60.2155 42.0912 59.5604C44.9409 55.597 49.9853 53.9265 54.6693 55.4987ZM39.569 57.5951C36.883 53.8937 32.592 51.6991 28.039 51.6991C26.5322 51.6991 24.9927 51.9284 23.5842 52.4197C23.5842 46.1961 19.6207 40.7259 13.7575 38.8588C17.4261 33.8144 17.4261 27.0995 13.7902 22.0552C19.6862 20.1226 23.6169 14.7179 23.6497 8.49429C25.0582 8.95287 26.5322 9.18216 28.039 9.18216C32.592 9.18216 36.9157 6.98753 39.6017 3.31889C42.2877 6.98753 46.6114 9.18216 51.1972 9.18216C52.7368 9.18216 54.2435 8.95287 55.5865 8.46154C55.5865 14.6196 59.4844 20.0243 65.3805 22.0224C61.7446 27.0668 61.7446 33.7489 65.3805 38.8261C59.4844 40.7587 55.5865 46.1634 55.5537 52.3869C49.625 50.4871 43.2704 52.5507 39.569 57.5951Z" fill="#2175AA"/>
<path d="M52.835 28.2459C47.8234 26.1495 43.8927 22.2516 41.7636 17.24C41.4033 16.3556 40.5189 15.766 39.569 15.766C38.6191 15.766 37.7346 16.3556 37.3743 17.2072C35.2452 22.1861 31.3473 26.084 26.3684 28.2132C25.484 28.5735 24.8944 29.4251 24.8944 30.375C24.8944 31.325 25.4513 32.1766 26.3357 32.5697C31.1507 34.666 35.1469 38.7277 37.3416 43.7066C37.7346 44.591 38.5863 45.1479 39.5035 45.1479C40.4534 45.1479 41.305 44.591 41.6653 43.7066C43.7617 38.8588 47.8234 34.8298 52.835 32.6024C53.6867 32.2094 54.2435 31.3577 54.2435 30.4078C54.2763 29.4579 53.7194 28.6062 52.835 28.2459ZM39.5362 40.8569C37.1778 36.4021 33.5419 32.7334 29.2182 30.4078C33.6729 28.1149 37.2761 24.5445 39.569 20.0897C41.8619 24.5773 45.4977 28.1804 49.9853 30.4405C45.4977 32.8317 41.8291 36.5004 39.5362 40.8569Z" fill="#7FC359"/>
<path d="M29.9715 59.9208C29.2181 59.4295 28.2354 59.6588 27.7441 60.3794L19.1621 73.5144L14.8711 64.7031L5.92878 64.6704L14.9038 50.913C15.3952 50.1596 15.1659 49.1769 14.4453 48.6856C13.6919 48.1943 12.7092 48.4236 12.2179 49.1442L0 67.8805L12.873 67.9132L18.769 80.0001L30.43 62.1482C30.9214 61.3948 30.7248 60.3794 29.9715 59.9208Z" fill="#2175AA"/>
<path d="M66.9525 49.1441C66.4612 48.3907 65.4785 48.1942 64.7251 48.6855C63.9717 49.1769 63.7752 50.1595 64.2665 50.9129L73.2744 64.6703L64.2993 64.7031L60.0083 73.5144L51.4263 60.3793C50.935 59.6259 49.9523 59.4294 49.1989 59.9207C48.4455 60.4121 48.249 61.3947 48.7403 62.1481L60.4341 80L66.3302 67.9131L79.2031 67.8804L66.9525 49.1441Z" fill="#2175AA"/>
</svg>
