<svg width="65" height="65" viewBox="0 0 65 65" fill="none" xmlns="http://www.w3.org/2000/svg">
<path d="M65 32.5C65 50.4493 50.4493 65 32.5 65C14.5507 65 0 50.4493 0 32.5C0 14.5507 14.5507 0 32.5 0C50.4493 0 65 14.5507 65 32.5Z" fill="currentColor"/>
<path data-class="card-icon" d="M24.2519 39.2596H16.968C14.7832 39.2596 13 37.4469 13 35.2267V22.0329C13 19.8131 14.7832 18 16.968 18H38.7797C40.9644 18 42.7481 19.8126 42.7481 22.0329V25.7404H50.0315C52.2163 25.7404 54 27.5531 54 29.7733V42.9671C54 45.1874 52.2163 47 50.0315 47H28.2198C26.0351 47 24.2519 45.1874 24.2519 42.9671V39.2596ZM31.1194 35.1519C33.2394 35.1519 34.9584 36.8983 34.9584 39.0528C34.9584 41.2072 33.2394 42.9536 31.1194 42.9536C28.9998 42.9536 27.2808 41.2072 27.2808 39.0528C27.2808 36.8983 28.9998 35.1519 31.1194 35.1519ZM31.1194 37.2366C30.1324 37.2366 29.3322 38.0498 29.3322 39.0528C29.3322 40.0562 30.1324 40.8694 31.1194 40.8694C32.1068 40.8694 32.907 40.0562 32.907 39.0528C32.907 38.0498 32.1068 37.2366 31.1194 37.2366ZM26.3028 30.9298H51.9486V29.7733C51.9486 28.7041 51.0837 27.8251 50.0315 27.8251H28.2198C27.1677 27.8251 26.3028 28.7041 26.3028 29.7733V30.9298ZM51.9486 33.0145H26.3028V42.9671C26.3028 44.0364 27.1677 44.9153 28.2198 44.9153H50.0315C51.0837 44.9153 51.9486 44.0364 51.9486 42.9671V33.0145ZM40.6967 25.7404V25.2741H15.0509V35.2267C15.0509 36.2959 15.9158 37.1749 16.968 37.1749H24.2519V29.7733C24.2519 27.5531 26.0351 25.7404 28.2198 25.7404H40.6967ZM19.8675 27.4115C21.9876 27.4115 23.706 29.1584 23.706 31.3128C23.706 33.4668 21.9876 35.2137 19.8675 35.2137C17.7479 35.2137 16.029 33.4668 16.029 31.3128C16.029 29.1584 17.7479 27.4115 19.8675 27.4115ZM19.8675 29.4962C18.8806 29.4962 18.0804 30.3094 18.0804 31.3128C18.0804 32.3158 18.8806 33.129 19.8675 33.129C20.8549 33.129 21.6551 32.3158 21.6551 31.3128C21.6551 30.3094 20.8549 29.4962 19.8675 29.4962ZM40.6967 23.1899V22.0329C40.6967 20.9637 39.8318 20.0847 38.7797 20.0847H16.968C15.9158 20.0847 15.0509 20.9637 15.0509 22.0329V23.1899H40.6967Z" fill="none"/>
</svg>
