<svg width="41" height="30" viewBox="0 0 41 30" fill="none" xmlns="http://www.w3.org/2000/svg">
<path fill-rule="evenodd" clip-rule="evenodd" d="M37.1382 2.58081H3.13818C2.5859 2.58081 2.13818 3.02853 2.13818 3.58081V26.5808C2.13818 27.1331 2.5859 27.5808 3.13818 27.5808H37.1382C37.6905 27.5808 38.1382 27.1331 38.1382 26.5808V3.58081C38.1382 3.02853 37.6905 2.58081 37.1382 2.58081ZM3.13818 0.580811C1.48133 0.580811 0.138184 1.92396 0.138184 3.58081V26.5808C0.138184 28.2377 1.48133 29.5808 3.13818 29.5808H37.1382C38.795 29.5808 40.1382 28.2377 40.1382 26.5808V3.58081C40.1382 1.92396 38.795 0.580811 37.1382 0.580811H3.13818Z" fill="white"/>
<path d="M6.26425 12.399V14.5808H5.80296V12.8369H5.79017L5.29053 13.1501V12.741L5.83066 12.399H6.26425Z" fill="white"/>
<path d="M6.6828 14.5808V14.2484L7.45944 13.5293C7.52549 13.4654 7.58089 13.4079 7.62563 13.3568C7.67108 13.3056 7.70553 13.2555 7.72897 13.2065C7.75241 13.1568 7.76412 13.1032 7.76412 13.0457C7.76412 12.9818 7.74956 12.9267 7.72045 12.8805C7.69133 12.8337 7.65155 12.7978 7.60113 12.7729C7.5507 12.7474 7.49353 12.7346 7.42961 12.7346C7.36285 12.7346 7.30461 12.7481 7.25489 12.7751C7.20518 12.8021 7.16682 12.8408 7.13983 12.8912C7.11285 12.9416 7.09935 13.0016 7.09935 13.0712H6.6615C6.6615 12.9285 6.69381 12.8046 6.75844 12.6994C6.82307 12.5943 6.91363 12.513 7.0301 12.4555C7.14658 12.3979 7.28081 12.3692 7.4328 12.3692C7.58905 12.3692 7.72506 12.3969 7.84083 12.4523C7.95731 12.507 8.04786 12.583 8.11249 12.6803C8.17712 12.7776 8.20944 12.8891 8.20944 13.0148C8.20944 13.0972 8.1931 13.1785 8.16043 13.2587C8.12847 13.339 8.0713 13.4281 7.98891 13.5261C7.90653 13.6234 7.7904 13.7403 7.64055 13.8766L7.32201 14.1888V14.2037H8.2382V14.5808H6.6828Z" fill="white"/>
<path d="M9.27891 14.6107C9.11982 14.6107 8.97813 14.5833 8.85384 14.5286C8.73026 14.4732 8.63261 14.3972 8.56088 14.3006C8.48985 14.2033 8.45328 14.0911 8.45115 13.964H8.91563C8.91847 14.0173 8.93588 14.0641 8.96784 14.1046C9.00051 14.1444 9.04383 14.1753 9.09781 14.1973C9.15178 14.2193 9.21251 14.2303 9.27998 14.2303C9.35029 14.2303 9.41244 14.2179 9.46641 14.193C9.52039 14.1682 9.56265 14.1337 9.59319 14.0897C9.62373 14.0457 9.639 13.9949 9.639 13.9374C9.639 13.8791 9.62267 13.8276 9.58999 13.7829C9.55803 13.7374 9.51187 13.7019 9.4515 13.6764C9.39184 13.6508 9.32082 13.638 9.23843 13.638H9.03495V13.2992H9.23843C9.30803 13.2992 9.36947 13.2872 9.42274 13.263C9.47671 13.2389 9.51862 13.2055 9.54845 13.1629C9.57828 13.1195 9.59319 13.0691 9.59319 13.0116C9.59319 12.9569 9.58005 12.909 9.55377 12.8678C9.5282 12.8259 9.49198 12.7932 9.44511 12.7698C9.39894 12.7463 9.34497 12.7346 9.28318 12.7346C9.22068 12.7346 9.1635 12.746 9.11166 12.7687C9.05981 12.7907 9.01826 12.8223 8.98701 12.8635C8.95576 12.9047 8.93907 12.953 8.93694 13.0084H8.49482C8.49695 12.8827 8.53282 12.7719 8.60242 12.676C8.67203 12.5801 8.76578 12.5052 8.88367 12.4512C9.00228 12.3965 9.13616 12.3692 9.28531 12.3692C9.43588 12.3692 9.56762 12.3965 9.68055 12.4512C9.79347 12.5059 9.88119 12.5798 9.94369 12.6728C10.0069 12.7651 10.0381 12.8688 10.0374 12.9839C10.0381 13.106 10.0002 13.208 9.92345 13.2896C9.84745 13.3713 9.74838 13.4232 9.62622 13.4452V13.4622C9.78673 13.4828 9.90889 13.5386 9.99269 13.6295C10.0772 13.7197 10.1191 13.8326 10.1184 13.9683C10.1191 14.0926 10.0832 14.203 10.0108 14.2996C9.93907 14.3962 9.83999 14.4722 9.71357 14.5276C9.58715 14.583 9.44227 14.6107 9.27891 14.6107Z" fill="white"/>
<path d="M10.317 14.1973V13.834L11.2278 12.399H11.541V12.9019H11.3557L10.7815 13.8106V13.8276H12.0758V14.1973H10.317ZM11.3642 14.5808V14.0865L11.3727 13.9256V12.399H11.8052V14.5808H11.3642Z" fill="white"/>
<path d="M12.8445 14.1973V13.834L13.7554 12.399H14.0686V12.9019H13.8832L13.309 13.8106V13.8276H14.6034V14.1973H12.8445ZM13.8917 14.5808V14.0865L13.9003 13.9256V12.399H14.3328V14.5808H13.8917Z" fill="white"/>
<path d="M15.6172 14.6107C15.4581 14.6107 15.3164 14.5833 15.1921 14.5286C15.0685 14.4732 14.9709 14.3972 14.8992 14.3006C14.8281 14.2033 14.7916 14.0911 14.7894 13.964H15.2539C15.2568 14.0173 15.2742 14.0641 15.3061 14.1046C15.3388 14.1444 15.3821 14.1753 15.4361 14.1973C15.4901 14.2193 15.5508 14.2303 15.6183 14.2303C15.6886 14.2303 15.7507 14.2179 15.8047 14.193C15.8587 14.1682 15.9009 14.1337 15.9315 14.0897C15.962 14.0457 15.9773 13.9949 15.9773 13.9374C15.9773 13.8791 15.9609 13.8276 15.9283 13.7829C15.8963 13.7374 15.8502 13.7019 15.7898 13.6764C15.7301 13.6508 15.6591 13.638 15.5767 13.638H15.3732V13.2992H15.5767C15.6463 13.2992 15.7077 13.2872 15.761 13.263C15.815 13.2389 15.8569 13.2055 15.8867 13.1629C15.9166 13.1195 15.9315 13.0691 15.9315 13.0116C15.9315 12.9569 15.9183 12.909 15.8921 12.8678C15.8665 12.8259 15.8303 12.7932 15.7834 12.7698C15.7372 12.7463 15.6832 12.7346 15.6215 12.7346C15.559 12.7346 15.5018 12.746 15.4499 12.7687C15.3981 12.7907 15.3565 12.8223 15.3253 12.8635C15.294 12.9047 15.2774 12.953 15.2752 13.0084H14.8331C14.8352 12.8827 14.8711 12.7719 14.9407 12.676C15.0103 12.5801 15.1041 12.5052 15.222 12.4512C15.3406 12.3965 15.4744 12.3692 15.6236 12.3692C15.7742 12.3692 15.9059 12.3965 16.0188 12.4512C16.1318 12.5059 16.2195 12.5798 16.282 12.6728C16.3452 12.7651 16.3764 12.8688 16.3757 12.9839C16.3764 13.106 16.3384 13.208 16.2617 13.2896C16.1857 13.3713 16.0867 13.4232 15.9645 13.4452V13.4622C16.125 13.4828 16.2472 13.5386 16.331 13.6295C16.4155 13.7197 16.4574 13.8326 16.4567 13.9683C16.4574 14.0926 16.4215 14.203 16.3491 14.2996C16.2774 14.3962 16.1783 14.4722 16.0519 14.5276C15.9254 14.583 15.7805 14.6107 15.6172 14.6107Z" fill="white"/>
<path d="M17.6375 12.399V14.5808H17.1762V12.8369H17.1634L16.6638 13.1501V12.741L17.2039 12.399H17.6375Z" fill="white"/>
<path d="M19.0053 12.399V14.5808H18.544V12.8369H18.5312L18.0315 13.1501V12.741L18.5717 12.399H19.0053Z" fill="white"/>
<path d="M20.815 14.6107C20.6645 14.6107 20.5302 14.583 20.4123 14.5276C20.2951 14.4722 20.2021 14.3958 20.1332 14.2985C20.0643 14.2012 20.0285 14.0897 20.0256 13.964H20.4731C20.478 14.0485 20.5135 14.1171 20.5796 14.1696C20.6456 14.2222 20.7241 14.2484 20.815 14.2484C20.8875 14.2484 20.9514 14.2325 21.0068 14.2005C21.0629 14.1678 21.1066 14.1227 21.1378 14.0652C21.1698 14.007 21.1858 13.9402 21.1858 13.8649C21.1858 13.7882 21.1694 13.7207 21.1368 13.6625C21.1048 13.6043 21.0604 13.5588 21.0036 13.5261C20.9468 13.4935 20.8818 13.4768 20.8086 13.4761C20.7447 13.4761 20.6826 13.4892 20.6222 13.5155C20.5625 13.5418 20.516 13.5776 20.4826 13.6231L20.0725 13.5496L20.1758 12.399H21.5096V12.7761H20.5562L20.4997 13.3227H20.5125C20.5508 13.2687 20.6087 13.2239 20.6861 13.1884C20.7635 13.1529 20.8502 13.1352 20.9461 13.1352C21.0775 13.1352 21.1946 13.1661 21.2976 13.2278C21.4006 13.2896 21.4819 13.3745 21.5416 13.4825C21.6013 13.5897 21.6307 13.7133 21.63 13.8532C21.6307 14.0002 21.5966 14.1309 21.5277 14.2453C21.4596 14.3589 21.364 14.4484 21.2412 14.5137C21.119 14.5783 20.977 14.6107 20.815 14.6107Z" fill="white"/>
<path d="M22.6891 14.6107C22.5769 14.61 22.4686 14.5911 22.3642 14.5542C22.2605 14.5173 22.1674 14.4573 22.0851 14.3742C22.0034 14.2911 21.9384 14.181 21.8901 14.0439C21.8425 13.9068 21.8184 13.7385 21.8177 13.5389C21.8184 13.3543 21.8393 13.1891 21.8805 13.0435C21.9224 12.8979 21.9821 12.7747 22.0595 12.6739C22.1376 12.5723 22.231 12.4953 22.3397 12.4427C22.4483 12.3894 22.5701 12.3628 22.7051 12.3628C22.8507 12.3628 22.9792 12.3912 23.0907 12.448C23.2022 12.5048 23.2917 12.5819 23.3592 12.6792C23.4274 12.7765 23.4686 12.8862 23.4828 13.0084H23.0279C23.0101 12.9288 22.9728 12.8674 22.916 12.8241C22.8592 12.7801 22.7889 12.758 22.7051 12.758C22.563 12.758 22.4551 12.8202 22.3812 12.9445C22.3081 13.068 22.2708 13.2378 22.2694 13.4537H22.2843C22.3169 13.3891 22.361 13.334 22.4164 13.2886C22.4725 13.2424 22.5361 13.2073 22.6071 13.1831C22.6788 13.1582 22.7544 13.1458 22.834 13.1458C22.9633 13.1458 23.0783 13.1764 23.1792 13.2374C23.28 13.2978 23.3596 13.3809 23.4178 13.4867C23.476 13.5926 23.5052 13.7136 23.5052 13.85C23.5052 13.9977 23.4707 14.1291 23.4018 14.2442C23.3336 14.3592 23.2381 14.4494 23.1152 14.5148C22.9931 14.5794 22.851 14.6114 22.6891 14.6107ZM22.687 14.2484C22.758 14.2484 22.8216 14.2314 22.8777 14.1973C22.9338 14.1632 22.9778 14.1171 23.0098 14.0588C23.0417 14.0006 23.0577 13.9352 23.0577 13.8628C23.0577 13.7903 23.0417 13.7254 23.0098 13.6678C22.9785 13.6103 22.9352 13.5645 22.8798 13.5304C22.8244 13.4963 22.7612 13.4793 22.6902 13.4793C22.6369 13.4793 22.5875 13.4892 22.5421 13.5091C22.4973 13.529 22.4579 13.5567 22.4238 13.5922C22.3905 13.6277 22.3642 13.6689 22.345 13.7158C22.3258 13.7619 22.3162 13.8113 22.3162 13.8639C22.3162 13.9342 22.3322 13.9984 22.3642 14.0567C22.3968 14.1149 22.4409 14.1614 22.4963 14.1962C22.5524 14.231 22.616 14.2484 22.687 14.2484Z" fill="white"/>
<path d="M23.6992 14.1973V13.834L24.6101 12.399H24.9233V12.9019H24.7379L24.1637 13.8106V13.8276H25.4581V14.1973H23.6992ZM24.7464 14.5808V14.0865L24.7549 13.9256V12.399H25.1875V14.5808H24.7464Z" fill="white"/>
<path d="M26.5028 14.6107C26.3906 14.61 26.2823 14.5911 26.1779 14.5542C26.0742 14.5173 25.9811 14.4573 25.8987 14.3742C25.8171 14.2911 25.7521 14.181 25.7038 14.0439C25.6562 13.9068 25.632 13.7385 25.6313 13.5389C25.632 13.3543 25.653 13.1891 25.6942 13.0435C25.7361 12.8979 25.7957 12.7747 25.8732 12.6739C25.9513 12.5723 26.0447 12.4953 26.1533 12.4427C26.262 12.3894 26.3838 12.3628 26.5188 12.3628C26.6644 12.3628 26.7929 12.3912 26.9044 12.448C27.0159 12.5048 27.1054 12.5819 27.1729 12.6792C27.2411 12.7765 27.2823 12.8862 27.2965 13.0084H26.8416C26.8238 12.9288 26.7865 12.8674 26.7297 12.8241C26.6729 12.7801 26.6026 12.758 26.5188 12.758C26.3767 12.758 26.2688 12.8202 26.1949 12.9445C26.1217 13.068 26.0845 13.2378 26.083 13.4537H26.0979C26.1306 13.3891 26.1747 13.334 26.2301 13.2886C26.2862 13.2424 26.3497 13.2073 26.4207 13.1831C26.4925 13.1582 26.5681 13.1458 26.6477 13.1458C26.7769 13.1458 26.892 13.1764 26.9928 13.2374C27.0937 13.2978 27.1732 13.3809 27.2315 13.4867C27.2897 13.5926 27.3188 13.7136 27.3188 13.85C27.3188 13.9977 27.2844 14.1291 27.2155 14.2442C27.1473 14.3592 27.0518 14.4494 26.9289 14.5148C26.8068 14.5794 26.6647 14.6114 26.5028 14.6107ZM26.5006 14.2484C26.5717 14.2484 26.6352 14.2314 26.6913 14.1973C26.7475 14.1632 26.7915 14.1171 26.8234 14.0588C26.8554 14.0006 26.8714 13.9352 26.8714 13.8628C26.8714 13.7903 26.8554 13.7254 26.8234 13.6678C26.7922 13.6103 26.7489 13.5645 26.6935 13.5304C26.6381 13.4963 26.5749 13.4793 26.5038 13.4793C26.4506 13.4793 26.4012 13.4892 26.3558 13.5091C26.311 13.529 26.2716 13.5567 26.2375 13.5922C26.2041 13.6277 26.1779 13.6689 26.1587 13.7158C26.1395 13.7619 26.1299 13.8113 26.1299 13.8639C26.1299 13.9342 26.1459 13.9984 26.1779 14.0567C26.2105 14.1149 26.2546 14.1614 26.31 14.1962C26.3661 14.231 26.4296 14.2484 26.5006 14.2484Z" fill="white"/>
<path d="M28.9371 14.6107C28.7865 14.6107 28.6523 14.583 28.5344 14.5276C28.4172 14.4722 28.3242 14.3958 28.2553 14.2985C28.1864 14.2012 28.1505 14.0897 28.1477 13.964H28.5951C28.6001 14.0485 28.6356 14.1171 28.7017 14.1696C28.7677 14.2222 28.8462 14.2484 28.9371 14.2484C29.0095 14.2484 29.0735 14.2325 29.1289 14.2005C29.185 14.1678 29.2286 14.1227 29.2599 14.0652C29.2919 14.007 29.3078 13.9402 29.3078 13.8649C29.3078 13.7882 29.2915 13.7207 29.2588 13.6625C29.2269 13.6043 29.1825 13.5588 29.1257 13.5261C29.0688 13.4935 29.0039 13.4768 28.9307 13.4761C28.8668 13.4761 28.8046 13.4892 28.7443 13.5155C28.6846 13.5418 28.6381 13.5776 28.6047 13.6231L28.1946 13.5496L28.2979 12.399H29.6317V12.7761H28.6782L28.6218 13.3227H28.6345C28.6729 13.2687 28.7308 13.2239 28.8082 13.1884C28.8856 13.1529 28.9723 13.1352 29.0681 13.1352C29.1995 13.1352 29.3167 13.1661 29.4197 13.2278C29.5227 13.2896 29.604 13.3745 29.6637 13.4825C29.7233 13.5897 29.7528 13.7133 29.7521 13.8532C29.7528 14.0002 29.7187 14.1309 29.6498 14.2453C29.5816 14.3589 29.4861 14.4484 29.3632 14.5137C29.2411 14.5783 29.099 14.6107 28.9371 14.6107Z" fill="white"/>
<path d="M30.8112 14.6107C30.699 14.61 30.5907 14.5911 30.4862 14.5542C30.3826 14.5173 30.2895 14.4573 30.2071 14.3742C30.1255 14.2911 30.0605 14.181 30.0122 14.0439C29.9646 13.9068 29.9404 13.7385 29.9397 13.5389C29.9404 13.3543 29.9614 13.1891 30.0026 13.0435C30.0445 12.8979 30.1041 12.7747 30.1816 12.6739C30.2597 12.5723 30.3531 12.4953 30.4617 12.4427C30.5704 12.3894 30.6922 12.3628 30.8272 12.3628C30.9728 12.3628 31.1013 12.3912 31.2128 12.448C31.3243 12.5048 31.4138 12.5819 31.4813 12.6792C31.5495 12.7765 31.5907 12.8862 31.6049 13.0084H31.15C31.1322 12.9288 31.0949 12.8674 31.0381 12.8241C30.9813 12.7801 30.911 12.758 30.8272 12.758C30.6851 12.758 30.5772 12.8202 30.5033 12.9445C30.4301 13.068 30.3929 13.2378 30.3914 13.4537H30.4063C30.439 13.3891 30.4831 13.334 30.5385 13.2886C30.5946 13.2424 30.6581 13.2073 30.7291 13.1831C30.8009 13.1582 30.8765 13.1458 30.9561 13.1458C31.0853 13.1458 31.2004 13.1764 31.3012 13.2374C31.4021 13.2978 31.4816 13.3809 31.5399 13.4867C31.5981 13.5926 31.6272 13.7136 31.6272 13.85C31.6272 13.9977 31.5928 14.1291 31.5239 14.2442C31.4557 14.3592 31.3602 14.4494 31.2373 14.5148C31.1152 14.5794 30.9731 14.6114 30.8112 14.6107ZM30.809 14.2484C30.8801 14.2484 30.9436 14.2314 30.9997 14.1973C31.0559 14.1632 31.0999 14.1171 31.1318 14.0588C31.1638 14.0006 31.1798 13.9352 31.1798 13.8628C31.1798 13.7903 31.1638 13.7254 31.1318 13.6678C31.1006 13.6103 31.0573 13.5645 31.0019 13.5304C30.9465 13.4963 30.8833 13.4793 30.8122 13.4793C30.759 13.4793 30.7096 13.4892 30.6642 13.5091C30.6194 13.529 30.58 13.5567 30.5459 13.5922C30.5125 13.6277 30.4862 13.6689 30.4671 13.7158C30.4479 13.7619 30.4383 13.8113 30.4383 13.8639C30.4383 13.9342 30.4543 13.9984 30.4862 14.0567C30.5189 14.1149 30.563 14.1614 30.6184 14.1962C30.6745 14.231 30.738 14.2484 30.809 14.2484Z" fill="white"/>
<path d="M32.6512 14.6107C32.5006 14.6107 32.3664 14.583 32.2485 14.5276C32.1313 14.4722 32.0382 14.3958 31.9693 14.2985C31.9005 14.2012 31.8646 14.0897 31.8617 13.964H32.3092C32.3142 14.0485 32.3497 14.1171 32.4157 14.1696C32.4818 14.2222 32.5603 14.2484 32.6512 14.2484C32.7236 14.2484 32.7875 14.2325 32.8429 14.2005C32.899 14.1678 32.9427 14.1227 32.974 14.0652C33.0059 14.007 33.0219 13.9402 33.0219 13.8649C33.0219 13.7882 33.0056 13.7207 32.9729 13.6625C32.9409 13.6043 32.8965 13.5588 32.8397 13.5261C32.7829 13.4935 32.7179 13.4768 32.6448 13.4761C32.5808 13.4761 32.5187 13.4892 32.4583 13.5155C32.3987 13.5418 32.3522 13.5776 32.3188 13.6231L31.9086 13.5496L32.012 12.399H33.3458V12.7761H32.3923L32.3358 13.3227H32.3486C32.387 13.2687 32.4448 13.2239 32.5223 13.1884C32.5997 13.1529 32.6863 13.1352 32.7822 13.1352C32.9136 13.1352 33.0308 13.1661 33.1338 13.2278C33.2367 13.2896 33.3181 13.3745 33.3777 13.4825C33.4374 13.5897 33.4669 13.7133 33.4661 13.8532C33.4669 14.0002 33.4328 14.1309 33.3639 14.2453C33.2957 14.3589 33.2002 14.4484 33.0773 14.5137C32.9551 14.5783 32.8131 14.6107 32.6512 14.6107Z" fill="white"/>
<path d="M34.4848 14.6107C34.3342 14.6107 34.2 14.583 34.0821 14.5276C33.9649 14.4722 33.8718 14.3958 33.8029 14.2985C33.734 14.2012 33.6982 14.0897 33.6953 13.964H34.1428C34.1478 14.0485 34.1833 14.1171 34.2493 14.1696C34.3154 14.2222 34.3938 14.2484 34.4848 14.2484C34.5572 14.2484 34.6211 14.2325 34.6765 14.2005C34.7326 14.1678 34.7763 14.1227 34.8076 14.0652C34.8395 14.007 34.8555 13.9402 34.8555 13.8649C34.8555 13.7882 34.8392 13.7207 34.8065 13.6625C34.7745 13.6043 34.7301 13.5588 34.6733 13.5261C34.6165 13.4935 34.5515 13.4768 34.4784 13.4761C34.4144 13.4761 34.3523 13.4892 34.2919 13.5155C34.2323 13.5418 34.1858 13.5776 34.1524 13.6231L33.7422 13.5496L33.8456 12.399H35.1794V12.7761H34.2259L34.1694 13.3227H34.1822C34.2206 13.2687 34.2784 13.2239 34.3559 13.1884C34.4333 13.1529 34.5199 13.1352 34.6158 13.1352C34.7472 13.1352 34.8644 13.1661 34.9674 13.2278C35.0703 13.2896 35.1517 13.3745 35.2113 13.4825C35.271 13.5897 35.3005 13.7133 35.2997 13.8532C35.3005 14.0002 35.2664 14.1309 35.1975 14.2453C35.1293 14.3589 35.0338 14.4484 34.9109 14.5137C34.7887 14.5783 34.6467 14.6107 34.4848 14.6107Z" fill="white"/>
<path d="M31.1382 21.5808C31.1382 23.2377 29.795 24.5808 28.1382 24.5808C26.4813 24.5808 25.1382 23.2377 25.1382 21.5808C25.1382 19.924 26.4813 18.5808 28.1382 18.5808C29.795 18.5808 31.1382 19.924 31.1382 21.5808Z" fill="white"/>
<path d="M36.1382 21.5808C36.1382 23.2377 34.795 24.5808 33.1382 24.5808C31.4813 24.5808 30.1382 23.2377 30.1382 21.5808C30.1382 19.924 31.4813 18.5808 33.1382 18.5808C34.795 18.5808 36.1382 19.924 36.1382 21.5808Z" fill="white"/>
<path d="M5.13818 7.58081C5.13818 6.47624 6.03361 5.58081 7.13818 5.58081H9.13818C10.2428 5.58081 11.1382 6.47624 11.1382 7.58081C11.1382 8.68538 10.2428 9.58081 9.13818 9.58081H7.13818C6.03361 9.58081 5.13818 8.68538 5.13818 7.58081Z" fill="white"/>
<path fill-rule="evenodd" clip-rule="evenodd" d="M4.63818 19.0808H12.6382V20.0808H4.63818V19.0808Z" fill="white"/>
</svg>
