<svg width="59" height="59" viewBox="0 0 59 59" fill="none" xmlns="http://www.w3.org/2000/svg">
<path fill-rule="evenodd" clip-rule="evenodd" d="M29.5 58C45.2401 58 58 45.2401 58 29.5C58 13.7599 45.2401 1 29.5 1C13.7599 1 1 13.7599 1 29.5C1 45.2401 13.7599 58 29.5 58ZM29.5 59C45.7924 59 59 45.7924 59 29.5C59 13.2076 45.7924 0 29.5 0C13.2076 0 0 13.2076 0 29.5C0 45.7924 13.2076 59 29.5 59Z" fill="#204C59"/>
<path d="M15 18V38C15 40 16.5 42 19 42H41C43.5 42 45 40 45 38V18H15ZM40.27 21L30.65 29.14C30.4689 29.2949 30.2384 29.3801 30 29.3801C29.7616 29.3801 29.5311 29.2949 29.35 29.14L19.73 21H40.27ZM41 39H19C18.7348 39 18.4804 38.8946 18.2929 38.7071C18.1054 38.5196 18 38.2652 18 38V23.16L28.06 31.67C28.602 32.1295 29.2895 32.3817 30 32.3817C30.7105 32.3817 31.398 32.1295 31.94 31.67L42 23.16V38C42 38.2652 41.8946 38.5196 41.7071 38.7071C41.5196 38.8946 41.2652 39 41 39Z" fill="#204C59"/>
</svg>
