<svg width="63" height="63" viewBox="0 0 63 63" fill="none" xmlns="http://www.w3.org/2000/svg">
<g clip-path="url(#clip0)">
<path fill-rule="evenodd" clip-rule="evenodd" d="M31.1382 61.0808C47.7067 61.0808 61.1382 47.6494 61.1382 31.0808C61.1382 14.5123 47.7067 1.08081 31.1382 1.08081C14.5696 1.08081 1.13818 14.5123 1.13818 31.0808C1.13818 47.6494 14.5696 61.0808 31.1382 61.0808ZM31.1382 62.0808C48.259 62.0808 62.1382 48.2016 62.1382 31.0808C62.1382 13.96 48.259 0.0808105 31.1382 0.0808105C14.0174 0.0808105 0.138184 13.96 0.138184 31.0808C0.138184 48.2016 14.0174 62.0808 31.1382 62.0808Z" fill="white"/>
<path fill-rule="evenodd" clip-rule="evenodd" d="M38.6508 27.0969H23C22.4477 27.0969 22 27.5446 22 28.0969V40.7953C22 41.3476 22.4477 41.7953 23 41.7953H38.6508C39.2031 41.7953 39.6508 41.3476 39.6508 40.7953V28.0969C39.6508 27.5446 39.2031 27.0969 38.6508 27.0969ZM23 25.0969C21.3431 25.0969 20 26.4401 20 28.0969V40.7953C20 42.4522 21.3431 43.7953 23 43.7953H38.6508C40.3076 43.7953 41.6508 42.4522 41.6508 40.7953V28.0969C41.6508 26.4401 40.3077 25.0969 38.6508 25.0969H23Z" fill="white"/>
<path fill-rule="evenodd" clip-rule="evenodd" d="M30.9933 20C29.2257 20 27.7927 21.4329 27.7927 23.2005V31.6016H25.7927V23.2005C25.7927 20.3284 28.1211 18 30.9933 18C33.8654 18 36.1938 20.3284 36.1938 23.2005V31.6016H34.1938V23.2005C34.1938 21.4329 32.7609 20 30.9933 20Z" fill="white"/>
</g>
<defs>
<clipPath id="clip0">
<rect width="62" height="62" fill="white" transform="translate(0.138184 0.0808105)"/>
</clipPath>
</defs>
</svg>
