<svg width="60" height="60" fill="none" xmlns="http://www.w3.org/2000/svg"><path d="M60 30c0 16.569-13.431 30-30 30C13.431 60 0 46.569 0 30 0 13.431 13.431 0 30 0c16.569 0 30 13.431 30 30z" fill="currentColor"/><path d="M30 26a4 4 0 100 8 4 4 0 000-8zm0 6a2 2 0 110-4 2 2 0 010 4z" fill="#fff"/><path d="M41.57 32.3l-1.38-.79a9.559 9.559 0 000-3l1.38-.79a2.86 2.86 0 001.05-3.91l-.93-1.61a2.88 2.88 0 00-3.91-1l-1.38.8a10.07 10.07 0 00-2.61-1.52v-1.65A2.86 2.86 0 0030.93 16h-1.86a2.86 2.86 0 00-2.86 2.86v1.55a10.07 10.07 0 00-2.61 1.52l-1.38-.8a2.86 2.86 0 00-3.91 1l-.93 1.66a2.88 2.88 0 001 3.91l1.38.79a9.559 9.559 0 000 3l-1.38.79a2.86 2.86 0 00-1 3.91l.93 1.61a2.88 2.88 0 003.91 1.05l1.38-.8a10.07 10.07 0 002.61 1.52v1.58A2.86 2.86 0 0029.07 44h1.86a2.86 2.86 0 002.86-2.86v-1.55a10.07 10.07 0 002.61-1.52l1.38.8a2.858 2.858 0 003.91-1.05l.93-1.61a2.88 2.88 0 00-1.05-3.91zm-.69 2.91L40 36.82a.86.86 0 01-1.17.32l-2.63-1.52-.54.49a8.3 8.3 0 01-3.12 1.82l-.7.22v3a.86.86 0 01-.86.86h-1.91a.86.86 0 01-.86-.86v-3l-.7-.22a8.3 8.3 0 01-3.12-1.82l-.54-.49-2.63 1.52a.87.87 0 01-.95-.067.842.842 0 01-.22-.253l-.93-1.61a.86.86 0 01.31-1.21l2.62-1.51-.16-.72a8.56 8.56 0 01-.2-1.8c.002-.606.072-1.21.21-1.8l.15-.72L19.43 26a.86.86 0 01-.31-1.18l.93-1.61a.86.86 0 011.17-.32l2.63 1.52.54-.49a8.3 8.3 0 013.12-1.82l.7-.22v-3a.86.86 0 01.86-.88h1.86a.86.86 0 01.86.86v3l.7.22a8.3 8.3 0 013.12 1.82l.54.49 2.63-1.52a.87.87 0 01.95.067c.09.069.165.155.22.253l.93 1.61a.858.858 0 01-.31 1.2L38 27.48l.16.72a8.56 8.56 0 01.2 1.8 8.003 8.003 0 01-.21 1.8l-.15.72L40.57 34a.86.86 0 01.31 1.21z" fill="#fff"/></svg>
