<svg width="60" height="60" fill="none" xmlns="http://www.w3.org/2000/svg"><path d="M60 30c0 16.569-13.431 30-30 30C13.431 60 0 46.569 0 30 0 13.431 13.431 0 30 0c16.569 0 30 13.431 30 30z" fill="currentColor"/><path d="M30 17l-13 4.28V27c0 14.61 12.63 17.94 12.76 18H30l.24-.06c.13 0 12.76-3.36 12.76-18v-5.66L30 17zm11 10c0 12.1-9.31 15.45-11 16-1.69-.55-11-3.9-11-16v-4.28l11-3.67 11 3.67V27z" fill="#fff"/><path d="M25.59 30l-1.42 1.41 2.29 2.29a1.998 1.998 0 001.42.59 2 2 0 001.41-.59l6.54-6.53-1.42-1.42-6.53 6.54L25.59 30z" fill="#fff"/></svg>
