<svg width="40" height="40" fill="none" xmlns="http://www.w3.org/2000/svg"><path d="M26.277 11.939V7.964h-1.492c-.428.002-.857-.001-1.286 0-.377.002-.755-.003-1.133 0-.57.007-1.11.035-1.657.21a4.331 4.331 0 00-1.444.824c-.244.206-.47.428-.674.673a3.9 3.9 0 00-.232.318 5.33 5.33 0 00-.53 1.076c-.032.086-.064.173-.094.26-.22.638-.227 1.334-.227 2.004v3.356h-3.79v4.375h3.751v10.977h4.336V20.962l3.935.053.53-4.301-4.446-.01v-3.32s-.01-1.416 1.191-1.435l3.262-.01z" fill="currentColor"/><path d="M38.428 12.216a19.933 19.933 0 00-4.285-6.357A19.932 19.932 0 0020 0 19.933 19.933 0 005.858 5.858 19.933 19.933 0 000 19.998a19.93 19.93 0 005.857 14.143A19.932 19.932 0 0020 40a19.93 19.93 0 0014.141-5.858A19.933 19.933 0 0040 20.002c0-2.7-.529-5.32-1.572-7.786zM20 38.138H20a18.02 18.02 0 01-12.825-5.313 18.02 18.02 0 01-5.312-12.826c0-10 8.137-18.137 18.14-18.137 4.844 0 9.399 1.887 12.824 5.313a18.02 18.02 0 015.312 12.826c0 10-8.137 18.137-18.138 18.137z" fill="currentColor"/></svg>
