<svg width="20" height="20" fill="none" xmlns="http://www.w3.org/2000/svg"><path fill-rule="evenodd" clip-rule="evenodd" d="M10 19a9 9 0 100-18 9 9 0 000 18zm0 1c5.523 0 10-4.477 10-10S15.523 0 10 0 0 4.477 0 10s4.477 10 10 10z" fill="currentColor"/><path fill-rule="evenodd" clip-rule="evenodd" d="M6.426 4.867a.812.812 0 011.148 0L9.146 6.44a1.5 1.5 0 010 2.122l-.792.793-.708-.708.793-.792a.5.5 0 000-.708L7 5.707l-.15.15a2.903 2.903 0 00-.31 3.74l.65.91a10.92 10.92 0 002.829 2.738l.38.253a2.987 2.987 0 003.769-.373l.125-.125-1.44-1.44a.5.5 0 00-.707 0l-.792.794-.708-.707.793-.793a1.5 1.5 0 012.122 0l1.572 1.572a.812.812 0 010 1.148l-.258.258a3.987 3.987 0 01-5.03.498l-.38-.253a11.92 11.92 0 01-3.088-2.99l-.65-.909a3.903 3.903 0 01.416-5.028l.283-.283z" fill="currentColor"/></svg>
