<svg width="40" height="40" fill="none" xmlns="http://www.w3.org/2000/svg"><path d="M29.02 13.614s2.057-1.732 1.992-2.505c0 0-2.374 1.043-2.896 1.09 0 0-.165-.167-.435-.385a6.993 6.993 0 00-.303-.232 4.244 4.244 0 00-.992-.54c-.758-.331-1.587-.412-2.4-.323a6.09 6.09 0 00-.349.048c-1.35.212-2.505 1.031-3.231 2.148a3.821 3.821 0 00-.18.314c-.111.215-.2.44-.262.675a6.855 6.855 0 00-.077.295c-.025.108-.049.223-.067.337-.075.456 0 1.937 0 1.937s-6.006.186-9.861-4.805c0 0-1.9 3.594 1.378 6.108 0 0-.667.298-1.926-.447 0 0-.626 2.738 3.434 4.619h-1.974s.69 3.035 4.358 3.315c0 0-1.732 2.327-6.76 1.974 0 0 4.537 3.154 10.381 1.69.105-.026.21-.054.315-.083.925-.285 1.856-.62 2.702-1.07l.221-.117c.222-.12.444-.248.668-.384 0 0 6.145-3.33 6.648-11.933 0 0 1.292-.758 2.12-2.21 0 0-2.328.54-2.505.484z" fill="currentColor"/><path d="M38.428 12.216a19.933 19.933 0 00-4.285-6.357A19.932 19.932 0 0020 0 19.933 19.933 0 005.858 5.858 19.933 19.933 0 000 19.998a19.93 19.93 0 005.857 14.143A19.932 19.932 0 0020 40a19.93 19.93 0 0014.141-5.858A19.933 19.933 0 0040 20.002c0-2.7-.529-5.32-1.572-7.786zM20 38.138H20a18.02 18.02 0 01-12.825-5.313 18.02 18.02 0 01-5.312-12.826c0-10 8.137-18.137 18.14-18.137 4.844 0 9.399 1.887 12.824 5.313a18.02 18.02 0 015.312 12.826c0 10-8.137 18.137-18.138 18.137z" fill="currentColor"/></svg>
