<svg width="40" height="40" fill="none" xmlns="http://www.w3.org/2000/svg"><path d="M6.038 15.599c.3.785.672 1.542 1.054 2.29.91 1.776 1.846 3.503 3.101 5.064 1.27 1.578 2.767 3.107 4.532 4.128.49.284 1.006.523 1.543.706 2.074.702 4.348.635 5.05.167.702-.469-.134-3.545.502-3.913.635-.368 1.772.435 2.608 1.17a27.416 27.416 0 011.94 1.873c.293.314.5.69.882.913.632.37 1.475.33 2.18.332.393 0 .786.002 1.18-.003.265-.003.531.006.797-.007.436-.021 1.007-.194.974-.74a1.278 1.278 0 00-.088-.402 3.784 3.784 0 00-.432-.745c-.87-1.162-1.447-1.756-1.881-2.224-.435-.468-2.224-2.157-2.341-2.491-.117-.335-.155-.483.177-.935.333-.451 1.06-1.59 1.629-2.41.356-.513.68-1.05 1-1.588.378-.633.732-1.281 1.035-1.954.135-.3.258-.575.174-.912-.056-.225-.183-.424-.42-.48-.129-.03-.27-.033-.402-.033h-1.78l-.699-.003c-.238 0-.479-.001-.717.02-.338.028-.546.29-.716.552-.208.322-.398.658-.6.984-.138.223-.273.447-.406.673-.208.353-.421.703-.635 1.052-.089.145-.178.29-.265.435-.251.418-2.425 3.278-2.86 3.395-.434.117-.585.083-.585-.803v-5.92s-.033-.387-.401-.387H15.574s-.827.003-.534.747c.292.745 1.158.97 1.158 2.212v4.866s-.147 1.09-1.092.188c-.744-.712-1.357-1.553-1.9-2.425a18.849 18.849 0 01-1.421-2.836c-.116-.283-.23-.566-.35-.846a55.548 55.548 0 01-.365-.883c-.138-.343-.286-.792-.658-.95-.187-.079-.394-.075-.594-.075-.74 0-1.48.002-2.22 0h-.651c-.513.002-1.15-.013-1.272.627-.07.37.07.763.186 1.108.053.157.118.308.177.463z" fill="currentColor"/><path d="M38.428 12.216a19.933 19.933 0 00-4.285-6.357A19.932 19.932 0 0020 0 19.933 19.933 0 005.858 5.858 19.933 19.933 0 000 19.998a19.93 19.93 0 005.857 14.143A19.932 19.932 0 0020 40a19.93 19.93 0 0014.141-5.858A19.933 19.933 0 0040 20.002c0-2.7-.529-5.32-1.572-7.786zM20 38.138H20a18.02 18.02 0 01-12.825-5.313 18.02 18.02 0 01-5.312-12.826c0-10 8.137-18.137 18.14-18.137 4.844 0 9.399 1.887 12.824 5.313a18.02 18.02 0 015.312 12.826c0 10-8.137 18.137-18.138 18.137z" fill="currentColor"/></svg>
