<svg width="60" height="60" fill="none" xmlns="http://www.w3.org/2000/svg"><path d="M60 30c0 16.569-13.431 30-30 30C13.431 60 0 46.569 0 30 0 13.431 13.431 0 30 0c16.569 0 30 13.431 30 30z" fill="currentColor"/><path d="M36 26.5c1.2-1.1 2-2.7 2-4.5 0-3.3-2.7-6-6-6-3 0-5.4 2-5.9 5H26c-3.3 0-6 2.7-6 6 0 1.8.8 3.4 2 4.5-1.8.4-3.5 1.5-5 3.5v4c0 .6.4 1 1 1h16c.6 0 1-.4 1-1v-4h5c.6 0 1-.4 1-1v-4c-1.4-2-3.2-3.1-5-3.5zM32 18c2.2 0 4 1.8 4 4s-1.7 4-4 4c0-2.1-1.9-3.9-3.9-4.6.3-1.9 1.9-3.4 3.9-3.4zm-10 9c0-2.2 1.8-4 4-4s4 1.8 4 4-1.8 4-4 4-4-1.8-4-4zm11 11H19v-2s2-3 7-3 7 3 7 3v2zm6-5h-5.9c-1-.8-2-1.3-3.1-1.5 1-.9 1.7-2.1 1.9-3.5h.1c5 0 7 3 7 3v2z" fill="#fff"/></svg>
