<svg width="60" height="60" fill="none" xmlns="http://www.w3.org/2000/svg"><path d="M60 30c0 16.569-13.431 30-30 30C13.431 60 0 46.569 0 30 0 13.431 13.431 0 30 0c16.569 0 30 13.431 30 30z" fill="currentColor"/><path d="M42.4 32.1c.2-.3.3-.7.1-1.1l-4-6.9c-.2-.4-.6-.5-1-.5 0 .1-.1.2-.1.4.3-.5.1-1.1-.4-1.4l-6.9-4c-.4-.2-.8-.2-1.1.1-.2-.4-.6-.7-1-.7h-8c-.6 0-1 .4-1 1v22c0 .6.4 1 1 1h22c.6 0 1-.4 1-1v-8c0-.4-.3-.8-.6-.9zm-5.2-6.2l3 5.2-10.6 6.1-.6 1.1 6.7-11.5 1.5-.9zm-7.3-5.1l5.2 3L29 34.3v-12l.9-1.5zM21 40V20h6v20h-6zm18.2-6H41v6H29v-.1l13.1-7.6-2.9 1.7z" fill="#fff"/></svg>
