<svg width="40" height="40" fill="none" xmlns="http://www.w3.org/2000/svg"><path d="M38.428 12.216a19.933 19.933 0 00-4.285-6.357A19.932 19.932 0 0020 0 19.933 19.933 0 005.858 5.858 19.933 19.933 0 000 19.998a19.93 19.93 0 005.857 14.143A19.932 19.932 0 0020 40a19.93 19.93 0 0014.141-5.858A19.933 19.933 0 0040 20.002c0-2.7-.529-5.32-1.572-7.786zM20 38.138H20a18.02 18.02 0 01-12.825-5.313 18.02 18.02 0 01-5.312-12.826c0-10 8.137-18.137 18.14-18.137 4.844 0 9.399 1.887 12.824 5.313a18.02 18.02 0 015.312 12.826c0 10-8.137 18.137-18.138 18.137z" fill="currentColor"/><path d="M25.732 15.535a1.294 1.294 0 100-2.589 1.294 1.294 0 000 2.59zM19.997 25.622A5.628 5.628 0 0114.375 20c0-3.1 2.522-5.621 5.622-5.621S25.618 16.9 25.618 20c0 3.1-2.522 5.622-5.621 5.622zm0-9.486A3.868 3.868 0 0016.133 20a3.868 3.868 0 003.864 3.864A3.868 3.868 0 0023.86 20a3.868 3.868 0 00-3.863-3.864z" fill="currentColor"/><path d="M23.578 31.25h-7.16c-4.039 0-7.324-3.285-7.324-7.324v-7.852c0-4.039 3.285-7.324 7.324-7.324h7.16c4.038 0 7.324 3.285 7.324 7.324v7.852c0 4.039-3.286 7.324-7.325 7.324zm-7.16-20.742a5.573 5.573 0 00-5.566 5.566v7.852a5.573 5.573 0 005.566 5.566h7.16a5.573 5.573 0 005.566-5.566v-7.852a5.573 5.573 0 00-5.566-5.566h-7.16z" fill="currentColor"/></svg>
