<svg width="71" height="81" viewBox="0 0 71 81" fill="none" xmlns="http://www.w3.org/2000/svg">
<path d="M67.1177 30.2447C65.4784 26.7693 63.3145 23.6218 60.6587 20.8677C59.2817 19.4251 57.7735 18.1136 56.1669 16.9333L59.0522 13.0972C59.6095 12.3759 59.4456 11.3267 58.7243 10.8021C58.003 10.2447 56.9538 10.4087 56.4292 11.13L53.4128 15.13C51.4784 13.9497 49.4128 12.9661 47.2817 12.212C45.544 11.589 43.7079 11.0972 41.8718 10.7365C40.5604 10.507 39.2489 10.3431 37.9046 10.2447V3.3595H42.3964C43.3145 3.3595 44.0358 2.6054 44.0358 1.72015C44.0358 0.834909 43.2817 0.0808105 42.3964 0.0808105H30.1013C29.1833 0.0808105 28.462 0.834909 28.462 1.72015C28.462 2.6054 29.2161 3.3595 30.1013 3.3595H34.5932V10.1464C29.8391 10.2447 25.0522 11.3595 20.6915 13.3923C17.2161 14.9988 14.0358 17.1628 11.2817 19.8185C7.41283 23.5234 4.39643 28.1464 2.56037 33.1628C1.90463 34.9333 1.41283 36.8021 1.05217 38.671C0.691514 40.5398 0.494793 42.4415 0.462006 44.3431C0.330858 49.7202 1.4784 55.1628 3.80627 60.048C5.41283 63.4906 7.57676 66.6054 10.2325 69.3595C13.9374 73.2284 18.5932 76.2447 23.6423 78.048C25.38 78.671 27.1833 79.1628 29.0194 79.4906C30.8554 79.8185 32.7243 80.0152 34.5604 80.0808C34.8554 80.0808 35.1505 80.0808 35.4456 80.0808C40.5276 80.0808 45.5768 78.9661 50.1997 76.8021C53.6423 75.1956 56.7899 73.0644 59.544 70.4415C63.4784 66.7365 66.4948 62.0808 68.3309 56.9988C68.9866 55.2284 69.4784 53.3595 69.8391 51.4906C70.1997 49.589 70.3964 47.6874 70.4292 45.7857C70.5276 40.507 69.38 35.0972 67.1177 30.2447ZM66.5932 50.9333C66.2653 52.6382 65.8063 54.3103 65.2489 55.9169C63.5768 60.507 60.8227 64.7038 57.2817 68.0808C54.7899 70.4415 51.9374 72.3759 48.8227 73.8513C44.4292 75.9169 39.5112 76.9333 34.6587 76.8021C32.9866 76.7693 31.2817 76.5726 29.6095 76.2775C27.9374 75.9497 26.2981 75.5234 24.7243 74.9661C20.1669 73.3267 15.9702 70.6054 12.5932 67.0972C10.1997 64.6054 8.26528 61.7857 6.78987 58.671C4.69151 54.2447 3.64233 49.3267 3.77348 44.4415C3.80627 42.7365 4.00299 40.9988 4.29807 39.2939C4.62594 37.589 5.08496 35.8841 5.64233 34.2775C7.28168 29.7202 10.0358 25.5562 13.544 22.212C16.0686 19.8185 18.921 17.8513 22.0686 16.3759C26.2325 14.4415 30.8227 13.4251 35.38 13.4251C35.6423 13.4251 35.9046 13.4251 36.1997 13.4251C37.8718 13.4579 39.5768 13.6546 41.2489 13.9497C42.921 14.2775 44.5604 14.7038 46.1341 15.2611C50.6915 16.9005 54.8882 19.6218 58.2325 23.0972C60.6259 25.589 62.5932 28.4743 64.0686 31.6218C66.1341 36.0152 67.1833 40.9005 67.0522 45.7529C67.085 47.4906 66.8882 49.2284 66.5932 50.9333Z" fill="#2175AA"/>
<path d="M48.3637 31.2284L39.3801 39.3596C38.8883 39.0317 38.3637 38.7366 37.8063 38.5399C37.4457 38.4087 37.085 38.3104 36.7244 38.2448C36.3637 38.1792 35.9703 38.1464 35.6096 38.1137C34.5604 38.1137 33.4785 38.3104 32.4949 38.7694C31.8063 39.0973 31.1834 39.5235 30.626 40.0481C29.8391 40.8022 29.249 41.7202 28.8883 42.7038C28.7571 43.0645 28.6588 43.4251 28.5932 43.7858C28.5276 44.1464 28.4949 44.5399 28.4621 44.9333C28.4293 46.0153 28.6588 47.0973 29.1178 48.0809C29.4457 48.7694 29.8719 49.3923 30.3965 49.9497C31.1506 50.7366 32.0686 51.3268 33.085 51.6874C33.4457 51.8186 33.8063 51.9169 34.167 51.9825C34.5276 52.0481 34.9211 52.0809 35.2817 52.1136C35.3473 52.1136 35.4129 52.1136 35.4457 52.1136C36.4621 52.1136 37.4785 51.8841 38.3965 51.4579C39.085 51.13 39.708 50.7038 40.2653 50.1792C41.0522 49.4251 41.6424 48.5071 42.0358 47.4907C42.167 47.13 42.2653 46.7694 42.3309 46.4087C42.3965 46.0481 42.4293 45.6546 42.4621 45.2612C42.4949 44.1792 42.2653 43.13 41.8063 42.1464C41.7408 42.0153 41.6752 41.9169 41.6096 41.8186L50.626 33.6874C51.3145 33.0645 51.3473 32.0481 50.7571 31.3596C50.1014 30.671 49.0522 30.6382 48.3637 31.2284ZM39.0522 45.7858C39.0194 45.9825 38.9539 46.1792 38.8883 46.3759C38.6916 46.9005 38.3637 47.3923 37.9703 47.7858C37.6752 48.0481 37.3473 48.2776 36.9867 48.4415C36.4621 48.671 35.9047 48.8022 35.3473 48.7694C35.1506 48.7694 34.9539 48.7366 34.7571 48.7038C34.5604 48.671 34.3637 48.6055 34.1998 48.5399C33.6752 48.3432 33.1834 48.0481 32.7899 47.6218C32.5276 47.3268 32.2981 46.9989 32.1014 46.6382C31.8719 46.1137 31.7408 45.5563 31.7408 44.9989C31.7408 44.8022 31.7735 44.6055 31.8063 44.4087C31.8391 44.212 31.9047 44.0153 31.9703 43.8186C32.167 43.294 32.4621 42.8022 32.8883 42.4087C33.1834 42.1464 33.5112 41.9169 33.8719 41.7202C34.3637 41.4907 34.8883 41.3923 35.4129 41.3923C35.4457 41.3923 35.4785 41.3923 35.5112 41.3923C35.708 41.3923 35.9047 41.4251 36.1014 41.4579C36.2981 41.4907 36.4949 41.5563 36.6588 41.6218C37.1834 41.8186 37.6752 42.1137 38.0686 42.5399C38.1014 42.5727 38.1014 42.5727 38.1342 42.6055C38.1342 42.6055 38.1342 42.6382 38.167 42.6382C38.167 42.6382 38.167 42.6382 38.1998 42.6382C38.4293 42.9005 38.626 43.1956 38.7899 43.5235C39.0194 44.0481 39.1506 44.6055 39.1506 45.1628C39.1178 45.3923 39.085 45.5891 39.0522 45.7858Z" fill="#7FC359"/>
<line x1="35.9519" y1="69.5808" x2="35.9519" y2="70.5808" stroke="#2175AA" stroke-width="3" stroke-linecap="round"/>
<line x1="5.9519" y1="40.5808" x2="4.9519" y2="40.5808" stroke="#2175AA" stroke-width="3" stroke-linecap="round"/>
<line x1="35.9519" y1="9.58081" x2="35.9519" y2="10.5808" stroke="#2175AA" stroke-width="3" stroke-linecap="round"/>
<line x1="65.9519" y1="40.5808" x2="64.9519" y2="40.5808" stroke="#2175AA" stroke-width="3" stroke-linecap="round"/>
</svg>
