<svg width="45" height="33" viewBox="0 0 45 33" fill="none" xmlns="http://www.w3.org/2000/svg">
<path fill-rule="evenodd" clip-rule="evenodd" d="M9.6333 32.0298V32.0808H33.6333C39.7083 32.0808 44.6333 27.1558 44.6333 21.0808C44.6333 15.0058 39.7083 10.0808 33.6333 10.0808C33.6008 10.0808 33.5695 10.0831 33.5381 10.0853C33.5105 10.0873 33.4828 10.0893 33.4543 10.0898C32.5043 4.41181 27.5803 0.0808105 21.6333 0.0808105C15.0063 0.0808105 9.6333 5.45381 9.6333 12.0808C9.6333 12.0898 9.6338 12.0981 9.6343 12.1063C9.6348 12.1146 9.6353 12.1228 9.6353 12.1318C4.5813 12.6318 0.633301 16.8938 0.633301 22.0808C0.633301 27.2668 4.5803 31.5278 9.6333 32.0298ZM32.6403 12.1408C32.9663 12.1018 33.2973 12.0808 33.6333 12.0808C38.6043 12.0808 42.6333 16.1098 42.6333 21.0808C42.6333 26.0518 38.6043 30.0808 33.6333 30.0808H9.6333V30.0118C5.6883 29.5188 2.6333 26.1598 2.6333 22.0808C2.6333 17.6628 6.2153 14.0808 10.6333 14.0808C10.6491 14.0808 10.6645 14.0829 10.6798 14.0849C10.6927 14.0866 10.7055 14.0884 10.7183 14.0888L10.7223 14.0748C11.2613 14.0598 11.6953 13.6238 11.6953 13.0808C11.6953 13.056 11.689 13.0331 11.6826 13.0104C11.678 12.9937 11.6734 12.9771 11.6713 12.9598L11.6813 12.9568C11.6543 12.6678 11.6333 12.3778 11.6333 12.0808C11.6333 6.55781 16.1103 2.08081 21.6333 2.08081C26.8423 2.08081 31.1163 6.06381 31.5863 11.1518L31.6043 11.1538C31.6093 11.7008 32.0533 12.1438 32.6023 12.1438C32.6092 12.1438 32.6153 12.1418 32.6215 12.1398C32.6268 12.1381 32.6322 12.1363 32.6383 12.1358L32.6403 12.1408ZM18.5573 20.4971C19.5026 19.4939 21.1159 19.5555 21.9821 20.6279C23.6679 22.7151 26.8374 22.7513 28.5705 20.7031L29.3967 19.7267L27.8699 18.4348L27.0437 19.4112C26.1215 20.5011 24.435 20.4818 23.5379 19.3712C21.9102 17.3559 18.8783 17.2402 17.1017 19.1255L15.9055 20.3949L17.3611 21.7665L18.5573 20.4971Z" fill="#2175AA"/>
</svg>
