<svg width="36" height="24" viewBox="0 0 36 24" fill="none" xmlns="http://www.w3.org/2000/svg">
<path fill-rule="evenodd" clip-rule="evenodd" d="M27.8555 9.99761H28.6889C32.5222 9.99761 35.6333 13.1087 35.6333 16.9421C35.6333 20.7754 32.5222 23.8865 28.6889 23.8865H7.57775C3.74441 23.8865 0.633301 20.7754 0.633301 16.9421C0.633301 13.1087 3.74441 9.99761 7.57775 9.99761H8.41108C8.41108 4.6365 12.7722 0.275391 18.1333 0.275391C23.4944 0.275391 27.8555 4.6365 27.8555 9.99761ZM2.85552 16.9421C2.85552 19.5532 4.96663 21.6643 7.57775 21.6643H28.6889C31.3 21.6643 33.4111 19.5532 33.4111 16.9421C33.4111 14.3309 31.3 12.2198 28.6889 12.2198H25.6333V9.99761C25.6333 5.85872 22.2722 2.49761 18.1333 2.49761C13.9944 2.49761 10.6333 5.85872 10.6333 9.99761V12.2198H7.57775C4.96663 12.2198 2.85552 14.3309 2.85552 16.9421Z" fill="#204C59"/>
</svg>
