<svg width="52" height="51" viewBox="0 0 52 51" fill="none" xmlns="http://www.w3.org/2000/svg">
<path d="M46.4958 15.6667C48.5237 15.0866 50.6964 16.2467 51.1309 18.277C51.7103 20.4524 52 22.6277 52 24.948C52 39.1602 40.4123 50.7619 26.0724 50.7619C11.7326 50.7619 0 39.1602 0 24.948C0 13.3463 7.96657 3.04976 19.4095 0.149325C21.4373 -0.430762 23.61 0.729412 24.0446 2.75972C24.624 4.79002 23.4652 6.82032 21.4373 7.40041C13.3259 9.57574 7.67688 16.8268 7.67688 25.0931C7.67688 29.4437 9.27019 33.6493 11.8774 36.8398C11.5877 35.8247 11.4429 34.9545 11.4429 33.9394C11.4429 28.7186 15.6435 24.368 21.0028 24.368C26.3621 24.368 30.5627 28.5736 30.5627 33.9394C30.5627 38.4351 27.376 42.2056 23.1755 43.2208C24.0446 43.3658 25.0585 43.3658 25.9276 43.3658C36.0668 43.3658 44.3231 35.0996 44.3231 25.0931C44.3231 23.4978 44.0334 21.9026 43.7437 20.3073C43.3092 18.277 44.468 16.2467 46.4958 15.6667ZM37.3705 2.03461C40.7019 2.75972 42.8746 6.24024 42.0056 9.57574C41.1365 12.9112 37.805 14.9415 34.4735 14.2164C31.1421 13.4913 28.9694 10.0108 29.8384 6.6753C30.7075 3.19478 34.039 1.16448 37.3705 2.03461Z" fill="#FF8C00"/>
</svg>
