<svg width="43" height="45" viewBox="0 0 43 45" fill="none" xmlns="http://www.w3.org/2000/svg">
<path fill-rule="evenodd" clip-rule="evenodd" d="M32.6296 20.0808H10.6296C5.10664 20.0808 0.629639 15.6038 0.629639 10.0808C0.629639 4.55781 5.10664 0.0808105 10.6296 0.0808105H32.6296C38.1516 0.0808105 42.6296 4.55781 42.6296 10.0808C42.6296 15.6038 38.1516 20.0808 32.6296 20.0808ZM32.6296 2.08081H10.6296C6.21164 2.08081 2.62964 5.66281 2.62964 10.0808C2.62964 14.4988 6.21164 18.0808 10.6296 18.0808H32.6296C37.0476 18.0808 40.6296 14.4988 40.6296 10.0808C40.6296 5.66281 37.0476 2.08081 32.6296 2.08081ZM10.6296 16.0808C7.31664 16.0808 4.62964 13.3948 4.62964 10.0808C4.62964 6.76781 7.31664 4.08081 10.6296 4.08081C13.9426 4.08081 16.6296 6.76781 16.6296 10.0808C16.6296 13.3948 13.9426 16.0808 10.6296 16.0808ZM10.6296 6.08081C8.42064 6.08081 6.62964 7.87181 6.62964 10.0808C6.62964 12.2898 8.42064 14.0808 10.6296 14.0808C12.8386 14.0808 14.6296 12.2898 14.6296 10.0808C14.6296 7.87181 12.8386 6.08081 10.6296 6.08081ZM10.6296 24.0808H32.6296C38.1516 24.0808 42.6296 28.5588 42.6296 34.0808C42.6296 39.6028 38.1516 44.0808 32.6296 44.0808H10.6296C5.10664 44.0808 0.629639 39.6028 0.629639 34.0808C0.629639 28.5588 5.10664 24.0808 10.6296 24.0808ZM10.6296 42.0808H32.6296C37.0476 42.0808 40.6296 38.4988 40.6296 34.0808C40.6296 29.6628 37.0476 26.0808 32.6296 26.0808H10.6296C6.21164 26.0808 2.62964 29.6628 2.62964 34.0808C2.62964 38.4988 6.21164 42.0808 10.6296 42.0808ZM32.6296 28.0808C35.9426 28.0808 38.6296 30.7678 38.6296 34.0808C38.6296 37.3938 35.9426 40.0808 32.6296 40.0808C29.3166 40.0808 26.6296 37.3938 26.6296 34.0808C26.6296 30.7678 29.3166 28.0808 32.6296 28.0808ZM32.6296 38.0808C34.8386 38.0808 36.6296 36.2898 36.6296 34.0808C36.6296 31.8718 34.8386 30.0808 32.6296 30.0808C30.4206 30.0808 28.6296 31.8718 28.6296 34.0808C28.6296 36.2898 30.4206 38.0808 32.6296 38.0808ZM29.6296 9.08081H33.6296V11.0808H29.6296V9.08081ZM13.6296 33.0808H9.62964V35.0808H13.6296V33.0808Z" fill="#2175AA"/>
</svg>
