<svg width="72" height="87" viewBox="0 0 72 87" fill="none" xmlns="http://www.w3.org/2000/svg">
<path d="M8 86.0109H67C69.7614 86.0109 72 83.7723 72 81.0109V22.0109L49 0.0108643H8C5.23858 0.0108643 3 2.24944 3 5.01086V42.5109V74.5109V81.0109C3 83.7723 5.23858 86.0109 8 86.0109Z" fill="#E7ECF5"/>
<path d="M49 0L72 22H59C53.4772 22 49 17.5228 49 12V0Z" fill="#F7F7F7"/>
<path d="M0 48.0108C0 46.9062 0.895431 46.0108 2 46.0108H54C55.1046 46.0108 56 46.9062 56 48.0108V69.0108C56 70.1154 55.1046 71.0108 54 71.0108H2C0.89543 71.0108 0 70.1154 0 69.0108V48.0108Z" fill="#3192D0"/>
<path d="M8.49414 52.4108H14.2181C15.5861 52.4108 16.7921 52.6748 17.8361 53.2028C18.8921 53.7188 19.7081 54.4508 20.2841 55.3988C20.8721 56.3468 21.1661 57.4508 21.1661 58.7108C21.1661 59.9708 20.8721 61.0748 20.2841 62.0228C19.7081 62.9708 18.8921 63.7088 17.8361 64.2368C16.7921 64.7528 15.5861 65.0108 14.2181 65.0108H8.49414V52.4108ZM14.0741 62.6168C15.3341 62.6168 16.3361 62.2688 17.0801 61.5728C17.8361 60.8648 18.2141 59.9108 18.2141 58.7108C18.2141 57.5108 17.8361 56.5628 17.0801 55.8668C16.3361 55.1588 15.3341 54.8048 14.0741 54.8048H11.4101V62.6168H14.0741Z" fill="white"/>
<path d="M29.4672 65.2268C28.1592 65.2268 26.9772 64.9448 25.9212 64.3808C24.8772 63.8168 24.0552 63.0428 23.4552 62.0588C22.8672 61.0628 22.5732 59.9468 22.5732 58.7108C22.5732 57.4748 22.8672 56.3648 23.4552 55.3808C24.0552 54.3848 24.8772 53.6048 25.9212 53.0408C26.9772 52.4768 28.1592 52.1948 29.4672 52.1948C30.7752 52.1948 31.9512 52.4768 32.9952 53.0408C34.0392 53.6048 34.8612 54.3848 35.4612 55.3808C36.0612 56.3648 36.3612 57.4748 36.3612 58.7108C36.3612 59.9468 36.0612 61.0628 35.4612 62.0588C34.8612 63.0428 34.0392 63.8168 32.9952 64.3808C31.9512 64.9448 30.7752 65.2268 29.4672 65.2268ZM29.4672 62.7428C30.2112 62.7428 30.8832 62.5748 31.4832 62.2388C32.0832 61.8908 32.5512 61.4108 32.8872 60.7988C33.2352 60.1868 33.4092 59.4908 33.4092 58.7108C33.4092 57.9308 33.2352 57.2348 32.8872 56.6228C32.5512 56.0108 32.0832 55.5368 31.4832 55.2008C30.8832 54.8528 30.2112 54.6788 29.4672 54.6788C28.7232 54.6788 28.0512 54.8528 27.4512 55.2008C26.8512 55.5368 26.3772 56.0108 26.0292 56.6228C25.6932 57.2348 25.5252 57.9308 25.5252 58.7108C25.5252 59.4908 25.6932 60.1868 26.0292 60.7988C26.3772 61.4108 26.8512 61.8908 27.4512 62.2388C28.0512 62.5748 28.7232 62.7428 29.4672 62.7428Z" fill="white"/>
<path d="M44.5827 65.2268C43.2987 65.2268 42.1347 64.9508 41.0907 64.3988C40.0587 63.8348 39.2427 63.0608 38.6427 62.0768C38.0547 61.0808 37.7607 59.9588 37.7607 58.7108C37.7607 57.4628 38.0547 56.3468 38.6427 55.3628C39.2427 54.3668 40.0587 53.5928 41.0907 53.0408C42.1347 52.4768 43.3047 52.1948 44.6007 52.1948C45.6927 52.1948 46.6767 52.3868 47.5527 52.7708C48.4407 53.1548 49.1847 53.7068 49.7847 54.4268L47.9127 56.1548C47.0607 55.1708 46.0047 54.6788 44.7447 54.6788C43.9647 54.6788 43.2687 54.8528 42.6567 55.2008C42.0447 55.5368 41.5647 56.0108 41.2167 56.6228C40.8807 57.2348 40.7127 57.9308 40.7127 58.7108C40.7127 59.4908 40.8807 60.1868 41.2167 60.7988C41.5647 61.4108 42.0447 61.8908 42.6567 62.2388C43.2687 62.5748 43.9647 62.7428 44.7447 62.7428C46.0047 62.7428 47.0607 62.2448 47.9127 61.2488L49.7847 62.9768C49.1847 63.7088 48.4407 64.2668 47.5527 64.6508C46.6647 65.0348 45.6747 65.2268 44.5827 65.2268Z" fill="white"/>
</svg>
