<svg width="72" height="87" viewBox="0 0 72 87" fill="none" xmlns="http://www.w3.org/2000/svg">
<path d="M8 86.0109H67C69.7614 86.0109 72 83.7723 72 81.0109V22.0109L49 0.0108643H8C5.23858 0.0108643 3 2.24944 3 5.01086V42.5109V74.5109V81.0109C3 83.7723 5.23858 86.0109 8 86.0109Z" fill="#E7ECF5"/>
<path d="M49 0L72 22H59C53.4772 22 49 17.5228 49 12V0Z" fill="#F7F7F7"/>
<path d="M0 48.0108C0 46.9062 0.895431 46.0108 2 46.0108H54C55.1046 46.0108 56 46.9062 56 48.0108V69.0108C56 70.1154 55.1046 71.0108 54 71.0108H2C0.89543 71.0108 0 70.1154 0 69.0108V48.0108Z" fill="#07C23C"/>
<path d="M19.4327 65.0108L16.3907 60.6368L13.4027 65.0108H10.0547L14.7167 58.6028L10.2887 52.4108H13.6007L16.4987 56.4968L19.3427 52.4108H22.4927L18.1007 58.4948L22.7987 65.0108H19.4327Z" fill="white"/>
<path d="M23.94 52.4108H26.856V62.6348H33.174V65.0108H23.94V52.4108Z" fill="white"/>
<path d="M38.873 65.2268C37.877 65.2268 36.911 65.0948 35.975 64.8308C35.051 64.5548 34.307 64.2008 33.743 63.7688L34.733 61.5728C35.273 61.9688 35.915 62.2868 36.659 62.5268C37.403 62.7668 38.147 62.8868 38.891 62.8868C39.719 62.8868 40.331 62.7668 40.727 62.5268C41.123 62.2748 41.321 61.9448 41.321 61.5368C41.321 61.2368 41.201 60.9908 40.961 60.7988C40.733 60.5948 40.433 60.4328 40.061 60.3128C39.701 60.1928 39.209 60.0608 38.585 59.9168C37.625 59.6888 36.839 59.4608 36.227 59.2328C35.615 59.0048 35.087 58.6388 34.643 58.1348C34.211 57.6308 33.995 56.9588 33.995 56.1188C33.995 55.3868 34.193 54.7268 34.589 54.1388C34.985 53.5388 35.579 53.0648 36.371 52.7168C37.175 52.3688 38.153 52.1948 39.305 52.1948C40.109 52.1948 40.895 52.2908 41.663 52.4828C42.431 52.6748 43.103 52.9508 43.679 53.3108L42.779 55.5248C41.615 54.8648 40.451 54.5348 39.287 54.5348C38.471 54.5348 37.865 54.6668 37.469 54.9308C37.085 55.1948 36.893 55.5428 36.893 55.9748C36.893 56.4068 37.115 56.7308 37.559 56.9468C38.015 57.1508 38.705 57.3548 39.629 57.5588C40.589 57.7868 41.375 58.0148 41.987 58.2428C42.599 58.4708 43.121 58.8308 43.553 59.3228C43.997 59.8148 44.219 60.4808 44.219 61.3208C44.219 62.0408 44.015 62.7008 43.607 63.3008C43.211 63.8888 42.611 64.3568 41.807 64.7048C41.003 65.0528 40.025 65.2268 38.873 65.2268Z" fill="white"/>
</svg>
