<svg width="72" height="87" viewBox="0 0 72 87" fill="none" xmlns="http://www.w3.org/2000/svg">
<path d="M8 86.0109H67C69.7614 86.0109 72 83.7723 72 81.0109V22.0109L49 0.0108643H8C5.23858 0.0108643 3 2.24944 3 5.01086V42.5109V74.5109V81.0109C3 83.7723 5.23858 86.0109 8 86.0109Z" fill="#E7ECF5"/>
<path d="M49 0L72 22H59C53.4772 22 49 17.5228 49 12V0Z" fill="#F7F7F7"/>
<path d="M0 48.0108C0 46.9062 0.895431 46.0108 2 46.0108H54C55.1046 46.0108 56 46.9062 56 48.0108V69.0108C56 70.1153 55.1046 71.0108 54 71.0108H2C0.89543 71.0108 0 70.1153 0 69.0108V48.0108Z" fill="#354650"/>
<path d="M13.4101 54.7507V58.0807H19.2421V60.4207H13.4101V65.0107H10.4941V52.4107H20.0161V54.7507H13.4101Z" fill="white"/>
<path d="M21.9902 52.4107H24.9062V65.0107H21.9902V52.4107Z" fill="white"/>
<path d="M27.8965 52.4107H30.8125V62.6347H37.1305V65.0107H27.8965V52.4107Z" fill="white"/>
<path d="M48.5158 62.6707V65.0107H38.7598V52.4107H48.2818V54.7507H41.6578V57.4867H47.5078V59.7547H41.6578V62.6707H48.5158Z" fill="white"/>
</svg>
