<svg width="72" height="87" viewBox="0 0 72 87" fill="none" xmlns="http://www.w3.org/2000/svg">
<path d="M8 86.0109H67C69.7614 86.0109 72 83.7723 72 81.0109V22.0109L49 0.0108643H8C5.23858 0.0108643 3 2.24944 3 5.01086V42.5109V74.5109V81.0109C3 83.7723 5.23858 86.0109 8 86.0109Z" fill="#E7ECF5"/>
<path d="M49 0L72 22H59C53.4772 22 49 17.5228 49 12V0Z" fill="#F7F7F7"/>
<path d="M0 48.0108C0 46.9062 0.895431 46.0108 2 46.0108H54C55.1046 46.0108 56 46.9062 56 48.0108V69.0108C56 70.1154 55.1046 71.0108 54 71.0108H2C0.89543 71.0108 0 70.1154 0 69.0108V48.0108Z" fill="#1FB3AA"/>
<path d="M15.9481 52.4108C17.0641 52.4108 18.0301 52.5968 18.8461 52.9688C19.6741 53.3408 20.3101 53.8688 20.7541 54.5528C21.1981 55.2368 21.4201 56.0468 21.4201 56.9828C21.4201 57.9068 21.1981 58.7168 20.7541 59.4128C20.3101 60.0968 19.6741 60.6248 18.8461 60.9968C18.0301 61.3568 17.0641 61.5368 15.9481 61.5368H13.4101V65.0108H10.4941V52.4108H15.9481ZM15.7861 59.1608C16.6621 59.1608 17.3281 58.9748 17.7841 58.6028C18.2401 58.2188 18.4681 57.6788 18.4681 56.9828C18.4681 56.2748 18.2401 55.7348 17.7841 55.3628C17.3281 54.9788 16.6621 54.7868 15.7861 54.7868H13.4101V59.1608H15.7861Z" fill="white"/>
<path d="M35.058 52.4108V65.0108H32.664L26.382 57.3608V65.0108H23.502V52.4108H25.914L32.178 60.0608V52.4108H35.058Z" fill="white"/>
<path d="M46.5531 58.5128H49.2171V63.6248C48.5331 64.1408 47.7411 64.5368 46.8411 64.8128C45.9411 65.0888 45.0351 65.2268 44.1231 65.2268C42.8151 65.2268 41.6391 64.9508 40.5951 64.3988C39.5511 63.8348 38.7291 63.0608 38.1291 62.0768C37.5411 61.0808 37.2471 59.9588 37.2471 58.7108C37.2471 57.4628 37.5411 56.3468 38.1291 55.3628C38.7291 54.3668 39.5571 53.5928 40.6131 53.0408C41.6691 52.4768 42.8571 52.1948 44.1771 52.1948C45.2811 52.1948 46.2831 52.3808 47.1831 52.7528C48.0831 53.1248 48.8391 53.6648 49.4511 54.3728L47.5791 56.1008C46.6791 55.1528 45.5931 54.6788 44.3211 54.6788C43.5171 54.6788 42.8031 54.8468 42.1791 55.1828C41.5551 55.5188 41.0691 55.9928 40.7211 56.6048C40.3731 57.2168 40.1991 57.9188 40.1991 58.7108C40.1991 59.4908 40.3731 60.1868 40.7211 60.7988C41.0691 61.4108 41.5491 61.8908 42.1611 62.2388C42.7851 62.5748 43.4931 62.7428 44.2851 62.7428C45.1251 62.7428 45.8811 62.5628 46.5531 62.2028V58.5128Z" fill="white"/>
</svg>
