<svg width="72" height="87" viewBox="0 0 72 87" fill="none" xmlns="http://www.w3.org/2000/svg">
<path d="M8 86.0109H67C69.7614 86.0109 72 83.7723 72 81.0109V22.0109L49 0.0108643H8C5.23858 0.0108643 3 2.24944 3 5.01086V42.5109V74.5109V81.0109C3 83.7723 5.23858 86.0109 8 86.0109Z" fill="#E7ECF5"/>
<path d="M49 0L72 22H59C53.4772 22 49 17.5228 49 12V0Z" fill="#F7F7F7"/>
<path d="M0 48.0108C0 46.9062 0.895431 46.0108 2 46.0108H54C55.1046 46.0108 56 46.9062 56 48.0108V69.0108C56 70.1153 55.1046 71.0108 54 71.0108H2C0.89543 71.0108 0 70.1153 0 69.0108V48.0108Z" fill="#1FB3AA"/>
<path d="M12.8169 65.2268C11.9649 65.2268 11.1789 65.0708 10.4589 64.7588C9.75089 64.4348 9.16889 63.9788 8.71289 63.3908L10.3329 61.4468C11.0169 62.3708 11.7969 62.8328 12.6729 62.8328C13.8609 62.8328 14.4549 62.1368 14.4549 60.7448V54.7508H10.0269V52.4108H17.3529V60.5828C17.3529 62.1308 16.9689 63.2948 16.2009 64.0748C15.4329 64.8428 14.3049 65.2268 12.8169 65.2268Z" fill="white"/>
<path d="M25.6872 52.4108C26.8032 52.4108 27.7692 52.5968 28.5852 52.9688C29.4132 53.3408 30.0492 53.8688 30.4932 54.5528C30.9372 55.2368 31.1592 56.0468 31.1592 56.9828C31.1592 57.9068 30.9372 58.7168 30.4932 59.4128C30.0492 60.0968 29.4132 60.6248 28.5852 60.9968C27.7692 61.3568 26.8032 61.5368 25.6872 61.5368H23.1492V65.0108H20.2332V52.4108H25.6872ZM25.5252 59.1608C26.4012 59.1608 27.0672 58.9748 27.5232 58.6028C27.9792 58.2188 28.2072 57.6788 28.2072 56.9828C28.2072 56.2748 27.9792 55.7348 27.5232 55.3628C27.0672 54.9788 26.4012 54.7868 25.5252 54.7868H23.1492V59.1608H25.5252Z" fill="white"/>
<path d="M41.9308 58.5128H44.5948V63.6248C43.9108 64.1408 43.1188 64.5368 42.2188 64.8128C41.3188 65.0888 40.4128 65.2268 39.5008 65.2268C38.1928 65.2268 37.0168 64.9508 35.9728 64.3988C34.9288 63.8348 34.1068 63.0608 33.5068 62.0768C32.9188 61.0808 32.6248 59.9588 32.6248 58.7108C32.6248 57.4628 32.9188 56.3468 33.5068 55.3628C34.1068 54.3668 34.9348 53.5928 35.9908 53.0408C37.0468 52.4768 38.2348 52.1948 39.5548 52.1948C40.6588 52.1948 41.6608 52.3808 42.5608 52.7528C43.4608 53.1248 44.2168 53.6648 44.8288 54.3728L42.9568 56.1008C42.0568 55.1528 40.9708 54.6788 39.6988 54.6788C38.8948 54.6788 38.1808 54.8468 37.5568 55.1828C36.9328 55.5188 36.4468 55.9928 36.0988 56.6048C35.7508 57.2168 35.5768 57.9188 35.5768 58.7108C35.5768 59.4908 35.7508 60.1868 36.0988 60.7988C36.4468 61.4108 36.9268 61.8908 37.5388 62.2388C38.1628 62.5748 38.8708 62.7428 39.6628 62.7428C40.5028 62.7428 41.2588 62.5628 41.9308 62.2028V58.5128Z" fill="white"/>
</svg>
