<svg width="72" height="87" viewBox="0 0 72 87" fill="none" xmlns="http://www.w3.org/2000/svg">
<path d="M8 86.0109H67C69.7614 86.0109 72 83.7723 72 81.0109V22.0109L49 0.0108643H8C5.23858 0.0108643 3 2.24944 3 5.01086V42.5109V74.5109V81.0109C3 83.7723 5.23858 86.0109 8 86.0109Z" fill="#E7ECF5"/>
<path d="M49 0L72 22H59C53.4772 22 49 17.5228 49 12V0Z" fill="#F7F7F7"/>
<path d="M0 48.0109C0 46.9063 0.895431 46.0109 2 46.0109H54C55.1046 46.0109 56 46.9063 56 48.0109V69.0109C56 70.1154 55.1046 71.0109 54 71.0109H2C0.89543 71.0109 0 70.1154 0 69.0109V48.0109Z" fill="#EC0505"/>
<path d="M15.9481 52.4108C17.0641 52.4108 18.0301 52.5968 18.8461 52.9688C19.6741 53.3408 20.3101 53.8688 20.7541 54.5528C21.1981 55.2368 21.4201 56.0468 21.4201 56.9828C21.4201 57.9068 21.1981 58.7168 20.7541 59.4128C20.3101 60.0968 19.6741 60.6248 18.8461 60.9968C18.0301 61.3568 17.0641 61.5368 15.9481 61.5368H13.4101V65.0108H10.4941V52.4108H15.9481ZM15.7861 59.1608C16.6621 59.1608 17.3281 58.9748 17.7841 58.6028C18.2401 58.2188 18.4681 57.6788 18.4681 56.9828C18.4681 56.2748 18.2401 55.7348 17.7841 55.3628C17.3281 54.9788 16.6621 54.7868 15.7861 54.7868H13.4101V59.1608H15.7861Z" fill="white"/>
<path d="M23.502 52.4108H29.226C30.594 52.4108 31.8 52.6748 32.844 53.2028C33.9 53.7188 34.716 54.4508 35.292 55.3988C35.88 56.3468 36.174 57.4508 36.174 58.7108C36.174 59.9708 35.88 61.0748 35.292 62.0228C34.716 62.9708 33.9 63.7088 32.844 64.2368C31.8 64.7528 30.594 65.0108 29.226 65.0108H23.502V52.4108ZM29.082 62.6168C30.342 62.6168 31.344 62.2688 32.088 61.5728C32.844 60.8648 33.222 59.9108 33.222 58.7108C33.222 57.5108 32.844 56.5628 32.088 55.8668C31.344 55.1588 30.342 54.8048 29.082 54.8048H26.418V62.6168H29.082Z" fill="white"/>
<path d="M41.289 54.7508V58.0808H47.121V60.4208H41.289V65.0108H38.373V52.4108H47.8951V54.7508H41.289Z" fill="white"/>
</svg>
