<svg width="28" height="26" viewBox="0 0 28 26" fill="none" xmlns="http://www.w3.org/2000/svg">
<path fill-rule="evenodd" clip-rule="evenodd" d="M25.3161 0H2.68388C1.20398 0 0 1.20398 0 2.68388V22.8304C0 24.3103 1.20398 25.5143 2.68388 25.5143H25.3161C26.796 25.5143 28 24.3103 28 22.8304V2.68388C28 1.20398 26.796 0 25.3161 0ZM26.1875 2.68388V4.18225H19.6417V1.81249H25.3161C25.7966 1.81249 26.1875 2.20336 26.1875 2.68388ZM17.8293 1.81249H2.68389C2.20337 1.81249 1.8125 2.20336 1.8125 2.68388V4.18225H17.8293V1.81249ZM25.3161 23.7018H2.68389C2.20337 23.7018 1.8125 23.3109 1.8125 22.8304V5.99475H26.1875V22.8304C26.1875 23.3109 25.7966 23.7018 25.3161 23.7018ZM19.0909 10.6061C19.0909 10.1375 18.711 9.75758 18.2424 9.75758H5.51511L5.41616 9.76328C4.99418 9.8123 4.66663 10.1709 4.66663 10.6061C4.66663 11.0747 5.04651 11.4545 5.51511 11.4545H18.2424L18.3413 11.4488C18.7633 11.3998 19.0909 11.0412 19.0909 10.6061ZM18.2424 14C18.711 14 19.0909 14.3799 19.0909 14.8485C19.0909 15.2836 18.7633 15.6422 18.3413 15.6913L18.2424 15.697H5.51511C5.04651 15.697 4.66663 15.3171 4.66663 14.8485C4.66663 14.4134 4.99418 14.0547 5.41616 14.0057L5.51511 14H18.2424ZM19.0909 19.0909C19.0909 18.6223 18.711 18.2424 18.2424 18.2424H5.51511L5.41616 18.2481C4.99418 18.2971 4.66663 18.6558 4.66663 19.0909C4.66663 19.5595 5.04651 19.9394 5.51511 19.9394H18.2424L18.3413 19.9337C18.7633 19.8847 19.0909 19.526 19.0909 19.0909Z" fill="#204C59"/>
</svg>
