<svg width="48" height="48" fill="none" xmlns="http://www.w3.org/2000/svg"><path d="M38.21 16.21c0 5.451-3.612 11.194-7.615 15.804a62.289 62.289 0 01-6.582 6.497 65.04 65.04 0 01-6.603-6.6c-4.014-4.659-7.62-10.398-7.62-15.7C9.79 8.361 16.151 2 24 2c7.848 0 14.21 6.362 14.21 14.21z" stroke="currentColor" stroke-width="4"/><circle cx="24" cy="16.21" r="4.947" stroke="currentColor" stroke-width="4"/><path d="M9.816 31.842L2.838 44.247a1 1 0 00.872 1.49h40.576a1 1 0 00.87-1.492L38.475 32.42" stroke="currentColor" stroke-width="4"/></svg>
