<svg width="41" height="49" viewBox="0 0 41 49" fill="none" xmlns="http://www.w3.org/2000/svg">
<path fill-rule="evenodd" clip-rule="evenodd" d="M20.3596 48.0348C20.4476 48.0588 20.5386 48.0718 20.6296 48.0718C20.7206 48.0718 20.8116 48.0588 20.8986 48.0348C38.4006 43.1318 40.5316 32.3708 40.6136 31.9158C40.6246 31.8568 40.6296 31.7978 40.6296 31.7378V2.11484C40.6296 1.71084 40.3866 1.34584 40.0126 1.19084C39.6386 1.03584 39.2086 1.12184 38.9226 1.40784C36.6936 3.63484 33.7396 4.86284 30.6046 4.86284C27.0306 4.86284 23.6856 3.25284 21.4256 0.444838C21.0446 -0.0281621 20.2146 -0.0281621 19.8336 0.444838C17.5736 3.25284 14.2276 4.86284 10.6536 4.86284C7.51964 4.86284 4.56564 3.63584 2.33664 1.40784C2.05064 1.12184 1.62064 1.03684 1.24664 1.19084C0.872639 1.34584 0.629639 1.71084 0.629639 2.11484V31.7378C0.629639 31.7978 0.634639 31.8568 0.645639 31.9158C0.727639 32.3708 2.85764 43.1318 20.3596 48.0348ZM5.58364 37.0898C3.34864 34.3618 2.73064 32.0628 2.62964 31.6328V4.27584C4.95664 5.95684 7.73864 6.86284 10.6536 6.86284C14.4506 6.86284 18.0266 5.31184 20.6296 2.57084C23.2326 5.31184 26.8076 6.86284 30.6046 6.86284C33.5206 6.86284 36.3026 5.95684 38.6296 4.27584V31.6318C38.5276 32.0708 37.9066 34.3678 35.6746 37.0898C33.4026 39.8598 28.9536 43.6458 20.6296 46.0328C12.3046 43.6468 7.85564 39.8608 5.58364 37.0898ZM19.1111 19.9999L20.6297 15.3261L22.1483 19.9999L23.0994 20.6908H28.0137L24.0379 23.5794L23.6747 24.6974L25.1933 29.3712L21.2175 26.4826H20.0419L16.0662 29.3712L17.5848 24.6974L17.2215 23.5794L13.2458 20.6908H18.1601L19.1111 19.9999ZM19.6787 11.781L17.4335 18.6908H10.1681L9.58032 20.4999L15.4582 24.7704L13.213 31.6802L14.7519 32.7982L20.6297 28.5277L26.5076 32.7982L28.0464 31.6802L25.8013 24.7704L31.6791 20.4999L31.0913 18.6908H23.8259L21.5808 11.781H19.6787Z" fill="#2175AA"/>
</svg>
