<svg width="34" height="34" fill="none" xmlns="http://www.w3.org/2000/svg"><rect width="34" height="34" rx="8" fill="currentColor"/><path fill-rule="evenodd" clip-rule="evenodd" d="M22.098 12.82a.93.93 0 01-1.585.655.924.924 0 01.657-1.581c.512 0 .928.414.928.925zm2.949 4.178v.012l-.053 3.356a4.638 4.638 0 01-4.593 4.578l-3.378.053h-.011l-3.367-.053a4.638 4.638 0 01-4.592-4.578L9 16.998v-.011l.053-3.356a4.638 4.638 0 014.592-4.578L17.023 9h.012l3.366.053a4.638 4.638 0 014.593 4.578l.053 3.367zm-1.495 0l-.052-3.344a3.153 3.153 0 00-3.122-3.112l-3.355-.052-3.354.052a3.153 3.153 0 00-3.122 3.112l-.053 3.344.053 3.345a3.153 3.153 0 003.122 3.112l3.354.052 3.355-.052a3.153 3.153 0 003.122-3.112l.052-3.345zm-2.408 0a4.107 4.107 0 01-2.544 3.795 4.13 4.13 0 01-4.49-.89 4.098 4.098 0 01-.893-4.476 4.12 4.12 0 013.806-2.536 4.119 4.119 0 014.12 4.107zm-1.494 0c0-1.059-.64-2.013-1.622-2.418a2.632 2.632 0 00-2.862.567A2.612 2.612 0 0014.597 18a2.626 2.626 0 002.426 1.616 2.625 2.625 0 002.627-2.618z" fill="#E7ECF5"/></svg>
