<svg width="31" height="31" viewBox="0 0 31 31" fill="none" xmlns="http://www.w3.org/2000/svg">
<path fill-rule="evenodd" clip-rule="evenodd" d="M22.4991 26.1856C21.0078 27.1382 19.3548 27.772 17.6407 28.0631C17.9017 27.7369 18.1517 27.4037 18.3911 27.0644C18.4904 26.9237 18.4707 26.731 18.3426 26.616C18.0512 26.3545 17.8809 26.0705 17.7042 25.7207C17.5875 25.4898 17.2648 25.4683 17.1203 25.6829C16.8751 26.0472 16.6168 26.4041 16.3447 26.7524V23.4852C16.3447 23.2712 16.2967 23.0598 16.2043 22.8666L15.109 20.5764C14.9652 20.2758 14.5137 20.3783 14.5137 20.7114V21.329H11.5582C10.9676 19.6274 10.6193 17.8359 10.5326 15.9962H12.5709C12.6989 15.9962 12.7879 15.8698 12.7453 15.7491C12.5885 15.305 12.5642 14.8343 12.6646 14.3896C12.6905 14.2743 12.6017 14.1652 12.4836 14.1652H10.5326C10.6193 12.3255 10.9677 10.534 11.5583 8.83243H14.5137V12.1526C14.5137 12.3431 14.6777 12.4911 14.8674 12.474C15.2348 12.4408 15.5698 12.4962 15.9107 12.6224C16.1212 12.7004 16.3447 12.5437 16.3447 12.3193V8.83243H19.3002C19.8907 10.534 20.2391 12.3255 20.3258 14.1652H19.9191C19.6705 14.1652 19.5892 14.4988 19.8099 14.6131L21.9623 15.7287C22.3015 15.9045 22.6778 15.9962 23.0598 15.9962H28.5659C28.4447 17.7525 27.9772 19.4147 27.2321 20.9159C27.0376 21.429 26.7776 21.6939 26.3502 22.0998C26.1737 22.2673 26.1698 22.5476 26.3419 22.7197L27.1777 23.5555C27.3686 23.7464 27.6876 23.719 27.8395 23.4958C29.5294 21.0122 30.4292 18.098 30.4292 15.0808C30.4292 6.80947 23.6978 0.0810922 15.4297 0.0808105H15.4287C7.15561 0.0810922 0.429199 6.81461 0.429199 15.0808C0.429199 23.3614 7.16997 30.0808 15.4292 30.0808C18.4884 30.0808 21.3362 29.1598 23.7109 27.581C23.8725 27.4736 23.8956 27.245 23.7584 27.1078L22.879 26.2284C22.7779 26.1272 22.6196 26.1086 22.4991 26.1856ZM27.019 8.83257C27.8887 10.4394 28.4334 12.2465 28.5658 14.1653H22.1579C22.0792 12.3335 21.7645 10.5444 21.2288 8.83257H27.019ZM20.5595 7.00159H25.8214C23.8403 4.45919 20.9486 2.66025 17.6407 2.09849C18.8446 3.60363 19.8236 5.25166 20.5595 7.00159ZM16.3447 3.40926C17.2195 4.52884 17.9588 5.7332 18.5553 7.00159H16.3447V3.40926ZM12.3031 7.00159H14.5137V3.40926C13.6389 4.52884 12.8996 5.73313 12.3031 7.00159ZM13.2176 2.09849C12.0137 3.6037 11.0348 5.25173 10.2989 7.00159H5.03709C7.01807 4.45919 9.90976 2.66025 13.2176 2.09849ZM9.62955 8.83257H3.83941C2.96962 10.4394 2.42497 12.2465 2.29251 14.1653H8.70047C8.7792 12.3335 9.09385 10.5444 9.62955 8.83257ZM3.83941 21.3291C2.96962 19.7222 2.42497 17.9151 2.29251 15.9963H8.70047C8.77913 17.8281 9.09385 19.6172 9.62955 21.3291H3.83941ZM10.2988 23.16H5.03702C7.01807 25.7024 9.90976 27.5014 13.2176 28.0631C12.0137 26.558 11.0348 24.91 10.2988 23.16ZM14.5137 26.7524C13.6389 25.6328 12.8996 24.4284 12.3031 23.16H14.5137V26.7524ZM27.9444 27.8081C28.3569 27.3956 28.3569 26.7268 27.9444 26.3143L24.0176 22.3875L25.6619 20.8033C25.907 20.5671 26.0234 20.2274 25.9744 19.8907C25.9255 19.5539 25.7173 19.2613 25.4151 19.1048L15.556 13.9949C15.1498 13.7843 14.6542 13.8593 14.3284 14.1804C14.0025 14.5015 13.9205 14.996 14.125 15.4051L19.0547 25.2643C19.205 25.5649 19.4893 25.776 19.8206 25.8329C19.8803 25.8432 19.94 25.8482 19.9995 25.8482C20.2705 25.8482 20.5339 25.7438 20.7324 25.5526L22.496 23.8535L26.4506 27.8081C26.6569 28.0143 26.9272 28.1175 27.1975 28.1175C27.4678 28.1175 27.7381 28.0144 27.9444 27.8081ZM20.3016 23.034L17.467 17.3649L23.1362 20.3031L20.3016 23.034Z" fill="#204C59"/>
</svg>
