<svg width="30" height="31" viewBox="0 0 30 31" fill="none" xmlns="http://www.w3.org/2000/svg">
<path fill-rule="evenodd" clip-rule="evenodd" d="M29.4293 11.6204C29.4293 5.2749 24.2697 0.0810218 17.8901 0.0808105H17.8892C12.508 0.0810218 7.8481 3.80525 6.64486 9.0232H2.66338C1.19479 9.0232 0 10.218 0 11.6865V22.705C0 24.1736 1.19479 25.3683 2.66338 25.3683H9.10127L8.53155 28.2498H6.63479C6.12915 28.2498 5.7193 28.6597 5.7193 29.1653C5.7193 29.671 6.12915 30.0808 6.63479 30.0808H16.4452C16.9508 30.0808 17.3607 29.671 17.3607 29.1653C17.3607 28.6597 16.9508 28.2498 16.4452 28.2498H14.5485L13.9787 25.3684H20.4166C21.8852 25.3684 23.08 24.1736 23.08 22.705V21.9267C26.9951 19.9534 29.4293 15.9478 29.4293 11.6204ZM14.6441 9.0232C14.7633 8.37778 14.925 7.74644 15.1294 7.13222H16.9742V9.0232H14.6441ZM15.889 5.30123H16.9742V3.49342C16.5655 4.07032 16.2034 4.67412 15.889 5.30123ZM18.8052 3.46708C19.2318 4.05673 19.6013 4.66694 19.9153 5.30123H18.8052V3.46708ZM20.6471 7.13222H18.8052V9.0232C19.1044 9.0232 19.3559 9.02248 19.5695 9.02187H19.5699H19.5703H19.5707H19.571H19.5713C20.5978 9.01893 20.7463 9.0185 21.1001 9.1125C20.9953 8.42644 20.8446 7.76743 20.6471 7.13222ZM27.5549 10.7049H23.0913C23.0325 9.45004 22.8509 8.26088 22.545 7.13222H26.4965C27.0656 8.21912 27.4347 9.4263 27.5549 10.7049ZM27.5536 12.5359H23.08V16.1085H26.4968C27.0692 15.0114 27.4339 13.801 27.5536 12.5359ZM25.2542 5.30123H21.9173C21.4546 4.19722 20.857 3.15532 20.1207 2.17088C22.151 2.65018 23.9371 3.76849 25.2542 5.30123ZM13.8684 5.30123C14.346 4.19222 14.9514 3.14116 15.6775 2.1618C13.6299 2.63292 11.8246 3.7468 10.4984 5.30123H13.8684ZM9.26859 7.13222H13.2119C13.0327 7.74912 12.8906 8.38025 12.7858 9.0232H8.53134C8.7131 8.35912 8.96162 7.72666 9.26859 7.13222ZM10.398 28.2498H12.682L12.1123 25.3684H10.9677L10.398 28.2498ZM20.4166 23.5374H2.66338C2.20437 23.5374 1.83099 23.1641 1.83099 22.705V11.6866C1.83099 11.2276 2.20437 10.8543 2.66338 10.8543H20.4166C20.8756 10.8543 21.249 11.2276 21.249 11.6866V22.705C21.2489 23.1641 20.8756 23.5374 20.4166 23.5374ZM23.0799 17.9395V19.8262C23.9043 19.3045 24.6358 18.6661 25.2583 17.9395H23.0799Z" fill="#204C59"/>
</svg>
