<svg width="141" height="40" viewBox="0 0 141 40" fill="none" xmlns="http://www.w3.org/2000/svg">
<path fill-rule="evenodd" clip-rule="evenodd" d="M115.575 26.9738V1.28718C115.634 1.2784 115.689 1.26815 115.742 1.25833C115.85 1.2383 115.948 1.22006 116.047 1.2198C117.504 1.21561 118.962 1.2126 120.42 1.22372C120.681 1.22568 120.949 1.26847 121.202 1.33467C122.553 1.68713 123.337 2.62362 123.442 4.00206C123.462 4.25619 123.461 4.51207 123.461 4.76753L123.46 4.91723C123.461 5.56094 123.461 6.20465 123.461 6.84835C123.461 8.01404 123.46 9.17974 123.464 10.3454C123.464 10.5167 123.483 10.6878 123.503 10.8661L123.503 10.8663C123.512 10.951 123.522 11.0374 123.53 11.1261C124.248 11.2537 124.764 10.9786 125.181 10.5363C125.446 10.2542 125.675 9.91394 125.833 9.56174C126.15 8.857 126.449 8.14484 126.749 7.43265L126.749 7.43242L126.749 7.43214C126.94 6.97746 127.131 6.52277 127.327 6.06998C127.604 5.42917 127.895 4.79372 128.195 4.16337C128.853 2.78663 129.975 1.9955 131.445 1.60326C132.541 1.31059 133.66 1.20724 134.781 1.12861C135.582 1.07258 136.385 1.04858 137.188 1.02457L137.188 1.02457C137.444 1.0169 137.701 1.00923 137.957 1.00052C138.056 0.997145 138.155 1.01063 138.272 1.02643C138.331 1.03449 138.395 1.04316 138.465 1.0505C138.454 1.78256 138.456 2.50935 138.458 3.23653V3.23673V3.23693V3.23712V3.23732V3.23752V3.23772V3.23792V3.23812V3.23832V3.23876C138.462 4.23709 138.465 5.23618 138.432 6.25066C138.32 6.25838 138.216 6.26627 138.119 6.27371C137.922 6.28873 137.748 6.30193 137.575 6.30823C135.742 6.3756 134.433 7.21751 133.684 8.8775C133.469 9.35483 133.269 9.83878 133.069 10.3226L133.069 10.3229L133.068 10.3232L133.066 10.3299C133.016 10.4487 132.967 10.5676 132.918 10.6864C132.386 11.965 131.57 12.98 130.239 13.5245C130.194 13.5428 130.157 13.58 130.12 13.6164L130.104 13.6322L130.089 13.6462C130.08 13.6544 130.076 13.6677 130.069 13.6913L130.069 13.6914C130.065 13.7061 130.06 13.7246 130.051 13.7484C130.071 13.7654 130.09 13.7862 130.111 13.8079C130.158 13.8569 130.209 13.9101 130.271 13.9335C132.285 14.6909 133.611 16.1852 134.597 17.9873C135.432 19.5136 136.224 21.0629 137.015 22.6122L137.016 22.6131C137.308 23.184 137.599 23.7549 137.893 24.3246C138.205 24.9284 138.507 25.5368 138.81 26.1451L138.81 26.146C138.897 26.3199 138.983 26.4939 139.07 26.6677C139.1 26.7282 139.123 26.7922 139.153 26.8731C139.168 26.9161 139.186 26.9638 139.207 27.0183H130.309C130.23 26.8609 130.151 26.7028 130.072 26.5442L130.072 26.5437L130.072 26.5434L130.071 26.5425L130.071 26.5414L130.07 26.5407L130.07 26.5397L130.069 26.5378L130.068 26.5366L130.068 26.5352C129.888 26.177 129.708 25.8158 129.532 25.4524C129.224 24.816 128.918 24.1788 128.612 23.5416L128.611 23.5399L128.61 23.5372L128.61 23.5368L128.61 23.5365L128.609 23.5362L128.609 23.5358L128.609 23.5355L128.609 23.5352L128.609 23.5348L128.609 23.5345L128.608 23.5341C127.97 22.2046 127.331 20.875 126.678 19.5524C126.369 18.9278 126.004 18.3268 125.621 17.743C125.268 17.2053 124.731 16.9035 124.085 16.8195C123.976 16.8052 123.863 16.8181 123.735 16.8325C123.671 16.8397 123.604 16.8473 123.532 16.8522C123.433 17.6407 123.446 18.4096 123.458 19.1708V19.1711V19.1713V19.1716V19.1719V19.1722V19.1724V19.1727V19.173V19.1732C123.464 19.5204 123.469 19.866 123.464 20.2112C123.453 20.9985 123.455 21.7861 123.458 22.5737L123.458 22.5769C123.459 22.9219 123.461 23.267 123.461 23.612V26.925C122.872 27.0912 116.489 27.1288 115.575 26.9738ZM96.943 12.2324C96.9745 12.245 97.0023 12.2582 97.0277 12.2703C97.0759 12.2933 97.1155 12.3122 97.1557 12.3141C98.3911 12.3714 99.6319 12.422 100.844 12.1414C101.305 12.0347 101.781 11.8389 102.158 11.5615C103.163 10.8212 103.47 9.77947 103.19 8.59715C102.913 7.42725 102.138 6.70938 100.944 6.45962C99.9258 6.24691 98.8962 6.27559 97.8672 6.30426L97.8671 6.30426L97.8671 6.30426L97.867 6.30426L97.8669 6.30426L97.8669 6.30427L97.8668 6.30427L97.8667 6.30427L97.8667 6.30427L97.8666 6.30427C97.6389 6.31062 97.4112 6.31696 97.1836 6.32068C97.1162 6.32177 97.0495 6.36228 96.988 6.39955C96.9611 6.41591 96.9351 6.43164 96.9106 6.44314C96.7758 7.13786 96.797 11.6833 96.943 12.2324ZM96.8251 27.0282H88.8683V1.25763C88.9309 1.25345 88.9948 1.24796 89.0595 1.2424C89.2011 1.23024 89.3468 1.21773 89.4925 1.21773C93.9311 1.21603 98.3697 1.21498 102.808 1.22008C104.009 1.22139 105.183 1.41699 106.323 1.78855C108.518 2.5042 109.975 3.958 110.612 6.14825C111.224 8.2528 111.206 10.3717 110.485 12.4552C109.786 14.4751 108.392 15.8545 106.387 16.6348C105.014 17.1692 103.572 17.3771 102.109 17.4127C101.161 17.4357 100.212 17.433 99.2624 17.4303C98.754 17.4289 98.2456 17.4275 97.7373 17.43C97.5633 17.4309 97.3894 17.4447 97.1969 17.4599C97.1028 17.4674 97.0043 17.4752 96.8992 17.482C96.8903 17.5803 96.8798 17.6735 96.8696 17.7633C96.8489 17.9463 96.8298 18.1151 96.8295 18.2839C96.8254 20.322 96.8254 22.3601 96.8253 24.3981L96.8251 26.1967V27.0282ZM128.109 32.98C127.728 33.1116 127.031 33.121 126.461 32.978C126.363 32.4075 126.343 31.8581 126.48 31.2874C127.044 31.1134 127.586 31.1341 128.119 31.2853C128.522 31.3993 128.746 31.7153 128.759 32.1024C128.772 32.5192 128.541 32.8311 128.109 32.98ZM127.905 36.4122C127.442 36.4426 126.977 36.473 126.534 36.3394C126.341 35.7487 126.342 34.8908 126.537 34.3052C127.173 34.1804 127.829 34.1892 128.475 34.3246C128.963 34.4266 129.196 34.724 129.246 35.1861C129.296 35.6469 129.111 35.9976 128.705 36.2164C128.535 36.308 128.336 36.3867 128.146 36.3972C128.066 36.4016 127.985 36.4069 127.905 36.4122ZM124.823 30.0144C124.767 30.0218 124.712 30.029 124.658 30.0345C124.504 30.7345 124.522 37.1115 124.683 37.6633C125.093 37.6609 125.504 37.6699 125.915 37.6788L125.916 37.6788C127.033 37.7032 128.157 37.7276 129.271 37.5273C129.685 37.4529 130.115 37.2367 130.446 36.9739C131.654 36.0158 131.396 34.2608 129.987 33.6241C129.903 33.5862 129.825 33.5358 129.733 33.4769C129.687 33.4468 129.636 33.4145 129.58 33.3805C129.628 33.3408 129.668 33.3055 129.704 33.274C129.77 33.2165 129.821 33.1716 129.878 33.1353C130.594 32.6811 130.725 32.0047 130.597 31.2469C130.477 30.5376 129.915 30.2726 129.303 30.0948C129.075 30.0283 128.827 30.0044 128.587 30.0011C127.463 29.9858 126.339 29.9815 125.215 29.9807C125.082 29.9806 124.95 29.9979 124.823 30.0144ZM81.2859 31.3545C81.1144 33.0191 80.771 34.6219 80.0853 36.2025C80.8376 36.395 81.5541 36.3616 82.2502 36.3292H82.2502H82.2503H82.2504H82.2505H82.2506H82.2507H82.2508C82.6119 36.3124 82.9675 36.2958 83.3197 36.3112C83.5226 35.7482 83.5374 32.0041 83.3459 31.3562C82.6998 31.2453 82.0349 31.256 81.2859 31.3545ZM85.372 36.2357C85.6314 36.2988 85.8136 36.3433 86.0271 36.3954L86.0644 36.4045V37.5786H77.6871V36.432C77.8442 36.3798 78.0051 36.3265 78.2232 36.2543C79.2394 34.3533 79.4478 32.2327 79.6073 30.0691C79.6741 30.058 79.737 30.045 79.7973 30.0325L79.7974 30.0325L79.7974 30.0325L79.7974 30.0325L79.7974 30.0325L79.7974 30.0325C79.9205 30.0071 80.0328 29.9839 80.1453 29.9834C81.3967 29.9776 82.6481 29.9792 83.8996 29.9808L84.1833 29.9812C84.4973 29.9817 84.7999 30.017 85.0368 30.2592C85.3093 30.5378 85.3124 30.8882 85.3132 31.2378C85.3143 31.7936 85.3144 32.3493 85.3144 32.9051C85.3145 33.7216 85.3146 34.5382 85.3181 35.3547C85.319 35.5426 85.3338 35.7303 85.3497 35.9318L85.3497 35.9321L85.3497 35.9321V35.9322C85.3574 36.0296 85.3653 36.1303 85.372 36.2357ZM94.3629 37.6788C94.4593 37.6784 94.5617 37.678 94.6728 37.678C94.6804 37.5736 94.6884 37.4823 94.6957 37.3996L94.6957 37.3995C94.7094 37.243 94.7205 37.1171 94.7207 36.9911C94.7233 35.0726 94.7232 33.154 94.7193 31.2353C94.7189 31.0403 94.7114 30.8398 94.6675 30.6511C94.5667 30.216 94.3425 30.0201 93.884 29.9913C93.6128 29.9743 93.3404 29.9783 93.0619 29.9824C92.9371 29.9843 92.811 29.9862 92.6833 29.9862L92.499 30.2669C92.2959 30.5764 92.1026 30.8708 91.9091 31.1651C91.824 31.2946 91.7386 31.4241 91.6532 31.5535C91.4856 31.8077 91.318 32.0618 91.1518 32.3169C91.068 32.4456 90.9865 32.5759 90.905 32.7061C90.7426 32.9657 90.5803 33.2253 90.3997 33.4719C90.3259 33.5727 90.2621 33.6819 90.197 33.7936L90.1969 33.7936L90.1969 33.7937C90.0324 34.0756 89.8584 34.3737 89.4881 34.5959C89.479 34.4925 89.4689 34.3983 89.4594 34.3102C89.4408 34.1359 89.4247 33.9854 89.4235 33.835C89.4207 33.4613 89.4215 33.0877 89.4224 32.7141C89.4234 32.2592 89.4245 31.8044 89.4188 31.3497C89.4156 31.0905 89.3909 30.8256 89.3283 30.5749C89.2555 30.2845 89.0638 30.0584 88.7451 30.0172C88.7134 30.0131 88.6816 30.0087 88.6498 30.0044C88.3372 29.9617 88.018 29.9181 87.732 30.1005C87.5876 31.0252 87.634 37.1364 87.7982 37.6395H89.447C89.4982 37.563 89.5494 37.4874 89.6003 37.4123L89.6004 37.4121C89.7099 37.2505 89.8179 37.0911 89.921 36.9285C90.279 36.364 90.6363 35.7991 90.9936 35.2342L90.9937 35.234L90.9939 35.2338L90.994 35.2337L90.9941 35.2335L90.9942 35.2333L90.9955 35.2313L90.9967 35.2293L90.9969 35.229L90.9971 35.2288L90.9972 35.2285L90.9974 35.2283C91.4808 34.464 91.9642 33.6998 92.4494 32.9367C92.4643 32.9132 92.4781 32.8877 92.4922 32.8619C92.5688 32.7211 92.6524 32.5674 92.9626 32.6368C92.9626 32.8772 92.962 33.1188 92.9615 33.3612V33.3637V33.3662V33.3687V33.3712V33.3737C92.9603 33.9424 92.959 34.5156 92.9643 35.0887C92.9667 35.3498 92.9639 35.6112 92.9611 35.8737V35.8737V35.8738V35.8738V35.8739V35.874V35.874C92.955 36.4555 92.9488 37.0423 92.9985 37.6427C93.102 37.6473 93.1968 37.6519 93.2854 37.6562H93.2855C93.4779 37.6655 93.6417 37.6735 93.8058 37.6768C93.9823 37.6804 94.1589 37.6797 94.3618 37.6788H94.362H94.3622H94.3623H94.3625H94.3627H94.3629ZM76.6414 26.9415C75.9422 27.079 69.5489 27.1161 68.736 26.9949C68.7319 26.9539 68.7265 26.9117 68.721 26.8688C68.7088 26.7732 68.696 26.6739 68.696 26.5746C68.6956 23.8817 68.6958 21.1888 68.696 18.496C68.6963 15.1299 68.6966 11.7638 68.6956 8.39761C68.6956 8.21077 68.6807 8.02394 68.6642 7.8184L68.6642 7.81837L68.6642 7.8183L68.6642 7.81821C68.6561 7.71651 68.6476 7.61023 68.6404 7.49709C68.5553 7.48416 68.4734 7.46849 68.3938 7.45325L68.3938 7.45325C68.2285 7.42163 68.0727 7.39182 67.917 7.3919C66.2805 7.3925 64.644 7.3996 63.0075 7.40671L63.0073 7.40671C62.4804 7.409 61.9535 7.41129 61.4266 7.41336C61.2133 7.41427 61 7.41404 60.7929 7.41382H60.7927L60.5259 7.41362C60.367 6.88232 60.3397 2.03226 60.4861 1.26153C60.5469 1.25708 60.6092 1.25123 60.6726 1.24527L60.6726 1.24527L60.6726 1.24527L60.6727 1.24527L60.6727 1.24527L60.6727 1.24527C60.814 1.232 60.9608 1.21823 61.1076 1.21823C67.9742 1.21587 74.8408 1.21417 81.7074 1.22241C82.0555 1.22281 82.4119 1.27946 82.75 1.36528C84.0137 1.6866 84.7215 2.55833 84.8361 3.78566C84.9113 4.59042 84.8938 5.40361 84.8758 6.23787V6.23788V6.2379V6.23792V6.23794V6.23796C84.8677 6.61062 84.8596 6.98748 84.8596 7.36966C84.713 7.37498 84.5671 7.38182 84.4217 7.38864L84.4217 7.38865C84.1094 7.40329 83.7993 7.41783 83.4891 7.41702C82.4624 7.41444 81.4357 7.40882 80.409 7.4032C79.4048 7.3977 78.4006 7.3922 77.3964 7.38955C77.2542 7.3892 77.1119 7.41014 76.9523 7.43363C76.8722 7.44542 76.7877 7.45786 76.6966 7.46857C76.6901 7.58787 76.6822 7.70237 76.6745 7.81363V7.81365V7.81369V7.8137L76.6745 7.81403L76.6745 7.8143V7.81433V7.81435V7.81438V7.8144V7.81441C76.6588 8.04231 76.644 8.25665 76.6439 8.471C76.6412 13.4894 76.6412 18.5078 76.6413 23.5262L76.6414 26.125V26.9415ZM138.119 32.1078C138.423 32.6609 138.505 33.2561 138.474 33.8776C138.5 34.4715 138.403 35.0396 138.084 35.5629C137.318 36.8194 135.618 36.8662 134.801 35.6486C134.15 34.6775 134.163 32.8672 134.828 31.9184C135.658 30.734 137.42 30.8363 138.119 32.1078ZM139.403 36.7273C140.188 35.9216 140.427 34.9265 140.431 33.8494C140.437 31.256 138.958 29.7877 136.337 29.7863L136.309 29.7861C136.274 29.7858 136.239 29.7856 136.204 29.7877C134.891 29.8726 133.7 30.2434 133.009 31.4404C132.137 32.9487 132.139 34.5258 132.933 36.0637C134.137 38.3985 138.104 38.2073 139.359 36.7754C139.373 36.7591 139.388 36.7429 139.403 36.7273ZM74.9008 33.7908C74.8637 33.639 74.8322 33.4837 74.8006 33.3278C74.7299 32.9789 74.6585 32.6265 74.5212 32.3011C74.1891 31.5134 73.5721 31.0815 72.6615 31.1122C71.7788 31.1422 71.2103 31.6067 70.9112 32.3725C70.534 33.3385 70.5359 34.3342 70.9344 35.2985C71.2534 36.0704 71.8584 36.5041 72.7141 36.5347C73.5065 36.5627 74.2453 36.0776 74.5456 35.2805C74.6644 34.9655 74.7301 34.6309 74.7986 34.2823C74.8303 34.1213 74.8625 33.9573 74.9008 33.7908ZM68.6447 33.7885C68.682 33.6092 68.7127 33.4275 68.7433 33.2459C68.8104 32.8486 68.8774 32.4513 69.0139 32.079C69.6133 30.4438 70.949 29.8385 72.5922 29.8012C73.1765 29.7878 73.7878 29.8832 74.3471 30.0545C75.4746 30.3999 76.2178 31.177 76.5451 32.3044C76.8434 33.3321 76.8511 34.3706 76.5196 35.3925C76.168 36.477 75.4487 37.2304 74.3378 37.5812C73.2559 37.9227 72.158 37.9397 71.0875 37.5685C69.6131 37.0574 68.9239 35.9338 68.7474 34.4555C68.7297 34.3077 68.7253 34.1584 68.7209 34.0091C68.7189 33.9407 68.7169 33.8723 68.7136 33.8041C68.6907 33.7989 68.6677 33.7936 68.6447 33.7885ZM120.401 31.9002C120.819 32.4754 120.901 33.1408 120.936 33.8304C120.894 34.4521 120.837 35.076 120.463 35.626C119.598 36.8981 117.808 36.8378 117.115 35.468C116.54 34.3295 116.565 33.137 117.196 32.0236C117.887 30.804 119.575 30.7616 120.401 31.9002ZM122.821 34.2702L122.821 34.2699C122.828 34.1739 122.834 34.0865 122.843 34.0118C122.836 33.8621 122.832 33.7302 122.828 33.6101C122.821 33.3827 122.815 33.1976 122.796 33.014C122.634 31.4568 121.617 30.3036 120.076 29.9427C119.181 29.7333 118.283 29.7395 117.396 29.9899C116.148 30.3423 115.347 31.1492 115.004 32.377C114.728 33.3625 114.737 34.366 115.033 35.3424C115.37 36.4538 116.106 37.2238 117.24 37.5892C118.098 37.8653 118.972 37.8893 119.853 37.7307C121.378 37.4564 122.329 36.5617 122.709 35.0907C122.782 34.8078 122.803 34.5119 122.821 34.2703V34.2702ZM113.732 36.5111V37.5715C113.187 37.7 106.836 37.7277 106.115 37.6143C105.965 37.1607 105.929 30.8522 106.08 30.0499C106.121 30.0432 106.164 30.0347 106.207 30.026C106.304 30.0067 106.405 29.9864 106.506 29.9837C107.513 29.9579 107.832 30.2456 107.842 31.2351C107.849 31.9995 107.849 32.7639 107.848 33.5284C107.847 34.1576 107.847 34.7868 107.851 35.4159C107.852 35.6153 107.875 35.8145 107.899 36.0262L107.899 36.0265C107.911 36.1283 107.923 36.233 107.933 36.342H111.038C111.049 36.2469 111.063 36.1546 111.076 36.0641C111.103 35.8731 111.13 35.6904 111.131 35.5075C111.136 34.5609 111.136 33.6142 111.136 32.6676C111.136 32.0681 111.136 31.4687 111.137 30.8693C111.137 30.6943 111.147 30.5193 111.158 30.3418L111.158 30.3416C111.162 30.2587 111.167 30.1752 111.171 30.0908C111.549 29.9236 111.9 29.9579 112.241 30.0265C112.66 30.1103 112.867 30.4174 112.944 30.8049C112.979 30.9863 112.979 31.1756 112.978 31.363C112.978 31.3939 112.978 31.4248 112.978 31.4555C112.98 32.4521 112.98 33.4486 112.98 34.4451L112.98 35.4405L112.98 35.9199L112.98 36.2034L113.732 36.5111ZM102.013 37.6364H103.84C103.84 37.3518 103.841 37.1376 103.84 36.9236C103.84 36.3681 103.84 35.8126 103.84 35.257C103.841 33.9602 103.841 32.6634 103.836 31.3667C103.831 30.1798 103.51 29.8957 102.314 29.9955C102.26 30.0001 102.206 30.0187 102.143 30.0406C102.111 30.0519 102.076 30.0641 102.037 30.0756C101.971 30.4988 101.981 30.9261 101.991 31.3492C102.003 31.8276 102.014 32.3007 101.915 32.7561C101.148 32.9304 99.3312 32.9058 98.7779 32.7147C98.7716 32.6526 98.7642 32.5882 98.7565 32.5222C98.7386 32.3678 98.7196 32.2045 98.7132 32.0407C98.7062 31.8585 98.7049 31.6761 98.7036 31.4936C98.7021 31.2838 98.7006 31.074 98.6904 30.8647C98.6742 30.5312 98.6073 30.2109 98.2435 30.0233H96.976C96.818 30.6132 96.8175 37.0453 96.9738 37.6394H98.6807C98.7203 37.1158 98.7138 36.5979 98.7073 36.087C98.6998 35.4915 98.6923 34.9054 98.7583 34.3305C99.3907 34.1242 101.315 34.1273 101.961 34.3435L102.013 37.6364Z" fill="black"/>
<ellipse cx="41.1208" cy="13.6842" rx="13.8738" ry="13.6842" fill="url(#paint0_linear)"/>
<path fill-rule="evenodd" clip-rule="evenodd" d="M42.6327 5.19123C41.749 4.42585 40.4024 4.45913 39.559 5.29106L39.4578 5.39757C38.6818 6.2692 38.7155 7.59735 39.559 8.42929L42.637 11.4652H33.6214L33.4892 11.4689C32.3082 11.5364 31.3716 12.5024 31.3716 13.6842C31.3716 14.9098 32.3789 15.9033 33.6214 15.9033H42.58L39.559 18.883L39.4578 18.9895C38.6818 19.8611 38.7155 21.1893 39.559 22.0212C40.4376 22.8878 41.8621 22.8878 42.7407 22.0212L49.6308 15.2253L49.732 15.1187C50.508 14.2471 50.4742 12.919 49.6308 12.087L42.7407 5.29106L42.6327 5.19123Z" fill="white"/>
<ellipse cx="21.3778" cy="30" rx="10.1385" ry="10" fill="url(#paint1_linear)"/>
<path fill-rule="evenodd" clip-rule="evenodd" d="M22.4019 23.455C21.7982 22.9353 20.881 22.9496 20.294 23.5088L20.2012 23.6051C19.6743 24.2006 19.6888 25.1052 20.2557 25.6842L23.1361 28.6256H15.3151L15.1987 28.6298C14.3917 28.6885 13.7554 29.353 13.7554 30.1641C13.7554 31.0137 14.4537 31.7025 15.3151 31.7025H23.1872L20.2557 34.6967L20.1663 34.7961C19.6607 35.4093 19.707 36.3129 20.294 36.8721C20.9137 37.4624 21.9011 37.4455 22.4996 36.8343L27.9588 31.2592L28.0507 31.1568C28.5408 30.5591 28.5101 29.6847 27.9588 29.1217L22.4996 23.5466L22.4019 23.455Z" fill="white"/>
<ellipse cx="6.97017" cy="17.8946" rx="6.40328" ry="6.31579" fill="url(#paint2_linear)"/>
<path d="M7.68796 13.6902L7.77337 13.7671L10.8098 16.7938C11.2118 17.1944 11.2438 17.8222 10.9011 18.259L10.8275 18.3437L7.79105 21.5098C7.36219 21.957 6.647 21.9766 6.19362 21.5536C5.76859 21.157 5.72456 20.5122 6.07409 20.0647L6.14925 19.978L7.4342 18.6378H3.58018C2.95611 18.6378 2.4502 18.1388 2.4502 17.5232C2.4502 16.9439 2.89834 16.4678 3.47136 16.4138L3.58018 16.4087H7.24361L6.16694 15.335C5.75541 14.9248 5.733 14.279 6.09732 13.8431L6.17534 13.7588C6.5635 13.38 7.15979 13.3355 7.59687 13.6234L7.68796 13.6902Z" fill="white"/>
<defs>
<linearGradient id="paint0_linear" x1="22.1692" y1="14.1484" x2="42.1599" y2="32.5638" gradientUnits="userSpaceOnUse">
<stop stop-color="#12A1D9"/>
<stop offset="1" stop-color="#67D5FF"/>
</linearGradient>
<linearGradient id="paint1_linear" x1="7.5285" y1="30.3392" x2="22.1371" y2="43.7966" gradientUnits="userSpaceOnUse">
<stop stop-color="#8DB91C"/>
<stop offset="1" stop-color="#E4ED17"/>
</linearGradient>
<linearGradient id="paint2_linear" x1="-1.77675" y1="18.1089" x2="7.44973" y2="26.6083" gradientUnits="userSpaceOnUse">
<stop stop-color="#F7A202"/>
<stop offset="1" stop-color="#FFB633"/>
</linearGradient>
</defs>
</svg>
