<svg width="19" height="18" fill="none" xmlns="http://www.w3.org/2000/svg"><path fill-rule="evenodd" clip-rule="evenodd" d="M17 1H2a1 1 0 00-1 1v14a1 1 0 001 1h15a1 1 0 001-1V2a1 1 0 00-1-1zM2 0a2 2 0 00-2 2v14a2 2 0 002 2h15a2 2 0 002-2V2a2 2 0 00-2-2H2z" fill="currentColor"/><path fill-rule="evenodd" clip-rule="evenodd" d="M18.5 4H.5V3h18v1zM3 7.5a.5.5 0 01.5-.5h9a.5.5 0 010 1h-9a.5.5 0 01-.5-.5zM3 10.5a.5.5 0 01.5-.5h9a.5.5 0 010 1h-9a.5.5 0 01-.5-.5zM3 13.5a.5.5 0 01.5-.5h9a.5.5 0 010 1h-9a.5.5 0 01-.5-.5zM13 3V1h1v2h-1z" fill="currentColor"/></svg>
