<svg width="78" height="64" viewBox="0 0 78 64" fill="none" xmlns="http://www.w3.org/2000/svg">
<g opacity="0.6">
<path fill-rule="evenodd" clip-rule="evenodd" d="M40.2384 1.00001L39.9534 0.722168L39.6825 1.00001H27H25.0532H0V28H25.0532H27H40.652L40.7616 28.1139L40.8799 28H50.1064H52.0532H77.1064V1.00001H52.0532H50.1064H40.2384ZM37.7327 3.00001H27.053V26H38.7258L33.695 20.7763H33.617V20.6953L27.0895 13.9174L37.7327 3.00001ZM41.5025 26L35.617 19.8885V8.03469L40.5258 3.00001H50.053V26H41.5025ZM29.874 13.925L33.617 10.086V17.8117L29.874 13.925ZM3.41421 3.00001H25V24.5858L3.41421 3.00001ZM23.5858 26H2V4.41423L23.5858 26ZM43.34 47.01C43.07 47.47 42.24 48.18 40.76 48.18C38.66 48.18 37.25 46.69 37.25 44.56C37.25 42.17 38.84 40.76 40.89 40.76C42.02 40.76 43.44 41.2 44.16 42.81L43.18 43.06C42.88 42.1 42.03 41.54 40.92 41.54C39.1 41.54 38.29 43 38.29 44.45C38.29 46.47 39.55 47.36 40.9 47.36C42.2 47.36 43.34 46.56 43.34 45.16V45.06H40.88V44.27H44.16V48H43.34V47.01ZM1.67 48C1.67 47.86 1.58 42.26 1.58 42.26L5.45 48H6.3V40.94H5.45L5.45093 41.1214C5.45694 42.1041 5.49 46.6 5.49 46.6L1.67 40.94H0.78V48H1.67ZM9.61 48V45.54L10.61 44.52L13.09 48H14.24L11.26 43.86L14.12 40.94H12.96L9.61 44.39V40.94H8.67V48H9.61ZM16.68 44.77V48H15.75V40.94H16.68V43.94H20.52V40.94H21.47V48H20.52V44.77H16.68ZM29.27 48C31.82 48 32.54 46.24 32.54 44.48C32.54 42.13 31.24 40.94 29.54 40.94H26.74V48H29.27ZM27.71 47.18H29.38C30.84 47.18 31.58 46.14 31.58 44.47C31.58 42.94 30.93 41.77 29.33 41.77H27.71V47.18ZM35.37 40.94H34.42V48H35.37V40.94ZM47.41 40.94H46.46V48H47.41V40.94ZM51.75 41.76V48H50.81V41.76H48.69V40.94H53.86V41.76H51.75ZM54.57 48L55.36 45.84H58.0501L58.8201 48H59.8101L57.2401 40.94H56.26L53.57 48H54.57ZM55.66 45.05H57.77L56.74 42.1L55.66 45.05ZM65.47 48V47.16H62.05V40.94H61.11V48H65.47ZM5.59 62.42C5.2 62.8 4.56 63.18 3.36 63.18C3.13 63.18 2.17 63.17 1.43 62.69C0.504007 62.0891 0.402871 61.0709 0.371384 60.7539L0.37 60.74L1.38 60.61C1.39 60.89 1.45 62.44 3.41 62.44C4 62.44 5.17 62.21 5.17 61.03C5.17 60.24 4.59 60.01 3.83 59.86L3.19 59.73C1.6 59.41 0.71 58.9 0.71 57.72C0.71 57.16 0.96 56.69 1.38 56.34C2.06 55.78 2.87 55.76 3.21 55.76C3.91 55.76 4.59 55.85 5.16 56.29C5.78 56.76 5.94 57.27 6.06 57.93L5.11 57.99C5.11 57.59 4.89 56.49 3.29 56.49C2.62 56.49 1.68 56.73 1.68 57.6C1.68 58.28 2.29 58.52 3.09 58.71L4.38 59.02L4.40224 59.0254C4.771 59.114 6.18 59.4525 6.18 60.97C6.18 61.25 6.14 61.88 5.59 62.42ZM10.14 63V56.76H12.25V55.94H7.08V56.76H9.2V63H10.14ZM19 60.67C19 61.95 18.15 63.18 16.27 63.18C14.51 63.18 13.65 62.09 13.65 60.77V55.94H14.59V60.61C14.59 61.57 15.03 62.38 16.28 62.38C17.61 62.38 18.05 61.48 18.05 60.48V55.94H19V60.67ZM24 63C26.55 63 27.27 61.24 27.27 59.48C27.27 57.13 25.97 55.94 24.27 55.94H21.47V63H24ZM22.44 62.18H24.1101C25.5701 62.18 26.3101 61.14 26.3101 59.47C26.3101 57.94 25.6601 56.77 24.06 56.77H22.44V62.18ZM30.1 63V55.94H29.15V63H30.1ZM39.1 59.41C39.1 61.13 38.16 63.18 35.52 63.18C33.69 63.18 31.99 61.99 31.99 59.46C31.99 56.88 33.74 55.76 35.55 55.76C37.7 55.76 39.1 57.27 39.1 59.41ZM35.57 62.44C33.98 62.44 33.01 61.29 33.01 59.47C33.01 58 33.68 56.52 35.55 56.52C37.45 56.52 38.08 58.01 38.08 59.41C38.08 61.5 36.97 62.44 35.57 62.44ZM75.106 3.00001H52.106V13.5H75.106V3.00001ZM75.106 15.5H52.106V26H75.106V15.5Z" fill="#204C59"/>
</g>
</svg>
