<svg width="44" height="32" viewBox="0 0 44 32" fill="none" xmlns="http://www.w3.org/2000/svg">
<path fill-rule="evenodd" clip-rule="evenodd" d="M9 31.949V32H33C39.075 32 44 27.075 44 21C44 14.925 39.075 10 33 10C32.9675 10 32.9362 10.0023 32.9048 10.0045C32.8772 10.0065 32.8495 10.0085 32.821 10.009C31.871 4.331 26.947 0 21 0C14.373 0 9 5.373 9 12C9 12.009 9.0005 12.0173 9.001 12.0255C9.0015 12.0338 9.002 12.042 9.002 12.051C3.948 12.551 0 16.813 0 22C0 27.186 3.947 31.447 9 31.949ZM32.007 12.06C32.333 12.021 32.664 12 33 12C37.971 12 42 16.029 42 21C42 25.971 37.971 30 33 30H9V29.931C5.055 29.438 2 26.079 2 22C2 17.582 5.582 14 10 14C10.0158 14 10.0312 14.0021 10.0465 14.0041C10.0594 14.0058 10.0722 14.0075 10.085 14.008L10.089 13.994C10.628 13.979 11.062 13.543 11.062 13C11.062 12.9752 11.0557 12.9523 11.0493 12.9296C11.0447 12.9129 11.0401 12.8963 11.038 12.879L11.048 12.876C11.021 12.587 11 12.297 11 12C11 6.477 15.477 2 21 2C26.209 2 30.483 5.983 30.953 11.071L30.971 11.073C30.976 11.62 31.42 12.063 31.969 12.063C31.9759 12.063 31.982 12.061 31.9882 12.059C31.9935 12.0572 31.9989 12.0555 32.005 12.055L32.007 12.06ZM17.924 20.4163C18.8693 19.4131 20.4826 19.4747 21.3488 20.547C23.0346 22.6343 26.2041 22.6705 27.9372 20.6223L28.7634 19.6459L27.2366 18.354L26.4104 19.3304C25.4882 20.4203 23.8017 20.401 22.9046 19.2904C21.2769 17.2751 18.245 17.1594 16.4684 19.0447L15.2722 20.3141L16.7278 21.6857L17.924 20.4163Z" fill="#2175AA"/>
</svg>
