<svg width="42" height="42" viewBox="0 0 42 42" fill="none" xmlns="http://www.w3.org/2000/svg">
<path fill-rule="evenodd" clip-rule="evenodd" d="M41.906 22.9994C41.9682 22.3411 42 21.6742 42 21C42 9.401 32.598 0 21 0C9.402 0 0 9.401 0 21C0 21.6742 0.0318 22.3411 0.0940041 22.9993L10.8582 22.4858L10.8591 22.4872L0.0941942 23.0013L0.09592 23.0195L0.0958847 23.0196C0.0949617 23.0232 0.0940001 23.0268 0.0940001 23.031C0.0940001 23.1096 0.103072 23.1862 0.12023 23.2596C0.257704 24.5439 0.511044 25.7942 0.869772 26.9995C3.45121 35.6733 11.4855 42 21 42C30.5145 42 38.5488 35.6733 41.1302 26.9995C41.4888 25.7948 41.7421 24.5451 41.8796 23.2614C41.8969 23.1877 41.906 23.1109 41.906 23.032C41.906 23.0278 41.905 23.0242 41.9041 23.0206L41.904 23.0202L41.9056 23.0034C41.9058 23.0022 41.906 23.0011 41.906 23L41.906 22.9994ZM16.0398 22.2398C16.7466 24.6408 17.2692 25.5046 17.288 25.533C18.72 27.89 21.893 28.697 24.373 27.337C26.4731 26.1854 27.4057 23.8477 26.7721 21.7273L39.9991 21.0956C39.9955 21.2941 39.9813 21.4896 39.9671 21.6854V21.6855V21.6856L39.9671 21.6857L39.9671 21.6858L39.9671 21.6859C39.9595 21.7904 39.952 21.8949 39.946 22H32C31.447 22 31 22.447 31 23C31 23.552 31.447 24 32 24C32 24 37.3551 24.0186 39.7603 24.0275C39.6291 24.8469 39.4456 25.6486 39.2133 26.429C36.8773 34.2781 29.6056 40 21 40C12.3944 40 5.12267 34.2781 2.78668 26.429C2.55436 25.6484 2.37082 24.8466 2.23966 24.027L10 24C10.553 24 11 23.552 11 23C11 22.8124 10.9486 22.6371 10.8591 22.4872L16.0398 22.2398ZM16.0394 22.2386C15.4275 20.1597 14.6776 16.929 13.997 12.091L14.048 12.173C13.959 11.769 14.131 11.343 14.523 11.128C14.916 10.912 15.388 10.984 15.712 11.261L15.662 11.178C24.436 17.598 26.239 20.551 26.272 20.606C26.4914 20.9669 26.6572 21.3431 26.7719 21.7265L24.6077 21.8298C24.5701 21.7532 24.5288 21.6778 24.484 21.604L24.4832 21.6028C24.4397 21.5379 22.8557 19.175 16.422 14.256C17.0378 18.0128 17.6746 20.5317 18.1712 22.1369L16.0394 22.2386ZM18.1715 22.138L16.0398 22.2398L16.0394 22.2386L10.8582 22.4858C10.6835 22.1946 10.3648 22 10 22H2.053C2.0471 21.8905 2.03937 21.7816 2.03164 21.6728L2.03164 21.6728C2.01581 21.4498 2 21.2272 2 21C2 10.507 10.507 2 21 2C31.493 2 40 10.507 40 21C40 21.0319 39.9997 21.0637 39.9991 21.0955L26.7719 21.7265L26.7721 21.7273L24.6081 21.8306L24.6077 21.8298L18.1712 22.1369L18.1715 22.138ZM24.6081 21.8306C24.9125 22.4511 24.9792 23.1562 24.787 23.836C24.572 24.599 24.057 25.235 23.337 25.63C22.864 25.89 22.327 26.027 21.785 26.027C20.675 26.027 19.641 25.46 19.086 24.549L19.0858 24.5486C19.0741 24.5275 18.7033 23.8567 18.1715 22.138L24.6081 21.8306ZM39.9991 21.0955V21.0956L42 21L39.9991 21.0955ZM21.5 7C22.3284 7 23 6.32843 23 5.5C23 4.67157 22.3284 4 21.5 4C20.6716 4 20 4.67157 20 5.5C20 6.32843 20.6716 7 21.5 7ZM36 13.5C36 14.3284 35.3284 15 34.5 15C33.6716 15 33 14.3284 33 13.5C33 12.6716 33.6716 12 34.5 12C35.3284 12 36 12.6716 36 13.5ZM7.5 15C8.32843 15 9 14.3284 9 13.5C9 12.6716 8.32843 12 7.5 12C6.67157 12 6 12.6716 6 13.5C6 14.3284 6.67157 15 7.5 15Z" fill="#2175AA"/>
</svg>
