<svg width="40" height="48" viewBox="0 0 40 48" fill="none" xmlns="http://www.w3.org/2000/svg">
<path fill-rule="evenodd" clip-rule="evenodd" d="M19.73 47.9448C19.818 47.9688 19.909 47.9818 20 47.9818C20.091 47.9818 20.182 47.9688 20.269 47.9448C37.771 43.0418 39.902 32.2808 39.984 31.8258C39.995 31.7668 40 31.7078 40 31.6478V2.02475C40 1.62075 39.757 1.25575 39.383 1.10075C39.009 0.94575 38.579 1.03175 38.293 1.31775C36.064 3.54475 33.11 4.77275 29.975 4.77275C26.401 4.77275 23.056 3.16275 20.796 0.35475C20.415 -0.11825 19.585 -0.11825 19.204 0.35475C16.944 3.16275 13.598 4.77275 10.024 4.77275C6.89 4.77275 3.936 3.54575 1.707 1.31775C1.421 1.03175 0.991 0.94675 0.617 1.10075C0.243 1.25575 0 1.62075 0 2.02475V31.6478C0 31.7078 0.00500003 31.7668 0.016 31.8258C0.098 32.2808 2.228 43.0418 19.73 47.9448ZM4.954 36.9998C2.719 34.2718 2.101 31.9728 2 31.5428V4.18575C4.327 5.86675 7.109 6.77275 10.024 6.77275C13.821 6.77275 17.397 5.22175 20 2.48075C22.603 5.22175 26.178 6.77275 29.975 6.77275C32.891 6.77275 35.673 5.86675 38 4.18575V31.5417C37.898 31.9807 37.277 34.2778 35.045 36.9998C32.773 39.7698 28.324 43.5557 20 45.9427C11.675 43.5567 7.226 39.7708 4.954 36.9998ZM18.4815 19.9098L20.0001 15.236L21.5187 19.9098L22.4697 20.6007H27.384L23.4083 23.4893L23.045 24.6073L24.5636 29.2811L20.5879 26.3925H19.4123L15.4366 29.2811L16.9552 24.6073L16.5919 23.4893L12.6162 20.6007H17.5304L18.4815 19.9098ZM19.049 11.6909L16.8039 18.6007H9.53847L8.95068 20.4098L14.8285 24.6803L12.5834 31.5901L14.1222 32.7081L20.0001 28.4376L25.8779 32.7081L27.4168 31.5901L25.1716 24.6803L31.0495 20.4098L30.4617 18.6007H23.1963L20.9511 11.6909H19.049Z" fill="#2175AA"/>
</svg>
