<svg width="42" height="44" viewBox="0 0 42 44" fill="none" xmlns="http://www.w3.org/2000/svg">
<path fill-rule="evenodd" clip-rule="evenodd" d="M32 20H10C4.477 20 0 15.523 0 10C0 4.477 4.477 0 10 0H32C37.522 0 42 4.477 42 10C42 15.523 37.522 20 32 20ZM32 2H10C5.582 2 2 5.582 2 10C2 14.418 5.582 18 10 18H32C36.418 18 40 14.418 40 10C40 5.582 36.418 2 32 2ZM10 16C6.687 16 4 13.314 4 10C4 6.687 6.687 4 10 4C13.313 4 16 6.687 16 10C16 13.314 13.313 16 10 16ZM10 6C7.791 6 6 7.791 6 10C6 12.209 7.791 14 10 14C12.209 14 14 12.209 14 10C14 7.791 12.209 6 10 6ZM10 24H32C37.522 24 42 28.478 42 34C42 39.522 37.522 44 32 44H10C4.477 44 0 39.522 0 34C0 28.478 4.477 24 10 24ZM10 42H32C36.418 42 40 38.418 40 34C40 29.582 36.418 26 32 26H10C5.582 26 2 29.582 2 34C2 38.418 5.582 42 10 42ZM32 28C35.313 28 38 30.687 38 34C38 37.313 35.313 40 32 40C28.687 40 26 37.313 26 34C26 30.687 28.687 28 32 28ZM32 38C34.209 38 36 36.209 36 34C36 31.791 34.209 30 32 30C29.791 30 28 31.791 28 34C28 36.209 29.791 38 32 38ZM29 9H33V11H29V9ZM13 33H9V35H13V33Z" fill="#2175AA"/>
</svg>
