<svg width="22" height="31" viewBox="0 0 22 31" fill="none" xmlns="http://www.w3.org/2000/svg">
<path fill-rule="evenodd" clip-rule="evenodd" d="M3.69998 0.0808105H18.7078C20.5113 0.0808105 21.9785 1.54807 21.9785 3.35159V26.81C21.9785 28.6136 20.5112 30.0808 18.7077 30.0808H3.69998C1.89646 30.0808 0.429199 28.6136 0.429199 26.81V3.35159C0.429199 1.54807 1.89646 0.0808105 3.69998 0.0808105ZM20.1476 6.13752H2.26019V23.6287H20.1476V6.13752ZM3.69998 1.9118H18.7077C19.5016 1.9118 20.1476 2.55772 20.1476 3.35159V4.30652H2.26019V3.35159C2.26019 2.55772 2.90611 1.9118 3.69998 1.9118ZM18.7078 28.2499C19.5016 28.2499 20.1476 27.604 20.1476 26.8101V25.4597H2.26019V26.8101C2.26019 27.604 2.90611 28.2499 3.69998 28.2499H18.7078ZM11.2044 8.40083H11.2034C7.5202 8.40111 4.52386 11.3977 4.52386 15.0808C4.52386 18.7642 7.52048 21.7609 11.2038 21.7609C14.8871 21.7609 17.8837 18.7642 17.8837 15.0808C17.8838 11.3977 14.8875 8.40111 11.2044 8.40083ZM15.965 14.1654H14.4565C14.3382 12.9897 13.9913 11.8332 13.4161 10.7681C14.7193 11.4394 15.6805 12.683 15.965 14.1654ZM11.2039 10.7058C10.4189 11.7385 9.94859 12.9356 9.79309 14.1654H12.6147C12.4592 12.9356 11.9888 11.7386 11.2039 10.7058ZM12.6147 15.9963C12.4592 17.2261 11.9889 18.4232 11.2039 19.4559C10.4189 18.4231 9.94859 17.2261 9.79309 15.9963H12.6147ZM7.95126 14.1654C8.0695 12.9897 8.41647 11.8332 8.99161 10.7681C7.68844 11.4394 6.72724 12.683 6.44273 14.1654H7.95126ZM6.44273 15.9963H7.95126C8.06957 17.172 8.41647 18.3285 8.99161 19.3936C7.68844 18.7223 6.72724 17.4787 6.44273 15.9963ZM14.4565 15.9963C14.3382 17.172 13.9913 18.3285 13.4161 19.3936C14.7193 18.7223 15.6805 17.4787 15.965 15.9963H14.4565ZM8.99084 26.856C8.99084 26.3504 9.4007 25.9405 9.90633 25.9405H12.5014C13.007 25.9405 13.4169 26.3504 13.4169 26.856C13.4169 27.3616 13.007 27.7715 12.5014 27.7715H9.90633C9.4007 27.7715 8.99084 27.3616 8.99084 26.856Z" fill="#204C59"/>
</svg>
