<svg width="137" height="62" viewBox="0 0 137 62" fill="none" xmlns="http://www.w3.org/2000/svg">
<path d="M67.0052 37.0303H70.4731C72.227 37.0303 73.5025 37.9471 73.5025 39.5415C73.5025 40.4583 73.064 41.2156 72.3067 41.6142V41.6541C73.3829 41.973 73.9011 42.9695 73.9011 43.966C73.9011 45.9191 72.3465 46.7961 70.5528 46.7961H67.0052V37.0303ZM70.513 41.0163C71.2703 41.0163 71.7088 40.4583 71.7088 39.7806C71.7088 39.103 71.2703 38.5848 70.4731 38.5848H68.799V41.0562H70.513V41.0163ZM70.6724 45.2814C71.5892 45.2814 72.1074 44.6835 72.1074 43.8464C72.1074 43.0492 71.5892 42.4513 70.6724 42.4513H68.7591V45.2814H70.6724ZM78.7641 39.6212C79.7207 39.6212 80.7969 39.9401 81.4746 40.6576L80.6774 41.8534C80.2389 41.4149 79.5613 41.096 78.8438 41.096C77.5682 41.096 76.7312 42.0527 76.7312 43.2485C76.7312 44.4443 77.5682 45.4408 78.9235 45.4408C79.6808 45.4408 80.478 45.0422 80.9962 44.5639L81.6739 45.7996C80.9962 46.517 79.92 46.9555 78.8039 46.9555C76.492 46.9555 74.9773 45.3212 74.9773 43.2884C74.9773 41.2953 76.4522 39.6212 78.7641 39.6212ZM85.8592 39.6212C87.8522 39.6212 88.9683 41.096 88.9683 42.9296C88.9683 43.1688 88.9285 43.3681 88.9285 43.6072H84.1053C84.2249 44.8429 85.1417 45.4807 86.2179 45.4807C86.9354 45.4807 87.6529 45.1618 88.211 44.7233L88.8886 45.959C88.1711 46.5968 87.055 46.9555 86.0585 46.9555C83.7466 46.9555 82.2718 45.2814 82.2718 43.2884C82.3116 41.1359 83.7865 39.6212 85.8592 39.6212ZM83.8662 37.0303H85.2214V38.6247H83.8662V37.0303ZM87.2144 42.4114C87.2144 41.4946 86.5767 40.9366 85.8193 40.9366C84.9424 40.9366 84.3046 41.5345 84.1452 42.4114H87.2144ZM86.3774 37.0303H87.6928V38.6247H86.3774V37.0303ZM93.8711 39.7806H100.249V46.7961H98.4949V41.2555H95.5851V46.7961H93.8313V39.7806H93.8711ZM102.122 39.7806H103.717V40.2988C103.717 40.5779 103.677 40.7771 103.677 40.7771H103.717C104.155 40.0198 105.032 39.5813 105.989 39.5813C107.902 39.5813 109.098 41.096 109.098 43.2485C109.098 45.4807 107.743 46.9157 105.909 46.9157C105.112 46.9157 104.394 46.5569 103.876 45.9191H103.836C103.836 45.9191 103.876 46.1583 103.876 46.517V49.4667H102.122V39.7806ZM105.55 45.4807C106.507 45.4807 107.304 44.6835 107.304 43.3282C107.304 42.0128 106.587 41.1359 105.59 41.1359C104.673 41.1359 103.836 41.8135 103.836 43.3681C103.796 44.4044 104.434 45.4807 105.55 45.4807ZM113.961 39.6212C116.113 39.6212 117.827 41.1359 117.827 43.2884C117.827 45.4408 116.113 46.9555 113.961 46.9555C111.808 46.9555 110.094 45.4408 110.094 43.2884C110.094 41.1359 111.848 39.6212 113.961 39.6212ZM113.961 45.4807C115.117 45.4807 116.034 44.6037 116.034 43.2884C116.034 42.0128 115.077 41.096 113.961 41.096C112.845 41.096 111.888 41.973 111.888 43.2884C111.888 44.6037 112.805 45.4807 113.961 45.4807ZM119.222 39.7806H120.896V45.3212H123.089V39.7806H124.763V45.3212H126.955V39.7806H128.629V45.3212H129.626V48.4702H128.071V46.8359H119.302V39.7806H119.222ZM133.891 39.6212C135.884 39.6212 137 41.096 137 42.9296C137 43.1688 136.96 43.3681 136.96 43.6072H132.137C132.257 44.8429 133.173 45.4807 134.25 45.4807C134.967 45.4807 135.685 45.1618 136.243 44.7233L136.92 45.959C136.203 46.5968 135.087 46.9555 134.09 46.9555C131.778 46.9555 130.304 45.2814 130.304 43.2884C130.304 41.1359 131.778 39.6212 133.891 39.6212ZM135.246 42.4114C135.246 41.4946 134.608 40.9366 133.851 40.9366C132.974 40.9366 132.336 41.5345 132.177 42.4114H135.246Z" fill="#204C59"/>
<path d="M97.0201 9.04831V29.1778C97.0201 29.4967 96.781 29.7358 96.4621 29.7358H92.3565C92.0376 29.7358 91.7984 29.4967 91.7984 29.1778V9.04831C91.7984 8.72943 92.0376 8.49025 92.3565 8.49025H96.4621C96.781 8.49025 97.0201 8.76929 97.0201 9.04831ZM129.068 8.49025H124.484C124.245 8.49025 124.045 8.64969 123.966 8.88886L120.338 20.8071L116.352 8.88886C116.273 8.64969 116.073 8.53012 115.834 8.53012H112.566C112.327 8.53012 112.127 8.68956 112.047 8.88886L108.061 20.8071L104.434 8.88886C104.354 8.64969 104.155 8.49025 103.916 8.49025H99.332C99.1726 8.49025 98.9733 8.56998 98.8936 8.72942C98.774 8.88886 98.774 9.04831 98.8138 9.20775L105.59 29.3771C105.67 29.6163 105.869 29.7358 106.108 29.7358H109.775C110.015 29.7358 110.214 29.5764 110.294 29.3771L114.24 17.6183L118.186 29.3771C118.266 29.6163 118.465 29.7358 118.704 29.7358H122.371C122.61 29.7358 122.81 29.5764 122.89 29.3771L129.666 9.20775C129.706 9.04831 129.706 8.849 129.586 8.72942C129.427 8.60984 129.267 8.49025 129.068 8.49025ZM136.004 8.49025H131.898C131.579 8.49025 131.34 8.72943 131.34 9.04831V29.1778C131.34 29.4967 131.579 29.7358 131.898 29.7358H136.004C136.322 29.7358 136.562 29.4967 136.562 29.1778V9.04831C136.562 8.76929 136.322 8.49025 136.004 8.49025ZM89.4467 29.0582C89.6858 29.3372 89.4865 29.7358 89.1278 29.7358H84.1054C83.9061 29.7358 83.7068 29.6561 83.5872 29.4967L82.7501 28.4603C80.9963 29.5764 78.9235 30.254 76.7312 30.254C70.5927 30.254 65.6102 25.2715 65.6102 19.133C65.6102 12.9945 70.5927 8.01194 76.7312 8.01194C82.8697 8.01194 87.8522 12.9945 87.8522 19.133C87.8522 21.3253 87.2145 23.398 86.0984 25.1519L89.4467 29.0582ZM79.4417 24.554L77.2494 21.8833C77.0102 21.6043 77.2095 21.1659 77.5683 21.1659H82.1921C82.4312 20.5281 82.5508 19.8106 82.5508 19.0931C82.5508 15.7847 80.0795 12.9148 76.6913 12.9148C73.3032 12.9148 70.8319 15.7847 70.8319 19.0931C70.8319 22.4015 73.3032 25.2316 76.6913 25.2316C77.6878 25.2715 78.6046 25.0323 79.4417 24.554ZM48.9884 41.4946C49.1478 42.6905 48.7891 43.2086 48.3905 43.2086C47.9919 43.2086 47.4338 42.7303 46.8359 41.7737C46.238 40.817 45.9989 39.7408 46.3177 39.1827C46.517 38.824 46.9156 38.6646 47.4737 38.8639C48.4702 39.1827 48.8688 40.7772 48.9884 41.4946ZM43.3681 44.0856C44.6037 45.1219 44.9625 46.3576 44.3247 47.1947C43.966 47.673 43.3681 47.9122 42.6904 47.9122C42.0128 47.9122 41.2953 47.673 40.817 47.2345C39.7009 46.2779 39.382 44.6835 40.0995 43.8065C40.3785 43.4478 40.8569 43.2485 41.3751 43.2485C42.0527 43.2884 42.7303 43.6072 43.3681 44.0856ZM41.2953 54.0507C46.5569 54.0507 52.2569 55.8444 58.5549 61.4647C59.1926 62.0227 60.0297 61.3451 59.4717 60.6276C53.2534 52.7751 47.5136 51.3003 41.8135 50.0248C34.7981 48.4702 31.2107 44.524 28.6995 40.2191C28.1813 39.3422 27.982 39.5016 27.9421 40.6177C27.9023 41.973 27.982 43.7667 28.3009 45.5205C28.0218 45.5205 27.7428 45.5205 27.4638 45.5205C17.4588 45.5205 9.32733 37.389 9.32733 27.3841C9.32733 17.3791 17.4588 9.24761 27.4638 9.24761C37.4687 9.24761 45.6003 17.3791 45.6003 27.3841C45.6003 28.1016 45.5604 28.819 45.4807 29.4967C44.1653 29.2575 41.5345 29.2177 39.7009 29.3771C39.0233 29.417 39.103 29.7757 39.6212 29.8554C45.6003 30.9316 49.7457 34.6387 50.6625 41.4149C50.7024 41.5744 50.9017 41.6142 50.9814 41.4946C53.4528 37.389 54.8479 32.5659 54.8479 27.4239C54.8479 12.277 42.5709 0 27.4239 0C12.277 0 0 12.277 0 27.4239C0 42.5709 12.277 54.8479 27.4239 54.8479C31.4498 54.8479 35.4359 54.0507 41.2953 54.0507Z" fill="#FF8C00"/>
</svg>
