<svg width="59" height="59" fill="none" xmlns="http://www.w3.org/2000/svg"><path fill-rule="evenodd" clip-rule="evenodd" d="M29.5 58C45.24 58 58 45.24 58 29.5S45.24 1 29.5 1 1 13.76 1 29.5 13.76 58 29.5 58zm0 1C45.792 59 59 45.792 59 29.5S45.792 0 29.5 0 0 13.208 0 29.5 13.208 59 29.5 59z" fill="#204C59"/><path d="M28.125 36.052h3.86v-.257c.053-3.103.944-4.493 3.238-5.91 2.416-1.458 3.9-3.509 3.9-6.545 0-4.386-3.32-7.354-8.272-7.354-4.548 0-8.191 2.658-8.367 7.516h4.103c.162-2.86 2.2-4.116 4.264-4.116 2.294 0 4.156 1.525 4.156 3.914 0 2.01-1.255 3.427-2.86 4.426-2.51 1.538-3.995 3.063-4.022 8.07v.256zm2.038 8.204a2.707 2.707 0 002.698-2.699c0-1.47-1.227-2.685-2.698-2.685-1.485 0-2.7 1.215-2.7 2.685a2.698 2.698 0 002.7 2.7z" fill="#204C59"/></svg>
