<svg width="81" height="81" viewBox="0 0 81 81" fill="none" xmlns="http://www.w3.org/2000/svg">
<path d="M49.4871 20.9713C46.7443 23.7141 46.7748 28.1331 49.4871 30.876C52.23 33.6188 56.649 33.6188 59.3918 30.876C62.1346 28.1331 62.1346 23.7141 59.3918 20.9713C56.649 18.2589 52.1995 18.2589 49.4871 20.9713ZM57.289 28.7731C55.7042 30.3579 53.1442 30.3579 51.59 28.7731C50.0052 27.1884 50.0052 24.6284 51.59 23.0741C53.1747 21.4894 55.7347 21.4894 57.289 23.0741C58.8432 24.6589 58.8432 27.2188 57.289 28.7731Z" fill="#7FC359"/>
<path d="M77.9823 2.38088C77.4033 1.83231 76.6718 1.52755 75.8795 1.5885L75.0871 1.64945C74.9042 1.67993 70.6071 2.31992 68.9614 2.68564C67.3767 3.02087 65.7919 3.41706 64.2377 3.90467C63.0491 4.27038 61.0682 5.00181 60.0015 5.39799C59.5139 5.58085 59.0568 5.7637 58.5691 5.97704L55.7654 7.22655L55.3387 7.43988C42.356 13.8703 32.3598 25.2073 27.118 39.3177L25.3809 44.0415L30.836 49.5271L36.3217 54.9519L41.0455 53.2147C55.1863 48.0033 66.4929 37.9768 72.9233 24.994L74.3557 21.794C74.569 21.3369 74.7519 20.8493 74.9347 20.3617C75.3309 19.295 76.0623 17.3446 76.428 16.1255C76.8852 14.5712 77.3118 12.9865 77.6471 11.4018C77.9823 9.84748 78.6223 5.70275 78.6528 5.42847L78.7442 4.48371C78.8356 3.72182 78.5309 2.92944 77.9823 2.38088ZM75.7271 5.09323C75.7271 5.12371 75.0871 9.32939 74.7519 10.7922C74.4166 12.316 74.0509 13.8094 73.5938 15.2722C73.2585 16.3998 72.5576 18.2893 72.1614 19.3255C72.009 19.7522 71.8262 20.1788 71.6433 20.575L70.4548 23.2569L70.2414 23.6836C64.1462 35.9654 53.4187 45.4738 39.9788 50.4414L37.0227 51.5385L32.8779 47.4243L28.7637 43.2796L29.8608 40.3234C34.8284 26.914 44.3064 16.156 56.5882 10.0608L59.6968 8.65892C60.0929 8.47606 60.5196 8.29321 60.9463 8.14083C61.9824 7.74464 63.872 7.07417 64.9996 6.70846C66.4624 6.28179 67.9862 5.88561 69.4795 5.55037C70.9424 5.24561 74.8433 4.63609 75.3919 4.54467L75.6966 4.51419L75.7271 5.09323Z" fill="#7FC359"/>
<path d="M19.194 49.0091C12.855 49.6796 9.01506 55.8662 7.67412 60.9557L11.6969 65.1613C12.0627 64.8261 12.4284 64.4909 12.7636 64.2166C14.2501 63.0004 15.7084 62.729 16.0436 62.8204C16.2874 62.8814 16.4703 63.0947 16.6226 63.4299C17.0188 64.3442 14.836 66.6851 14.1655 67.5385C14.1605 69.6617 19.6821 72.8313 19.6821 72.8313C20.5216 72.5491 21.3464 72.2233 22.1502 71.8661C24.3749 70.8603 26.5083 69.4889 28.154 67.6604C29.7082 65.9232 30.7139 63.9423 31.1101 61.7785C31.7196 58.3957 30.6835 54.9824 28.2759 52.3919C25.8683 49.9234 22.5768 48.6434 19.194 49.0091ZM28.1844 61.3214C27.8797 62.9366 27.1482 64.4299 25.9597 65.7404C24.4863 67.355 13.1231 74.1848 16.5426 69.3975C17.8226 67.6908 20.1578 64.1918 19.335 62.3328C19.0912 61.7842 18.7864 61.3271 18.4207 60.9614C17.9636 60.5042 17.415 60.1995 16.8055 60.0166C15.5864 59.6814 12.215 60.9861 10.996 61.8699C10.7522 62.0223 10.5389 62.2052 10.3255 62.388C10.3865 62.1442 10.4474 61.9309 10.5084 61.6871C11.6055 57.5119 14.6226 52.4529 19.4683 51.9348C21.9064 51.691 24.314 52.6357 26.0511 54.4643C27.8492 56.3843 28.6111 58.8833 28.1844 61.3214Z" fill="#7FC359"/>
<path fill-rule="evenodd" clip-rule="evenodd" d="M40.833 3.08081C20.3985 3.08081 3.83301 19.6463 3.83301 40.0808C3.83301 60.5153 20.3985 77.0808 40.833 77.0808C61.2675 77.0808 77.833 60.5153 77.833 40.0808C77.833 32.7583 75.7074 25.9369 72.0402 20.1944L74.5686 18.5797C78.5346 24.79 80.833 32.1693 80.833 40.0808C80.833 62.1722 62.9244 80.0808 40.833 80.0808C18.7416 80.0808 0.833008 62.1722 0.833008 40.0808C0.833008 17.9894 18.7416 0.0808105 40.833 0.0808105C48.3237 0.0808105 55.3377 2.14124 61.3341 5.72712L59.7944 8.30187C54.2504 4.98653 47.7665 3.08081 40.833 3.08081Z" fill="#2175AA"/>
</svg>
