<svg width="43" height="47" viewBox="0 0 43 47" fill="none" xmlns="http://www.w3.org/2000/svg">
<path fill-rule="evenodd" clip-rule="evenodd" d="M42.2356 22.8578L19.4396 45.6538C19.4076 45.7018 19.3866 45.7558 19.3446 45.7978C19.1476 45.9938 18.8876 46.0848 18.6296 46.0788C18.3716 46.0848 18.1116 45.9938 17.9146 45.7978C17.8726 45.7558 17.8526 45.7018 17.8196 45.6538L1.05858 28.8928C1.01058 28.8608 0.957582 28.8398 0.914582 28.7978C0.717582 28.6008 0.628582 28.3408 0.633582 28.0828C0.627582 27.8248 0.717582 27.5648 0.914582 27.3678C0.957582 27.3258 1.01058 27.3058 1.05858 27.2728L23.8546 4.47776C24.0376 4.24276 24.3096 4.08276 24.6296 4.08276H24.6506C24.6526 4.08276 24.6546 4.08276 24.6566 4.08276H28.6856C28.8186 2.58076 29.4316 1.26276 30.3556 0.399764L30.3716 0.417764C30.5676 0.210764 30.8346 0.0827637 31.1296 0.0827637C31.7216 0.0827637 32.2016 0.594764 32.2016 1.22576C32.2016 1.60076 32.0216 1.91676 31.7606 2.12476C31.2816 2.56676 30.9406 3.26376 30.8266 4.08276H35.6016C35.6036 4.08276 35.6056 4.08276 35.6096 4.08276H35.6296C35.9496 4.08276 36.2236 4.24276 36.4046 4.47776L42.2346 10.3078C42.4686 10.4908 42.6296 10.7638 42.6296 11.0838V11.1048C42.6296 11.1068 42.6296 11.1088 42.6296 11.1108V22.0558C42.6296 22.0578 42.6296 22.0598 42.6296 22.0628V22.0828C42.6296 22.4028 42.4696 22.6758 42.2356 22.8578ZM31.8876 15.7488C31.6946 15.9548 31.4266 16.0828 31.1296 16.0828C30.5376 16.0828 30.0596 15.5708 30.0596 14.9398C30.0596 14.5648 30.2396 14.2488 30.5006 14.0398C30.7486 13.8108 30.9516 13.5028 31.1176 13.1568C30.2626 13.3848 29.6296 14.1568 29.6296 15.0818C29.6296 16.1858 30.5256 17.0818 31.6296 17.0818C32.7346 17.0818 33.6296 16.1858 33.6296 15.0818C33.6296 14.6088 33.4596 14.1808 33.1846 13.8378C32.5696 15.3848 31.8876 15.7488 31.8876 15.7488ZM40.6296 11.4638L35.2486 6.08276H31.0356C31.2096 6.52676 31.4596 6.90476 31.7606 7.18276C31.8016 7.21576 31.8526 7.23576 31.8876 7.27476L31.9056 7.25676C32.9466 8.22976 33.6306 9.76476 33.6306 11.5108C33.6306 11.5528 33.6206 11.5898 33.6186 11.6308C34.8156 12.3218 35.6306 13.6008 35.6306 15.0828C35.6306 17.2918 33.8396 19.0828 31.6306 19.0828C29.4216 19.0828 27.6306 17.2918 27.6306 15.0828C27.6306 12.9358 29.3256 11.1978 31.4506 11.1008C31.3606 10.2128 31.0096 9.45276 30.5016 8.98276C30.4606 8.94976 30.4096 8.92976 30.3726 8.89076L30.3566 8.90876C29.6126 8.21376 29.0636 7.22376 28.8036 6.08276H25.0106L3.01058 28.0828L18.6296 43.7018L40.6296 21.7018V11.4638ZM11.9156 26.3678C12.2976 25.9868 12.9156 25.9868 13.2966 26.3678L20.3456 33.4168C20.7266 33.7978 20.7266 34.4158 20.3456 34.7978C19.9646 35.1788 19.3456 35.1788 18.9646 34.7978L11.9156 27.7488C11.5346 27.3678 11.5346 26.7498 11.9156 26.3678ZM15.9156 22.3678C16.2976 21.9868 16.9156 21.9868 17.2966 22.3678L24.3446 29.4168C24.7256 29.7978 24.7256 30.4158 24.3446 30.7978C23.9636 31.1788 23.3446 31.1788 22.9636 30.7978L15.9156 23.7488C15.5346 23.3678 15.5346 22.7498 15.9156 22.3678Z" fill="#2175AA"/>
</svg>
