<svg width="74" height="74" xmlns="http://www.w3.org/2000/svg"><path d="M8 0a8 8 0 00-8 8v58a8 8 0 008 8h58a8 8 0 008-8V8a8 8 0 00-8-8H8zm15.948 21.163a19.872 19.872 0 0125.105 0l1.895-2.326c-8.413-6.854-20.483-6.854-28.896 0l1.896 2.326zm20.098 4.995a11.87 11.87 0 00-15.093 0l-1.907-2.316a14.871 14.871 0 0118.907 0l-1.907 2.316zm-3.512 5.49a5.874 5.874 0 00-7.568 0l-1.932-2.295a8.874 8.874 0 0111.432 0l-1.932 2.294zM58 48H16v11h42V48zm-42-3h-3v17h48V45h-6V26h-3v19H22V26h-3v19h-3zm6 5h-3v3h3v-3zm3 0h3v3h-3v-3zm9 0h-3v3h3v-3zm8 3h14v3H42v-3z" fill="#fff" fill-rule="evenodd"/></svg>
