<svg width="36" height="31" fill="none" xmlns="http://www.w3.org/2000/svg"><path fill-rule="evenodd" clip-rule="evenodd" d="M30.716 21.554h1.539a3.382 3.382 0 013.378 3.379v1.77a3.382 3.382 0 01-3.378 3.378H4.095a3.382 3.382 0 01-3.38-3.379v-1.77a3.382 3.382 0 013.38-3.378h1.539V7.858c0-1.2.743-2.229 1.793-2.652v-4.06a1.066 1.066 0 112.131 0v4.06a2.863 2.863 0 011.794 2.652v13.696h13.645V7.858c0-1.2.744-2.229 1.794-2.652v-4.06a1.066 1.066 0 012.131 0v4.06a2.863 2.863 0 011.794 2.652v13.696zM27.856 7.13a.729.729 0 00-.727.728v13.696h1.456V7.858a.729.729 0 00-.728-.728zm-20.091.728a.729.729 0 011.456 0v13.696H7.765V7.858zm24.49 20.092c.688 0 1.247-.56 1.247-1.248v-1.77c0-.687-.56-1.246-1.247-1.246H4.095c-.689 0-1.248.56-1.248 1.247v1.77c0 .687.56 1.247 1.247 1.247h28.16zm-24.78-3.198H5.98a1.066 1.066 0 000 2.131h1.496a1.066 1.066 0 000-2.131zm2.811 0h1.496a1.066 1.066 0 010 2.131h-1.496a1.066 1.066 0 010-2.131zm5.803 0h-1.496a1.066 1.066 0 000 2.131h1.495a1.066 1.066 0 000-2.131zm7.944 0h6.303a1.066 1.066 0 110 2.131h-6.303a1.066 1.066 0 010-2.131z" fill="currentColor"/></svg>
