<svg width="36" height="31" viewBox="0 0 36 31" fill="none" xmlns="http://www.w3.org/2000/svg">
<path fill-rule="evenodd" clip-rule="evenodd" d="M30.7159 21.5544H32.2549C34.1179 21.5544 35.6335 23.0699 35.6335 24.9328V26.7024C35.6335 28.5652 34.118 30.0808 32.255 30.0808H4.09435C2.2314 30.0808 0.71582 28.5653 0.71582 26.7024V24.9328C0.71582 23.0699 2.2314 21.5543 4.09435 21.5543H5.63362V7.85821C5.63362 6.65829 6.37707 5.62927 7.42723 5.20582V1.14639C7.42723 0.557861 7.90428 0.0808105 8.49281 0.0808105C9.08134 0.0808105 9.55839 0.557861 9.55839 1.14639V5.20582C10.6086 5.62927 11.352 6.65821 11.352 7.85821V21.5543H24.9975V7.85821C24.9975 6.65829 25.741 5.62927 26.7911 5.20582V1.14639C26.7911 0.557861 27.2682 0.0808105 27.8567 0.0808105C28.4452 0.0808105 28.9223 0.557861 28.9223 1.14639V5.20582C29.9725 5.62927 30.7159 6.65821 30.7159 7.85821V21.5544ZM27.8567 7.13017C27.4552 7.13017 27.1287 7.45681 27.1287 7.85821V21.5543H28.5847V7.85821C28.5847 7.45673 28.2582 7.13017 27.8567 7.13017ZM7.76477 7.85821C7.76477 7.45681 8.09133 7.13017 8.49281 7.13017C8.89429 7.13017 9.22084 7.45673 9.22084 7.85821V21.5543H7.76477V7.85821ZM32.2549 27.9497C32.9428 27.9497 33.5023 27.3902 33.5023 26.7024H33.5024V24.9328C33.5024 24.2451 32.9429 23.6855 32.255 23.6855H4.09435C3.40648 23.6855 2.84697 24.2451 2.84697 24.9328V26.7024C2.84697 27.3901 3.40648 27.9497 4.09435 27.9497H32.2549ZM7.47551 24.752H5.97993C5.39141 24.752 4.91436 25.2291 4.91436 25.8176C4.91436 26.4061 5.39141 26.8832 5.97993 26.8832H7.47551C8.06404 26.8832 8.54109 26.4061 8.54109 25.8176C8.54109 25.2291 8.06396 24.752 7.47551 24.752ZM10.2864 24.752H11.782C12.3704 24.752 12.8476 25.2291 12.8476 25.8176C12.8476 26.4061 12.3705 26.8832 11.782 26.8832H10.2864C9.69789 26.8832 9.22084 26.4061 9.22084 25.8176C9.22084 25.2291 9.69789 24.752 10.2864 24.752ZM16.0885 24.752H14.5929C14.0044 24.752 13.5273 25.2291 13.5273 25.8176C13.5273 26.4061 14.0044 26.8832 14.5929 26.8832H16.0885C16.677 26.8832 17.1541 26.4061 17.1541 25.8176C17.1541 25.2291 16.677 24.752 16.0885 24.752ZM24.0334 24.752H30.3361C30.9247 24.752 31.4017 25.2291 31.4017 25.8176C31.4017 26.4061 30.9247 26.8832 30.3361 26.8832H24.0334C23.4449 26.8832 22.9678 26.4061 22.9678 25.8176C22.9678 25.2291 23.4449 24.752 24.0334 24.752Z" fill="#204C59"/>
</svg>
