<svg width="79" height="81" viewBox="0 0 79 81" fill="none" xmlns="http://www.w3.org/2000/svg">
<path d="M50.2876 41.8349L49.955 42.7993L57.3381 50.1825C57.97 50.8144 59.0342 50.8144 59.6661 50.1825C60.298 49.5506 60.298 48.4863 59.6661 47.8545L53.7131 41.9014C53.8461 41.4358 53.9459 40.9369 54.0457 40.4381C55.1099 34.8176 53.3472 28.9975 49.4561 24.9734C49.3564 24.8736 49.2566 24.7406 49.1568 24.6408L49.0238 24.5078C44.9331 20.5169 39.1464 18.721 33.5591 19.7188C33.16 19.7853 32.761 19.885 32.3619 19.9848L29.5017 20.65L40.0111 31.1593C40.4434 31.5916 40.6429 32.1237 40.6429 32.7224C40.6429 33.321 40.4101 33.8531 40.0111 34.2855L33.7254 40.5378C33.3263 40.9702 32.761 41.1697 32.1623 41.1697C31.5637 41.1697 31.0316 40.9369 30.5992 40.5378L20.1232 30.0285L19.4248 32.8554C19.325 33.2877 19.2252 33.7201 19.1587 34.1857C18.1942 39.8394 20.0567 45.6262 24.1141 49.6836C24.2471 49.8166 24.4134 49.9829 24.5131 50.0827C28.5705 53.874 34.2575 55.5702 39.7117 54.6057C40.2439 54.5059 40.8092 54.4061 41.3413 54.2399L47.2944 60.1929C47.627 60.5255 48.0261 60.6918 48.4584 60.6918C48.8908 60.6918 49.2899 60.5255 49.6224 60.1929C50.2543 59.561 50.2543 58.4968 49.6224 57.8649L42.2393 50.4818L41.2748 50.8144C40.5764 51.0472 39.878 51.2467 39.1464 51.3465C34.6234 52.1446 30.1004 50.8144 26.7081 47.6217C26.6084 47.5551 26.5086 47.4554 26.4088 47.3556C23.6152 44.562 22.1186 40.7041 22.2184 36.7798L28.2712 42.8326C29.3022 43.8636 30.699 44.4622 32.1623 44.4622C33.6257 44.4622 35.0225 43.8968 36.0534 42.8659L42.3058 36.6135C43.3368 35.5825 43.9354 34.1857 43.9354 32.7224C43.9354 31.259 43.37 29.8622 42.3058 28.8313L36.2197 22.7452C40.1441 22.6454 43.9687 24.142 46.7956 26.9356L46.8953 27.0354C46.9286 27.0686 46.9618 27.1019 46.9951 27.1351C50.2211 30.4941 51.6511 35.2167 50.7864 39.7729C50.6534 40.5378 50.4871 41.203 50.2876 41.8349Z" fill="#7FC359"/>
<path d="M3.72753 40.5378C3.72753 20.6167 19.9238 4.42038 39.845 4.42038C44.8003 4.42038 49.5894 5.38485 54.0791 7.31377L49.2901 12.1361C48.8577 12.5684 48.7247 13.1671 48.8577 13.7324C49.024 14.2978 49.4564 14.7634 50.0217 14.8964L65.819 19.1201C65.952 19.1534 66.1183 19.1866 66.2513 19.1866C66.6837 19.1866 67.116 19.0203 67.4153 18.6878C67.8477 18.2554 67.9807 17.6568 67.8477 17.0914L63.624 1.29419C63.4577 0.72882 63.0254 0.263218 62.46 0.130189C61.8946 -0.00284059 61.296 0.130189 60.8636 0.562534L56.5734 4.81947C51.3188 2.35843 45.6983 1.09465 39.845 1.09465C18.128 1.12791 0.435059 18.7875 0.435059 40.5378C0.435059 45.5597 1.33301 50.382 3.16216 54.9383C3.42822 55.6034 4.02685 55.9692 4.692 55.9692C4.89154 55.9692 5.09108 55.936 5.29063 55.8695C6.15532 55.5369 6.55441 54.5724 6.22183 53.741C4.55897 49.5506 3.72753 45.1273 3.72753 40.5378ZM61.1629 4.91924L63.9233 15.1958L53.6468 12.4354L61.1629 4.91924Z" fill="#2175AA"/>
<path d="M75.896 26.4367C75.5634 25.572 74.6322 25.1397 73.7675 25.4722C72.9028 25.8048 72.4705 26.736 72.803 27.6007C74.3661 31.7911 75.0978 36.2476 74.998 40.8371C74.7985 50.4818 70.8408 59.4612 63.8901 66.146C56.9393 72.8307 47.8268 76.3892 38.1489 76.1897C33.1936 76.0899 28.4378 75.0257 23.9813 72.997L28.9034 68.2744C29.3357 67.8753 29.502 67.2767 29.369 66.6781C29.2359 66.1127 28.8036 65.6471 28.2382 65.4808L12.5408 60.9246C11.9754 60.7583 11.3767 60.9246 10.9444 61.3236C10.5121 61.7227 10.3458 62.3214 10.4788 62.92L14.3699 78.817C14.5029 79.3824 14.9353 79.848 15.5007 80.0143C15.6669 80.0475 15.8 80.0808 15.9663 80.0808C16.3986 80.0808 16.7977 79.9145 17.097 79.6152L21.4537 75.4248C26.6419 77.9856 32.2291 79.3491 38.1156 79.4821C38.3817 79.4821 38.681 79.4821 38.9471 79.4821C49.1571 79.4821 58.835 75.591 66.2181 68.5072C73.8008 61.2239 78.1242 51.413 78.3238 40.8704C78.4235 35.8818 77.6253 31.0262 75.896 26.4367ZM16.8642 75.2585L14.3366 64.9154L24.5466 67.8753L16.8642 75.2585Z" fill="#2175AA"/>
</svg>
