<svg width="91" height="84" viewBox="0 0 91 84" fill="none" xmlns="http://www.w3.org/2000/svg">
<path d="M74.2096 62.8249H17.0744C7.85916 62.8249 0.750588 54.7068 1.96964 45.5716L7.28392 14.5392C8.53725 7.22113 14.8801 1.87256 22.3011 1.87256H68.9792C76.4039 1.87256 82.7468 7.22113 84.0001 14.5392L89.3144 45.5716C90.5334 54.7068 83.4287 62.8249 74.2096 62.8249Z" stroke="#2175AA" stroke-width="3" stroke-miterlimit="10" stroke-linecap="round" stroke-linejoin="round"/>
<path d="M89.4521 48.0034V67.051C89.4521 75.4663 82.6292 82.2891 74.214 82.2891H17.0711C8.65586 82.2891 1.83301 75.4663 1.83301 67.051V48.0034" stroke="#2175AA" stroke-width="3" stroke-miterlimit="10" stroke-linecap="round" stroke-linejoin="round"/>
<path d="M32.3091 21.3369V44.1941" stroke="#7FC359" stroke-width="3" stroke-miterlimit="10" stroke-linecap="round" stroke-linejoin="round"/>
<path d="M24.6902 21.3369H39.9283" stroke="#7FC359" stroke-width="3" stroke-miterlimit="10" stroke-linecap="round" stroke-linejoin="round"/>
<path d="M47.5474 21.3369L57.0712 44.1941L66.595 21.3369" stroke="#7FC359" stroke-width="3" stroke-miterlimit="10" stroke-linecap="round" stroke-linejoin="round"/>
</svg>
