<svg width="31" height="28" viewBox="0 0 31 28" fill="none" xmlns="http://www.w3.org/2000/svg">
<path fill-rule="evenodd" clip-rule="evenodd" d="M3.78212 0.407715H27.0763C28.9251 0.407715 30.4291 1.91184 30.4292 3.76064V18.2181C30.4292 20.0669 28.9251 21.571 27.0763 21.571H18.4567L19.2602 25.6351H21.8654C22.4505 25.6351 22.9249 26.1094 22.9249 26.6946C22.9249 27.2798 22.4505 27.7542 21.8654 27.7542H8.99305C8.40786 27.7542 7.93352 27.2798 7.93352 26.6946C7.93352 26.1094 8.40786 25.6351 8.99305 25.6351H11.5982L12.4017 21.571H3.78212C1.93332 21.571 0.429199 20.0669 0.429199 18.2181V3.76064C0.429199 1.91184 1.93332 0.407715 3.78212 0.407715ZM13.7582 25.635H17.1001L16.2965 21.5709H14.5618L13.7582 25.635ZM28.3101 18.218C28.3101 18.8984 27.7565 19.4519 27.0762 19.4519H3.78212C3.10174 19.4519 2.54826 18.8984 2.54826 18.218V3.76064C2.54826 3.08026 3.10174 2.52677 3.78212 2.52677H27.0763C27.7567 2.52677 28.3101 3.08026 28.3101 3.76064V18.218H28.3101ZM8.89671 10.9893C8.89671 7.38732 11.8271 4.45683 15.4292 4.45683C19.0313 4.45683 21.9617 7.38732 21.9617 10.9893C21.9617 14.5913 19.0312 17.5218 15.4292 17.5218C11.8272 17.5218 8.89671 14.5913 8.89671 10.9893ZM18.4482 9.92979H19.7132C19.4232 8.75762 18.6637 7.76932 17.6464 7.17558C18.0617 8.03812 18.3333 8.9661 18.4482 9.92979ZM14.5506 9.92979C14.6858 9.07654 14.9834 8.26437 15.4292 7.53052C15.875 8.26445 16.1726 9.07654 16.3078 9.92979H14.5506ZM15.4292 14.4481C15.875 13.7143 16.1726 12.9021 16.3078 12.0488H14.5506C14.6858 12.9021 14.9834 13.7142 15.4292 14.4481ZM13.212 7.17558C12.7967 8.03804 12.5251 8.96602 12.4102 9.92979H11.1452C11.4352 8.75762 12.1947 7.76932 13.212 7.17558ZM12.4102 12.0488H11.1452C11.4352 13.221 12.1947 14.2093 13.212 14.8031C12.7967 13.9405 12.5251 13.0125 12.4102 12.0488ZM17.6464 14.8031C18.0617 13.9406 18.3333 13.0126 18.4482 12.0488H19.7132C19.4232 13.221 18.6637 14.2093 17.6464 14.8031Z" fill="#204C59"/>
</svg>
