<svg width="34" height="34" fill="none" xmlns="http://www.w3.org/2000/svg"><rect width="34" height="34" rx="8" fill="currentColor"/><path d="M14.66 24c6.794 0 10.51-5.387 10.51-10.056 0-.151 0-.302-.011-.46A7.342 7.342 0 0027 11.655a7.535 7.535 0 01-2.124.556 3.575 3.575 0 001.627-1.956c-.723.41-1.52.702-2.344.859-1.4-1.421-3.739-1.492-5.224-.152-.96.865-1.367 2.151-1.068 3.378-2.97-.14-5.738-1.486-7.613-3.69-.983 1.615-.48 3.679 1.14 4.716a3.773 3.773 0 01-1.677-.443v.043c0 1.68 1.243 3.129 2.965 3.464a3.853 3.853 0 01-1.666.06c.486 1.437 1.87 2.426 3.451 2.453a7.649 7.649 0 01-4.586 1.518A8.03 8.03 0 019 22.411 10.796 10.796 0 0014.66 24" fill="#E7ECF5"/></svg>
