<svg width="85" height="81" viewBox="0 0 85 81" fill="none" xmlns="http://www.w3.org/2000/svg">
<path d="M83.9418 30.6581C83.807 30.4221 70.8613 6.62105 43.925 6.65477V1.76644C43.925 0.822488 43.1833 0.0808105 42.2393 0.0808105C41.2954 0.0808105 40.5537 0.822488 40.5537 1.76644V6.65477C13.5836 6.62105 0.671686 30.4221 0.536835 30.6581C0.233422 31.1975 0.267134 31.8718 0.637973 32.4112C1.00881 32.9169 1.58193 33.2203 2.22247 33.1192C2.3236 33.1192 11.19 32.1415 21.7083 38.8503C22.1466 39.12 22.686 39.1874 23.1917 39.0189C23.2591 38.9851 30.4736 36.4567 40.52 36.1196V70.7761C40.52 73.2709 41.4976 75.597 43.2507 77.3501C45.0038 79.1031 47.3636 80.0808 49.8247 80.0808C54.949 80.0808 59.1293 75.9004 59.1293 70.7761C59.1293 69.8322 58.3877 69.0905 57.4437 69.0905C56.4998 69.0905 55.7581 69.8322 55.7581 70.7761C55.7581 74.0463 53.0948 76.7095 49.8247 76.7095C48.2402 76.7095 46.7568 76.1027 45.6106 74.9565C44.4981 73.844 43.8575 72.3606 43.8575 70.7424V36.1196C53.8702 36.4567 61.1184 38.9851 61.1858 39.0189C61.3544 39.0863 61.5566 39.12 61.7589 39.12C62.0623 39.12 62.3995 39.0189 62.6692 38.8503C73.2212 32.1415 82.0876 33.1192 82.155 33.1192C82.7956 33.1866 83.4024 32.9169 83.7395 32.4112C84.2115 31.9055 84.2452 31.2313 83.9418 30.6581ZM61.6241 35.5802C59.2642 34.8385 51.8811 32.782 42.2056 32.7146C32.5975 32.782 25.2482 34.8385 22.8883 35.5802C15.4378 31.029 8.86385 29.9165 5.08804 29.7142C9.20097 23.7471 21.3712 9.21693 42.1719 10.0597C42.2056 10.0597 42.2056 10.0597 42.2393 10.0597H42.273C63.0737 9.21693 75.2102 23.7471 79.3232 29.7142C75.6148 29.9165 69.0408 31.029 61.6241 35.5802Z" fill="#2175AA"/>
<path d="M19.2473 20.4433C18.4045 20.0051 17.3931 20.3422 16.9549 21.185L14.1567 26.6128C13.7185 27.4556 14.0556 28.4669 14.8984 28.9052C15.1344 29.0401 15.4041 29.1075 15.6738 29.1075C16.2806 29.1075 16.8874 28.7704 17.1909 28.1972L19.989 22.7695C20.3936 21.893 20.0564 20.8479 19.2473 20.4433Z" fill="#7FC359"/>
<path d="M36.3393 13.2624C35.4965 12.8242 34.4851 13.1613 34.0469 14.0041L26.293 29.0399C25.8547 29.8828 26.1918 30.8941 27.0346 31.3324C27.2706 31.4672 27.5403 31.5347 27.81 31.5347C28.4169 31.5347 29.0237 31.1975 29.3271 30.6244L37.081 15.5886C37.5193 14.7121 37.1821 13.7007 36.3393 13.2624Z" fill="#7FC359"/>
<path d="M49.7573 13.2624C48.9145 12.8242 47.9031 13.1613 47.4648 14.0041L40.4863 27.5566C40.0481 28.3994 40.3852 29.4108 41.228 29.849C41.464 29.9839 41.7337 30.0513 42.0034 30.0513C42.6102 30.0513 43.217 29.7142 43.5205 29.1411L50.499 15.5886C50.9035 14.7121 50.5664 13.7007 49.7573 13.2624Z" fill="#7FC359"/>
<path d="M61.2867 16.9033C60.4439 16.465 59.4326 16.8022 58.9943 17.645L53.2969 28.7027C52.8586 29.5455 53.1957 30.5569 54.0385 30.9952C54.2745 31.13 54.5442 31.1974 54.8139 31.1974C55.4208 31.1974 56.0276 30.8603 56.331 30.2872L61.9947 19.1958C62.433 18.353 62.0959 17.3416 61.2867 16.9033Z" fill="#7FC359"/>
<path d="M71.03 24.0505C70.1871 23.6122 69.1758 23.9493 68.7375 24.7584L67.8947 26.3766C67.4564 27.2194 67.7936 28.2308 68.6027 28.6691C68.8386 28.8039 69.1083 28.8714 69.378 28.8714C69.9849 28.8714 70.5917 28.5342 70.8614 27.9611L71.7042 26.3429C72.1762 25.5001 71.8391 24.4887 71.03 24.0505Z" fill="#7FC359"/>
</svg>
