<svg width="39" height="22" viewBox="0 0 39 22" fill="none" xmlns="http://www.w3.org/2000/svg">
<path fill-rule="evenodd" clip-rule="evenodd" d="M30.9785 4.58081C30.9785 2.37167 29.1877 0.580811 26.9785 0.580811H4.97852C2.76938 0.580811 0.978516 2.37167 0.978516 4.58081V17.5808C0.978516 19.7899 2.76938 21.5808 4.97852 21.5808H26.9785C29.1877 21.5808 30.9785 19.7899 30.9785 17.5808V11.7322L37.0086 17.7622C37.6385 18.3922 38.7157 17.946 38.7157 17.0551V3.58081C38.7157 2.68991 37.6385 2.24374 37.0086 2.8737L30.9785 8.90375V4.58081ZM4.97852 2.58081H26.9785L27.1278 2.5863C28.1626 2.66265 28.9785 3.52645 28.9785 4.58081V17.5808L28.973 17.7301C28.8967 18.7649 28.0329 19.5808 26.9785 19.5808H4.97852L4.82925 19.5753C3.79439 19.499 2.97852 18.6352 2.97852 17.5808V4.58081L2.984 4.43155C3.06035 3.39669 3.92415 2.58081 4.97852 2.58081ZM9.97852 7.08081C9.97852 7.90924 9.30694 8.58081 8.47852 8.58081C7.65009 8.58081 6.97852 7.90924 6.97852 7.08081C6.97852 6.25238 7.65009 5.58081 8.47852 5.58081C9.30694 5.58081 9.97852 6.25238 9.97852 7.08081ZM7.97852 14.5808C7.42623 14.5808 6.97852 15.0285 6.97852 15.5808C6.97852 16.1331 7.42623 16.5808 7.97852 16.5808H23.9785C24.5308 16.5808 24.9785 16.1331 24.9785 15.5808C24.9785 15.0285 24.5308 14.5808 23.9785 14.5808H7.97852ZM14.9785 7.08081C14.9785 7.90924 14.3069 8.58081 13.4785 8.58081C12.6501 8.58081 11.9785 7.90924 11.9785 7.08081C11.9785 6.25238 12.6501 5.58081 13.4785 5.58081C14.3069 5.58081 14.9785 6.25238 14.9785 7.08081ZM36.7155 14.6408L32.3925 10.3178L36.7155 5.99481V14.6408Z" fill="#204C59"/>
</svg>
