<svg width="34" height="34" fill="none" xmlns="http://www.w3.org/2000/svg"><rect width="34" height="34" rx="8" fill="currentColor"/><path fill-rule="evenodd" clip-rule="evenodd" d="M16.611 23.422c.6 0 .6-.9.6-1.25 0-.624.599-1.249 1.198-1.249.6 0 1.627 1.071 2.397 1.874.599.625.599.625 1.198.625h1.798S25 23.374 25 22.172c0-.39-.41-1.052-1.797-2.498-1.199-1.25-1.814-.604 0-3.124 1.104-1.534 1.907-2.924 1.77-3.325-.132-.383-3.204-.992-3.568-.423-1.198 1.874-1.418 2.333-1.798 3.123-.599 1.25-.658 1.875-1.198 1.875-.545 0-.6-1.213-.6-1.875 0-2.065.288-3.525-.598-3.748h-1.798c-.965 0-1.797.625-1.797.625s-.744.605-.6.625c.179.025 1.199-.259 1.199.625V15.3s.005 2.499-.6 2.499c-.599 0-1.797-2.5-2.995-4.373-.47-.735-.6-.625-1.199-.625-.642 0-1.197.026-1.797.026-.6 0-.676.398-.6.599 1.199 3.123 2.06 5.085 4.337 7.556 2.088 2.267 3.483 2.387 4.651 2.439.3.013 0 0 .6 0z" fill="#E7ECF5"/></svg>
