<svg width="48" height="49" fill="none" xmlns="http://www.w3.org/2000/svg"><path fill-rule="evenodd" clip-rule="evenodd" d="M36.053 7.466a19.872 19.872 0 00-25.105 0L9.051 5.141c8.413-6.855 20.483-6.855 28.895 0l-1.895 2.325zm-20.1 4.996a11.87 11.87 0 0115.093 0l1.907-2.316a14.87 14.87 0 00-18.907 0l1.908 2.316zm4.013 5.489a5.874 5.874 0 017.568 0l1.932-2.295a8.874 8.874 0 00-11.432 0l1.932 2.295zM3 34.304h42v11H3v-11zm-3-3h6v-19h3v19h30v-19h3v19h6v17H0v-17zm6 5h3v3H6v-3zm9 0h-3v3h3v-3zm3 0h3v3h-3v-3zm25 3H29v3h14v-3z" fill="currentColor"/></svg>
