<svg width="28" height="28" viewBox="0 0 28 28" fill="none" xmlns="http://www.w3.org/2000/svg">
<path d="M0 3C0 1.34315 1.34315 0 3 0H25C26.6569 0 28 1.34315 28 3V25C28 26.6569 26.6569 28 25 28H3C1.34315 28 0 26.6569 0 25V3Z" fill="#EFF3F9"/>
<path fill-rule="evenodd" clip-rule="evenodd" d="M5.99998 16.3545C7.23085 14.8928 7.23085 12.7573 5.99998 11.2956L7.53397 10.0038C9.39346 12.212 9.39346 15.4381 7.53397 17.6462L5.99998 16.3545Z" fill="#C4C4C4"/>
<path fill-rule="evenodd" clip-rule="evenodd" d="M9.66967 18.7026C12.0828 15.7724 12.0828 11.5435 9.66967 8.61326L11.2177 7.33838C14.2407 11.0092 14.2407 16.3067 11.2177 19.9775L9.66967 18.7026Z" fill="#C4C4C4"/>
<path fill-rule="evenodd" clip-rule="evenodd" d="M13.0088 22.0491C16.9898 17.1633 16.9898 10.1526 13.0088 5.26679L14.5635 4C19.1455 9.62343 19.1455 17.6925 14.5635 23.3159L13.0088 22.0491Z" fill="#C4C4C4"/>
</svg>
